G04 #@! TF.GenerationSoftware,KiCad,Pcbnew,(5.0.0)*
G04 #@! TF.CreationDate,2019-04-18T12:31:28+02:00*
G04 #@! TF.ProjectId,WateringSystem,5761746572696E6753797374656D2E6B,rev?*
G04 #@! TF.SameCoordinates,Original*
G04 #@! TF.FileFunction,Soldermask,Top*
G04 #@! TF.FilePolarity,Negative*
%FSLAX46Y46*%
G04 Gerber Fmt 4.6, Leading zero omitted, Abs format (unit mm)*
G04 Created by KiCad (PCBNEW (5.0.0)) date 04/18/19 12:31:28*
%MOMM*%
%LPD*%
G01*
G04 APERTURE LIST*
%ADD10R,2.000000X2.000000*%
%ADD11O,2.000000X2.000000*%
%ADD12C,2.180000*%
%ADD13C,0.100000*%
%ADD14C,1.350000*%
%ADD15R,2.080000X2.100000*%
%ADD16C,1.825000*%
%ADD17O,2.100000X2.100000*%
%ADD18R,2.100000X2.100000*%
%ADD19R,1.300000X1.200000*%
G04 APERTURE END LIST*
D10*
G04 #@! TO.C,A1*
X103174800Y-76758800D03*
D11*
X70154800Y-91998800D03*
X100634800Y-76758800D03*
X72694800Y-91998800D03*
X98094800Y-76758800D03*
X75234800Y-91998800D03*
X95554800Y-76758800D03*
X77774800Y-91998800D03*
X93014800Y-76758800D03*
X80314800Y-91998800D03*
X90474800Y-76758800D03*
X82854800Y-91998800D03*
X87934800Y-76758800D03*
X85394800Y-91998800D03*
X85394800Y-76758800D03*
X87934800Y-91998800D03*
X82854800Y-76758800D03*
X90474800Y-91998800D03*
X80314800Y-76758800D03*
X93014800Y-91998800D03*
X77774800Y-76758800D03*
X95554800Y-91998800D03*
X75234800Y-76758800D03*
X98094800Y-91998800D03*
X72694800Y-76758800D03*
X100634800Y-91998800D03*
X70154800Y-76758800D03*
X103174800Y-91998800D03*
X67614800Y-76758800D03*
X67614800Y-91998800D03*
D12*
X105714800Y-76758800D03*
X105714800Y-91998800D03*
X65074800Y-91998800D03*
X65074800Y-76758800D03*
G04 #@! TD*
D13*
G04 #@! TO.C,C1*
G36*
X69116181Y-79641425D02*
X69148943Y-79646285D01*
X69181071Y-79654333D01*
X69212256Y-79665491D01*
X69242196Y-79679652D01*
X69270605Y-79696679D01*
X69297208Y-79716409D01*
X69321749Y-79738651D01*
X69343991Y-79763192D01*
X69363721Y-79789795D01*
X69380748Y-79818204D01*
X69394909Y-79848144D01*
X69406067Y-79879329D01*
X69414115Y-79911457D01*
X69418975Y-79944219D01*
X69420600Y-79977300D01*
X69420600Y-80652300D01*
X69418975Y-80685381D01*
X69414115Y-80718143D01*
X69406067Y-80750271D01*
X69394909Y-80781456D01*
X69380748Y-80811396D01*
X69363721Y-80839805D01*
X69343991Y-80866408D01*
X69321749Y-80890949D01*
X69297208Y-80913191D01*
X69270605Y-80932921D01*
X69242196Y-80949948D01*
X69212256Y-80964109D01*
X69181071Y-80975267D01*
X69148943Y-80983315D01*
X69116181Y-80988175D01*
X69083100Y-80989800D01*
X68308100Y-80989800D01*
X68275019Y-80988175D01*
X68242257Y-80983315D01*
X68210129Y-80975267D01*
X68178944Y-80964109D01*
X68149004Y-80949948D01*
X68120595Y-80932921D01*
X68093992Y-80913191D01*
X68069451Y-80890949D01*
X68047209Y-80866408D01*
X68027479Y-80839805D01*
X68010452Y-80811396D01*
X67996291Y-80781456D01*
X67985133Y-80750271D01*
X67977085Y-80718143D01*
X67972225Y-80685381D01*
X67970600Y-80652300D01*
X67970600Y-79977300D01*
X67972225Y-79944219D01*
X67977085Y-79911457D01*
X67985133Y-79879329D01*
X67996291Y-79848144D01*
X68010452Y-79818204D01*
X68027479Y-79789795D01*
X68047209Y-79763192D01*
X68069451Y-79738651D01*
X68093992Y-79716409D01*
X68120595Y-79696679D01*
X68149004Y-79679652D01*
X68178944Y-79665491D01*
X68210129Y-79654333D01*
X68242257Y-79646285D01*
X68275019Y-79641425D01*
X68308100Y-79639800D01*
X69083100Y-79639800D01*
X69116181Y-79641425D01*
X69116181Y-79641425D01*
G37*
D14*
X68695600Y-80314800D03*
D13*
G36*
X70866181Y-79641425D02*
X70898943Y-79646285D01*
X70931071Y-79654333D01*
X70962256Y-79665491D01*
X70992196Y-79679652D01*
X71020605Y-79696679D01*
X71047208Y-79716409D01*
X71071749Y-79738651D01*
X71093991Y-79763192D01*
X71113721Y-79789795D01*
X71130748Y-79818204D01*
X71144909Y-79848144D01*
X71156067Y-79879329D01*
X71164115Y-79911457D01*
X71168975Y-79944219D01*
X71170600Y-79977300D01*
X71170600Y-80652300D01*
X71168975Y-80685381D01*
X71164115Y-80718143D01*
X71156067Y-80750271D01*
X71144909Y-80781456D01*
X71130748Y-80811396D01*
X71113721Y-80839805D01*
X71093991Y-80866408D01*
X71071749Y-80890949D01*
X71047208Y-80913191D01*
X71020605Y-80932921D01*
X70992196Y-80949948D01*
X70962256Y-80964109D01*
X70931071Y-80975267D01*
X70898943Y-80983315D01*
X70866181Y-80988175D01*
X70833100Y-80989800D01*
X70058100Y-80989800D01*
X70025019Y-80988175D01*
X69992257Y-80983315D01*
X69960129Y-80975267D01*
X69928944Y-80964109D01*
X69899004Y-80949948D01*
X69870595Y-80932921D01*
X69843992Y-80913191D01*
X69819451Y-80890949D01*
X69797209Y-80866408D01*
X69777479Y-80839805D01*
X69760452Y-80811396D01*
X69746291Y-80781456D01*
X69735133Y-80750271D01*
X69727085Y-80718143D01*
X69722225Y-80685381D01*
X69720600Y-80652300D01*
X69720600Y-79977300D01*
X69722225Y-79944219D01*
X69727085Y-79911457D01*
X69735133Y-79879329D01*
X69746291Y-79848144D01*
X69760452Y-79818204D01*
X69777479Y-79789795D01*
X69797209Y-79763192D01*
X69819451Y-79738651D01*
X69843992Y-79716409D01*
X69870595Y-79696679D01*
X69899004Y-79679652D01*
X69928944Y-79665491D01*
X69960129Y-79654333D01*
X69992257Y-79646285D01*
X70025019Y-79641425D01*
X70058100Y-79639800D01*
X70833100Y-79639800D01*
X70866181Y-79641425D01*
X70866181Y-79641425D01*
G37*
D14*
X70445600Y-80314800D03*
G04 #@! TD*
D13*
G04 #@! TO.C,C2*
G36*
X70840781Y-78117425D02*
X70873543Y-78122285D01*
X70905671Y-78130333D01*
X70936856Y-78141491D01*
X70966796Y-78155652D01*
X70995205Y-78172679D01*
X71021808Y-78192409D01*
X71046349Y-78214651D01*
X71068591Y-78239192D01*
X71088321Y-78265795D01*
X71105348Y-78294204D01*
X71119509Y-78324144D01*
X71130667Y-78355329D01*
X71138715Y-78387457D01*
X71143575Y-78420219D01*
X71145200Y-78453300D01*
X71145200Y-79128300D01*
X71143575Y-79161381D01*
X71138715Y-79194143D01*
X71130667Y-79226271D01*
X71119509Y-79257456D01*
X71105348Y-79287396D01*
X71088321Y-79315805D01*
X71068591Y-79342408D01*
X71046349Y-79366949D01*
X71021808Y-79389191D01*
X70995205Y-79408921D01*
X70966796Y-79425948D01*
X70936856Y-79440109D01*
X70905671Y-79451267D01*
X70873543Y-79459315D01*
X70840781Y-79464175D01*
X70807700Y-79465800D01*
X70032700Y-79465800D01*
X69999619Y-79464175D01*
X69966857Y-79459315D01*
X69934729Y-79451267D01*
X69903544Y-79440109D01*
X69873604Y-79425948D01*
X69845195Y-79408921D01*
X69818592Y-79389191D01*
X69794051Y-79366949D01*
X69771809Y-79342408D01*
X69752079Y-79315805D01*
X69735052Y-79287396D01*
X69720891Y-79257456D01*
X69709733Y-79226271D01*
X69701685Y-79194143D01*
X69696825Y-79161381D01*
X69695200Y-79128300D01*
X69695200Y-78453300D01*
X69696825Y-78420219D01*
X69701685Y-78387457D01*
X69709733Y-78355329D01*
X69720891Y-78324144D01*
X69735052Y-78294204D01*
X69752079Y-78265795D01*
X69771809Y-78239192D01*
X69794051Y-78214651D01*
X69818592Y-78192409D01*
X69845195Y-78172679D01*
X69873604Y-78155652D01*
X69903544Y-78141491D01*
X69934729Y-78130333D01*
X69966857Y-78122285D01*
X69999619Y-78117425D01*
X70032700Y-78115800D01*
X70807700Y-78115800D01*
X70840781Y-78117425D01*
X70840781Y-78117425D01*
G37*
D14*
X70420200Y-78790800D03*
D13*
G36*
X69090781Y-78117425D02*
X69123543Y-78122285D01*
X69155671Y-78130333D01*
X69186856Y-78141491D01*
X69216796Y-78155652D01*
X69245205Y-78172679D01*
X69271808Y-78192409D01*
X69296349Y-78214651D01*
X69318591Y-78239192D01*
X69338321Y-78265795D01*
X69355348Y-78294204D01*
X69369509Y-78324144D01*
X69380667Y-78355329D01*
X69388715Y-78387457D01*
X69393575Y-78420219D01*
X69395200Y-78453300D01*
X69395200Y-79128300D01*
X69393575Y-79161381D01*
X69388715Y-79194143D01*
X69380667Y-79226271D01*
X69369509Y-79257456D01*
X69355348Y-79287396D01*
X69338321Y-79315805D01*
X69318591Y-79342408D01*
X69296349Y-79366949D01*
X69271808Y-79389191D01*
X69245205Y-79408921D01*
X69216796Y-79425948D01*
X69186856Y-79440109D01*
X69155671Y-79451267D01*
X69123543Y-79459315D01*
X69090781Y-79464175D01*
X69057700Y-79465800D01*
X68282700Y-79465800D01*
X68249619Y-79464175D01*
X68216857Y-79459315D01*
X68184729Y-79451267D01*
X68153544Y-79440109D01*
X68123604Y-79425948D01*
X68095195Y-79408921D01*
X68068592Y-79389191D01*
X68044051Y-79366949D01*
X68021809Y-79342408D01*
X68002079Y-79315805D01*
X67985052Y-79287396D01*
X67970891Y-79257456D01*
X67959733Y-79226271D01*
X67951685Y-79194143D01*
X67946825Y-79161381D01*
X67945200Y-79128300D01*
X67945200Y-78453300D01*
X67946825Y-78420219D01*
X67951685Y-78387457D01*
X67959733Y-78355329D01*
X67970891Y-78324144D01*
X67985052Y-78294204D01*
X68002079Y-78265795D01*
X68021809Y-78239192D01*
X68044051Y-78214651D01*
X68068592Y-78192409D01*
X68095195Y-78172679D01*
X68123604Y-78155652D01*
X68153544Y-78141491D01*
X68184729Y-78130333D01*
X68216857Y-78122285D01*
X68249619Y-78117425D01*
X68282700Y-78115800D01*
X69057700Y-78115800D01*
X69090781Y-78117425D01*
X69090781Y-78117425D01*
G37*
D14*
X68670200Y-78790800D03*
G04 #@! TD*
D13*
G04 #@! TO.C,C3*
G36*
X76202781Y-81698825D02*
X76235543Y-81703685D01*
X76267671Y-81711733D01*
X76298856Y-81722891D01*
X76328796Y-81737052D01*
X76357205Y-81754079D01*
X76383808Y-81773809D01*
X76408349Y-81796051D01*
X76430591Y-81820592D01*
X76450321Y-81847195D01*
X76467348Y-81875604D01*
X76481509Y-81905544D01*
X76492667Y-81936729D01*
X76500715Y-81968857D01*
X76505575Y-82001619D01*
X76507200Y-82034700D01*
X76507200Y-82709700D01*
X76505575Y-82742781D01*
X76500715Y-82775543D01*
X76492667Y-82807671D01*
X76481509Y-82838856D01*
X76467348Y-82868796D01*
X76450321Y-82897205D01*
X76430591Y-82923808D01*
X76408349Y-82948349D01*
X76383808Y-82970591D01*
X76357205Y-82990321D01*
X76328796Y-83007348D01*
X76298856Y-83021509D01*
X76267671Y-83032667D01*
X76235543Y-83040715D01*
X76202781Y-83045575D01*
X76169700Y-83047200D01*
X75394700Y-83047200D01*
X75361619Y-83045575D01*
X75328857Y-83040715D01*
X75296729Y-83032667D01*
X75265544Y-83021509D01*
X75235604Y-83007348D01*
X75207195Y-82990321D01*
X75180592Y-82970591D01*
X75156051Y-82948349D01*
X75133809Y-82923808D01*
X75114079Y-82897205D01*
X75097052Y-82868796D01*
X75082891Y-82838856D01*
X75071733Y-82807671D01*
X75063685Y-82775543D01*
X75058825Y-82742781D01*
X75057200Y-82709700D01*
X75057200Y-82034700D01*
X75058825Y-82001619D01*
X75063685Y-81968857D01*
X75071733Y-81936729D01*
X75082891Y-81905544D01*
X75097052Y-81875604D01*
X75114079Y-81847195D01*
X75133809Y-81820592D01*
X75156051Y-81796051D01*
X75180592Y-81773809D01*
X75207195Y-81754079D01*
X75235604Y-81737052D01*
X75265544Y-81722891D01*
X75296729Y-81711733D01*
X75328857Y-81703685D01*
X75361619Y-81698825D01*
X75394700Y-81697200D01*
X76169700Y-81697200D01*
X76202781Y-81698825D01*
X76202781Y-81698825D01*
G37*
D14*
X75782200Y-82372200D03*
D13*
G36*
X77952781Y-81698825D02*
X77985543Y-81703685D01*
X78017671Y-81711733D01*
X78048856Y-81722891D01*
X78078796Y-81737052D01*
X78107205Y-81754079D01*
X78133808Y-81773809D01*
X78158349Y-81796051D01*
X78180591Y-81820592D01*
X78200321Y-81847195D01*
X78217348Y-81875604D01*
X78231509Y-81905544D01*
X78242667Y-81936729D01*
X78250715Y-81968857D01*
X78255575Y-82001619D01*
X78257200Y-82034700D01*
X78257200Y-82709700D01*
X78255575Y-82742781D01*
X78250715Y-82775543D01*
X78242667Y-82807671D01*
X78231509Y-82838856D01*
X78217348Y-82868796D01*
X78200321Y-82897205D01*
X78180591Y-82923808D01*
X78158349Y-82948349D01*
X78133808Y-82970591D01*
X78107205Y-82990321D01*
X78078796Y-83007348D01*
X78048856Y-83021509D01*
X78017671Y-83032667D01*
X77985543Y-83040715D01*
X77952781Y-83045575D01*
X77919700Y-83047200D01*
X77144700Y-83047200D01*
X77111619Y-83045575D01*
X77078857Y-83040715D01*
X77046729Y-83032667D01*
X77015544Y-83021509D01*
X76985604Y-83007348D01*
X76957195Y-82990321D01*
X76930592Y-82970591D01*
X76906051Y-82948349D01*
X76883809Y-82923808D01*
X76864079Y-82897205D01*
X76847052Y-82868796D01*
X76832891Y-82838856D01*
X76821733Y-82807671D01*
X76813685Y-82775543D01*
X76808825Y-82742781D01*
X76807200Y-82709700D01*
X76807200Y-82034700D01*
X76808825Y-82001619D01*
X76813685Y-81968857D01*
X76821733Y-81936729D01*
X76832891Y-81905544D01*
X76847052Y-81875604D01*
X76864079Y-81847195D01*
X76883809Y-81820592D01*
X76906051Y-81796051D01*
X76930592Y-81773809D01*
X76957195Y-81754079D01*
X76985604Y-81737052D01*
X77015544Y-81722891D01*
X77046729Y-81711733D01*
X77078857Y-81703685D01*
X77111619Y-81698825D01*
X77144700Y-81697200D01*
X77919700Y-81697200D01*
X77952781Y-81698825D01*
X77952781Y-81698825D01*
G37*
D14*
X77532200Y-82372200D03*
G04 #@! TD*
D15*
G04 #@! TO.C,D1*
X69570600Y-85748600D03*
X69570600Y-82348600D03*
G04 #@! TD*
D13*
G04 #@! TO.C,D2*
G36*
X87374807Y-83188442D02*
X87405887Y-83193052D01*
X87436366Y-83200687D01*
X87465950Y-83211272D01*
X87494354Y-83224706D01*
X87521304Y-83240859D01*
X87546542Y-83259577D01*
X87569823Y-83280677D01*
X87590923Y-83303958D01*
X87609641Y-83329196D01*
X87625794Y-83356146D01*
X87639228Y-83384550D01*
X87649813Y-83414134D01*
X87657448Y-83444613D01*
X87662058Y-83475693D01*
X87663600Y-83507076D01*
X87663600Y-84691724D01*
X87662058Y-84723107D01*
X87657448Y-84754187D01*
X87649813Y-84784666D01*
X87639228Y-84814250D01*
X87625794Y-84842654D01*
X87609641Y-84869604D01*
X87590923Y-84894842D01*
X87569823Y-84918123D01*
X87546542Y-84939223D01*
X87521304Y-84957941D01*
X87494354Y-84974094D01*
X87465950Y-84987528D01*
X87436366Y-84998113D01*
X87405887Y-85005748D01*
X87374807Y-85010358D01*
X87343424Y-85011900D01*
X85833776Y-85011900D01*
X85802393Y-85010358D01*
X85771313Y-85005748D01*
X85740834Y-84998113D01*
X85711250Y-84987528D01*
X85682846Y-84974094D01*
X85655896Y-84957941D01*
X85630658Y-84939223D01*
X85607377Y-84918123D01*
X85586277Y-84894842D01*
X85567559Y-84869604D01*
X85551406Y-84842654D01*
X85537972Y-84814250D01*
X85527387Y-84784666D01*
X85519752Y-84754187D01*
X85515142Y-84723107D01*
X85513600Y-84691724D01*
X85513600Y-83507076D01*
X85515142Y-83475693D01*
X85519752Y-83444613D01*
X85527387Y-83414134D01*
X85537972Y-83384550D01*
X85551406Y-83356146D01*
X85567559Y-83329196D01*
X85586277Y-83303958D01*
X85607377Y-83280677D01*
X85630658Y-83259577D01*
X85655896Y-83240859D01*
X85682846Y-83224706D01*
X85711250Y-83211272D01*
X85740834Y-83200687D01*
X85771313Y-83193052D01*
X85802393Y-83188442D01*
X85833776Y-83186900D01*
X87343424Y-83186900D01*
X87374807Y-83188442D01*
X87374807Y-83188442D01*
G37*
D16*
X86588600Y-84099400D03*
D13*
G36*
X87374807Y-80213442D02*
X87405887Y-80218052D01*
X87436366Y-80225687D01*
X87465950Y-80236272D01*
X87494354Y-80249706D01*
X87521304Y-80265859D01*
X87546542Y-80284577D01*
X87569823Y-80305677D01*
X87590923Y-80328958D01*
X87609641Y-80354196D01*
X87625794Y-80381146D01*
X87639228Y-80409550D01*
X87649813Y-80439134D01*
X87657448Y-80469613D01*
X87662058Y-80500693D01*
X87663600Y-80532076D01*
X87663600Y-81716724D01*
X87662058Y-81748107D01*
X87657448Y-81779187D01*
X87649813Y-81809666D01*
X87639228Y-81839250D01*
X87625794Y-81867654D01*
X87609641Y-81894604D01*
X87590923Y-81919842D01*
X87569823Y-81943123D01*
X87546542Y-81964223D01*
X87521304Y-81982941D01*
X87494354Y-81999094D01*
X87465950Y-82012528D01*
X87436366Y-82023113D01*
X87405887Y-82030748D01*
X87374807Y-82035358D01*
X87343424Y-82036900D01*
X85833776Y-82036900D01*
X85802393Y-82035358D01*
X85771313Y-82030748D01*
X85740834Y-82023113D01*
X85711250Y-82012528D01*
X85682846Y-81999094D01*
X85655896Y-81982941D01*
X85630658Y-81964223D01*
X85607377Y-81943123D01*
X85586277Y-81919842D01*
X85567559Y-81894604D01*
X85551406Y-81867654D01*
X85537972Y-81839250D01*
X85527387Y-81809666D01*
X85519752Y-81779187D01*
X85515142Y-81748107D01*
X85513600Y-81716724D01*
X85513600Y-80532076D01*
X85515142Y-80500693D01*
X85519752Y-80469613D01*
X85527387Y-80439134D01*
X85537972Y-80409550D01*
X85551406Y-80381146D01*
X85567559Y-80354196D01*
X85586277Y-80328958D01*
X85607377Y-80305677D01*
X85630658Y-80284577D01*
X85655896Y-80265859D01*
X85682846Y-80249706D01*
X85711250Y-80236272D01*
X85740834Y-80225687D01*
X85771313Y-80218052D01*
X85802393Y-80213442D01*
X85833776Y-80211900D01*
X87343424Y-80211900D01*
X87374807Y-80213442D01*
X87374807Y-80213442D01*
G37*
D16*
X86588600Y-81124400D03*
G04 #@! TD*
D13*
G04 #@! TO.C,D3*
G36*
X81050207Y-80267442D02*
X81081287Y-80272052D01*
X81111766Y-80279687D01*
X81141350Y-80290272D01*
X81169754Y-80303706D01*
X81196704Y-80319859D01*
X81221942Y-80338577D01*
X81245223Y-80359677D01*
X81266323Y-80382958D01*
X81285041Y-80408196D01*
X81301194Y-80435146D01*
X81314628Y-80463550D01*
X81325213Y-80493134D01*
X81332848Y-80523613D01*
X81337458Y-80554693D01*
X81339000Y-80586076D01*
X81339000Y-81770724D01*
X81337458Y-81802107D01*
X81332848Y-81833187D01*
X81325213Y-81863666D01*
X81314628Y-81893250D01*
X81301194Y-81921654D01*
X81285041Y-81948604D01*
X81266323Y-81973842D01*
X81245223Y-81997123D01*
X81221942Y-82018223D01*
X81196704Y-82036941D01*
X81169754Y-82053094D01*
X81141350Y-82066528D01*
X81111766Y-82077113D01*
X81081287Y-82084748D01*
X81050207Y-82089358D01*
X81018824Y-82090900D01*
X79509176Y-82090900D01*
X79477793Y-82089358D01*
X79446713Y-82084748D01*
X79416234Y-82077113D01*
X79386650Y-82066528D01*
X79358246Y-82053094D01*
X79331296Y-82036941D01*
X79306058Y-82018223D01*
X79282777Y-81997123D01*
X79261677Y-81973842D01*
X79242959Y-81948604D01*
X79226806Y-81921654D01*
X79213372Y-81893250D01*
X79202787Y-81863666D01*
X79195152Y-81833187D01*
X79190542Y-81802107D01*
X79189000Y-81770724D01*
X79189000Y-80586076D01*
X79190542Y-80554693D01*
X79195152Y-80523613D01*
X79202787Y-80493134D01*
X79213372Y-80463550D01*
X79226806Y-80435146D01*
X79242959Y-80408196D01*
X79261677Y-80382958D01*
X79282777Y-80359677D01*
X79306058Y-80338577D01*
X79331296Y-80319859D01*
X79358246Y-80303706D01*
X79386650Y-80290272D01*
X79416234Y-80279687D01*
X79446713Y-80272052D01*
X79477793Y-80267442D01*
X79509176Y-80265900D01*
X81018824Y-80265900D01*
X81050207Y-80267442D01*
X81050207Y-80267442D01*
G37*
D16*
X80264000Y-81178400D03*
D13*
G36*
X81050207Y-83242442D02*
X81081287Y-83247052D01*
X81111766Y-83254687D01*
X81141350Y-83265272D01*
X81169754Y-83278706D01*
X81196704Y-83294859D01*
X81221942Y-83313577D01*
X81245223Y-83334677D01*
X81266323Y-83357958D01*
X81285041Y-83383196D01*
X81301194Y-83410146D01*
X81314628Y-83438550D01*
X81325213Y-83468134D01*
X81332848Y-83498613D01*
X81337458Y-83529693D01*
X81339000Y-83561076D01*
X81339000Y-84745724D01*
X81337458Y-84777107D01*
X81332848Y-84808187D01*
X81325213Y-84838666D01*
X81314628Y-84868250D01*
X81301194Y-84896654D01*
X81285041Y-84923604D01*
X81266323Y-84948842D01*
X81245223Y-84972123D01*
X81221942Y-84993223D01*
X81196704Y-85011941D01*
X81169754Y-85028094D01*
X81141350Y-85041528D01*
X81111766Y-85052113D01*
X81081287Y-85059748D01*
X81050207Y-85064358D01*
X81018824Y-85065900D01*
X79509176Y-85065900D01*
X79477793Y-85064358D01*
X79446713Y-85059748D01*
X79416234Y-85052113D01*
X79386650Y-85041528D01*
X79358246Y-85028094D01*
X79331296Y-85011941D01*
X79306058Y-84993223D01*
X79282777Y-84972123D01*
X79261677Y-84948842D01*
X79242959Y-84923604D01*
X79226806Y-84896654D01*
X79213372Y-84868250D01*
X79202787Y-84838666D01*
X79195152Y-84808187D01*
X79190542Y-84777107D01*
X79189000Y-84745724D01*
X79189000Y-83561076D01*
X79190542Y-83529693D01*
X79195152Y-83498613D01*
X79202787Y-83468134D01*
X79213372Y-83438550D01*
X79226806Y-83410146D01*
X79242959Y-83383196D01*
X79261677Y-83357958D01*
X79282777Y-83334677D01*
X79306058Y-83313577D01*
X79331296Y-83294859D01*
X79358246Y-83278706D01*
X79386650Y-83265272D01*
X79416234Y-83254687D01*
X79446713Y-83247052D01*
X79477793Y-83242442D01*
X79509176Y-83240900D01*
X81018824Y-83240900D01*
X81050207Y-83242442D01*
X81050207Y-83242442D01*
G37*
D16*
X80264000Y-84153400D03*
G04 #@! TD*
D17*
G04 #@! TO.C,J1*
X65913000Y-88239600D03*
X65913000Y-85699600D03*
X65913000Y-83159600D03*
D18*
X65913000Y-80619600D03*
G04 #@! TD*
D17*
G04 #@! TO.C,J2*
X90093800Y-82854800D03*
X90093800Y-80314800D03*
X92633800Y-82854800D03*
X92633800Y-80314800D03*
X95173800Y-82854800D03*
X95173800Y-80314800D03*
X97713800Y-82854800D03*
D18*
X97713800Y-80314800D03*
G04 #@! TD*
G04 #@! TO.C,J4*
X69723000Y-88849200D03*
D17*
X72263000Y-88849200D03*
X74803000Y-88849200D03*
X77343000Y-88849200D03*
G04 #@! TD*
D19*
G04 #@! TO.C,Q1*
X74152000Y-84084200D03*
X74152000Y-82184200D03*
X72152000Y-83134200D03*
G04 #@! TD*
D13*
G04 #@! TO.C,R1*
G36*
X76202781Y-83476825D02*
X76235543Y-83481685D01*
X76267671Y-83489733D01*
X76298856Y-83500891D01*
X76328796Y-83515052D01*
X76357205Y-83532079D01*
X76383808Y-83551809D01*
X76408349Y-83574051D01*
X76430591Y-83598592D01*
X76450321Y-83625195D01*
X76467348Y-83653604D01*
X76481509Y-83683544D01*
X76492667Y-83714729D01*
X76500715Y-83746857D01*
X76505575Y-83779619D01*
X76507200Y-83812700D01*
X76507200Y-84487700D01*
X76505575Y-84520781D01*
X76500715Y-84553543D01*
X76492667Y-84585671D01*
X76481509Y-84616856D01*
X76467348Y-84646796D01*
X76450321Y-84675205D01*
X76430591Y-84701808D01*
X76408349Y-84726349D01*
X76383808Y-84748591D01*
X76357205Y-84768321D01*
X76328796Y-84785348D01*
X76298856Y-84799509D01*
X76267671Y-84810667D01*
X76235543Y-84818715D01*
X76202781Y-84823575D01*
X76169700Y-84825200D01*
X75394700Y-84825200D01*
X75361619Y-84823575D01*
X75328857Y-84818715D01*
X75296729Y-84810667D01*
X75265544Y-84799509D01*
X75235604Y-84785348D01*
X75207195Y-84768321D01*
X75180592Y-84748591D01*
X75156051Y-84726349D01*
X75133809Y-84701808D01*
X75114079Y-84675205D01*
X75097052Y-84646796D01*
X75082891Y-84616856D01*
X75071733Y-84585671D01*
X75063685Y-84553543D01*
X75058825Y-84520781D01*
X75057200Y-84487700D01*
X75057200Y-83812700D01*
X75058825Y-83779619D01*
X75063685Y-83746857D01*
X75071733Y-83714729D01*
X75082891Y-83683544D01*
X75097052Y-83653604D01*
X75114079Y-83625195D01*
X75133809Y-83598592D01*
X75156051Y-83574051D01*
X75180592Y-83551809D01*
X75207195Y-83532079D01*
X75235604Y-83515052D01*
X75265544Y-83500891D01*
X75296729Y-83489733D01*
X75328857Y-83481685D01*
X75361619Y-83476825D01*
X75394700Y-83475200D01*
X76169700Y-83475200D01*
X76202781Y-83476825D01*
X76202781Y-83476825D01*
G37*
D14*
X75782200Y-84150200D03*
D13*
G36*
X77952781Y-83476825D02*
X77985543Y-83481685D01*
X78017671Y-83489733D01*
X78048856Y-83500891D01*
X78078796Y-83515052D01*
X78107205Y-83532079D01*
X78133808Y-83551809D01*
X78158349Y-83574051D01*
X78180591Y-83598592D01*
X78200321Y-83625195D01*
X78217348Y-83653604D01*
X78231509Y-83683544D01*
X78242667Y-83714729D01*
X78250715Y-83746857D01*
X78255575Y-83779619D01*
X78257200Y-83812700D01*
X78257200Y-84487700D01*
X78255575Y-84520781D01*
X78250715Y-84553543D01*
X78242667Y-84585671D01*
X78231509Y-84616856D01*
X78217348Y-84646796D01*
X78200321Y-84675205D01*
X78180591Y-84701808D01*
X78158349Y-84726349D01*
X78133808Y-84748591D01*
X78107205Y-84768321D01*
X78078796Y-84785348D01*
X78048856Y-84799509D01*
X78017671Y-84810667D01*
X77985543Y-84818715D01*
X77952781Y-84823575D01*
X77919700Y-84825200D01*
X77144700Y-84825200D01*
X77111619Y-84823575D01*
X77078857Y-84818715D01*
X77046729Y-84810667D01*
X77015544Y-84799509D01*
X76985604Y-84785348D01*
X76957195Y-84768321D01*
X76930592Y-84748591D01*
X76906051Y-84726349D01*
X76883809Y-84701808D01*
X76864079Y-84675205D01*
X76847052Y-84646796D01*
X76832891Y-84616856D01*
X76821733Y-84585671D01*
X76813685Y-84553543D01*
X76808825Y-84520781D01*
X76807200Y-84487700D01*
X76807200Y-83812700D01*
X76808825Y-83779619D01*
X76813685Y-83746857D01*
X76821733Y-83714729D01*
X76832891Y-83683544D01*
X76847052Y-83653604D01*
X76864079Y-83625195D01*
X76883809Y-83598592D01*
X76906051Y-83574051D01*
X76930592Y-83551809D01*
X76957195Y-83532079D01*
X76985604Y-83515052D01*
X77015544Y-83500891D01*
X77046729Y-83489733D01*
X77078857Y-83481685D01*
X77111619Y-83476825D01*
X77144700Y-83475200D01*
X77919700Y-83475200D01*
X77952781Y-83476825D01*
X77952781Y-83476825D01*
G37*
D14*
X77532200Y-84150200D03*
G04 #@! TD*
D13*
G04 #@! TO.C,R2*
G36*
X85473781Y-78422225D02*
X85506543Y-78427085D01*
X85538671Y-78435133D01*
X85569856Y-78446291D01*
X85599796Y-78460452D01*
X85628205Y-78477479D01*
X85654808Y-78497209D01*
X85679349Y-78519451D01*
X85701591Y-78543992D01*
X85721321Y-78570595D01*
X85738348Y-78599004D01*
X85752509Y-78628944D01*
X85763667Y-78660129D01*
X85771715Y-78692257D01*
X85776575Y-78725019D01*
X85778200Y-78758100D01*
X85778200Y-79433100D01*
X85776575Y-79466181D01*
X85771715Y-79498943D01*
X85763667Y-79531071D01*
X85752509Y-79562256D01*
X85738348Y-79592196D01*
X85721321Y-79620605D01*
X85701591Y-79647208D01*
X85679349Y-79671749D01*
X85654808Y-79693991D01*
X85628205Y-79713721D01*
X85599796Y-79730748D01*
X85569856Y-79744909D01*
X85538671Y-79756067D01*
X85506543Y-79764115D01*
X85473781Y-79768975D01*
X85440700Y-79770600D01*
X84665700Y-79770600D01*
X84632619Y-79768975D01*
X84599857Y-79764115D01*
X84567729Y-79756067D01*
X84536544Y-79744909D01*
X84506604Y-79730748D01*
X84478195Y-79713721D01*
X84451592Y-79693991D01*
X84427051Y-79671749D01*
X84404809Y-79647208D01*
X84385079Y-79620605D01*
X84368052Y-79592196D01*
X84353891Y-79562256D01*
X84342733Y-79531071D01*
X84334685Y-79498943D01*
X84329825Y-79466181D01*
X84328200Y-79433100D01*
X84328200Y-78758100D01*
X84329825Y-78725019D01*
X84334685Y-78692257D01*
X84342733Y-78660129D01*
X84353891Y-78628944D01*
X84368052Y-78599004D01*
X84385079Y-78570595D01*
X84404809Y-78543992D01*
X84427051Y-78519451D01*
X84451592Y-78497209D01*
X84478195Y-78477479D01*
X84506604Y-78460452D01*
X84536544Y-78446291D01*
X84567729Y-78435133D01*
X84599857Y-78427085D01*
X84632619Y-78422225D01*
X84665700Y-78420600D01*
X85440700Y-78420600D01*
X85473781Y-78422225D01*
X85473781Y-78422225D01*
G37*
D14*
X85053200Y-79095600D03*
D13*
G36*
X87223781Y-78422225D02*
X87256543Y-78427085D01*
X87288671Y-78435133D01*
X87319856Y-78446291D01*
X87349796Y-78460452D01*
X87378205Y-78477479D01*
X87404808Y-78497209D01*
X87429349Y-78519451D01*
X87451591Y-78543992D01*
X87471321Y-78570595D01*
X87488348Y-78599004D01*
X87502509Y-78628944D01*
X87513667Y-78660129D01*
X87521715Y-78692257D01*
X87526575Y-78725019D01*
X87528200Y-78758100D01*
X87528200Y-79433100D01*
X87526575Y-79466181D01*
X87521715Y-79498943D01*
X87513667Y-79531071D01*
X87502509Y-79562256D01*
X87488348Y-79592196D01*
X87471321Y-79620605D01*
X87451591Y-79647208D01*
X87429349Y-79671749D01*
X87404808Y-79693991D01*
X87378205Y-79713721D01*
X87349796Y-79730748D01*
X87319856Y-79744909D01*
X87288671Y-79756067D01*
X87256543Y-79764115D01*
X87223781Y-79768975D01*
X87190700Y-79770600D01*
X86415700Y-79770600D01*
X86382619Y-79768975D01*
X86349857Y-79764115D01*
X86317729Y-79756067D01*
X86286544Y-79744909D01*
X86256604Y-79730748D01*
X86228195Y-79713721D01*
X86201592Y-79693991D01*
X86177051Y-79671749D01*
X86154809Y-79647208D01*
X86135079Y-79620605D01*
X86118052Y-79592196D01*
X86103891Y-79562256D01*
X86092733Y-79531071D01*
X86084685Y-79498943D01*
X86079825Y-79466181D01*
X86078200Y-79433100D01*
X86078200Y-78758100D01*
X86079825Y-78725019D01*
X86084685Y-78692257D01*
X86092733Y-78660129D01*
X86103891Y-78628944D01*
X86118052Y-78599004D01*
X86135079Y-78570595D01*
X86154809Y-78543992D01*
X86177051Y-78519451D01*
X86201592Y-78497209D01*
X86228195Y-78477479D01*
X86256604Y-78460452D01*
X86286544Y-78446291D01*
X86317729Y-78435133D01*
X86349857Y-78427085D01*
X86382619Y-78422225D01*
X86415700Y-78420600D01*
X87190700Y-78420600D01*
X87223781Y-78422225D01*
X87223781Y-78422225D01*
G37*
D14*
X86803200Y-79095600D03*
G04 #@! TD*
D13*
G04 #@! TO.C,R3*
G36*
X76113381Y-78259225D02*
X76146143Y-78264085D01*
X76178271Y-78272133D01*
X76209456Y-78283291D01*
X76239396Y-78297452D01*
X76267805Y-78314479D01*
X76294408Y-78334209D01*
X76318949Y-78356451D01*
X76341191Y-78380992D01*
X76360921Y-78407595D01*
X76377948Y-78436004D01*
X76392109Y-78465944D01*
X76403267Y-78497129D01*
X76411315Y-78529257D01*
X76416175Y-78562019D01*
X76417800Y-78595100D01*
X76417800Y-79370100D01*
X76416175Y-79403181D01*
X76411315Y-79435943D01*
X76403267Y-79468071D01*
X76392109Y-79499256D01*
X76377948Y-79529196D01*
X76360921Y-79557605D01*
X76341191Y-79584208D01*
X76318949Y-79608749D01*
X76294408Y-79630991D01*
X76267805Y-79650721D01*
X76239396Y-79667748D01*
X76209456Y-79681909D01*
X76178271Y-79693067D01*
X76146143Y-79701115D01*
X76113381Y-79705975D01*
X76080300Y-79707600D01*
X75405300Y-79707600D01*
X75372219Y-79705975D01*
X75339457Y-79701115D01*
X75307329Y-79693067D01*
X75276144Y-79681909D01*
X75246204Y-79667748D01*
X75217795Y-79650721D01*
X75191192Y-79630991D01*
X75166651Y-79608749D01*
X75144409Y-79584208D01*
X75124679Y-79557605D01*
X75107652Y-79529196D01*
X75093491Y-79499256D01*
X75082333Y-79468071D01*
X75074285Y-79435943D01*
X75069425Y-79403181D01*
X75067800Y-79370100D01*
X75067800Y-78595100D01*
X75069425Y-78562019D01*
X75074285Y-78529257D01*
X75082333Y-78497129D01*
X75093491Y-78465944D01*
X75107652Y-78436004D01*
X75124679Y-78407595D01*
X75144409Y-78380992D01*
X75166651Y-78356451D01*
X75191192Y-78334209D01*
X75217795Y-78314479D01*
X75246204Y-78297452D01*
X75276144Y-78283291D01*
X75307329Y-78272133D01*
X75339457Y-78264085D01*
X75372219Y-78259225D01*
X75405300Y-78257600D01*
X76080300Y-78257600D01*
X76113381Y-78259225D01*
X76113381Y-78259225D01*
G37*
D14*
X75742800Y-78982600D03*
D13*
G36*
X76113381Y-80009225D02*
X76146143Y-80014085D01*
X76178271Y-80022133D01*
X76209456Y-80033291D01*
X76239396Y-80047452D01*
X76267805Y-80064479D01*
X76294408Y-80084209D01*
X76318949Y-80106451D01*
X76341191Y-80130992D01*
X76360921Y-80157595D01*
X76377948Y-80186004D01*
X76392109Y-80215944D01*
X76403267Y-80247129D01*
X76411315Y-80279257D01*
X76416175Y-80312019D01*
X76417800Y-80345100D01*
X76417800Y-81120100D01*
X76416175Y-81153181D01*
X76411315Y-81185943D01*
X76403267Y-81218071D01*
X76392109Y-81249256D01*
X76377948Y-81279196D01*
X76360921Y-81307605D01*
X76341191Y-81334208D01*
X76318949Y-81358749D01*
X76294408Y-81380991D01*
X76267805Y-81400721D01*
X76239396Y-81417748D01*
X76209456Y-81431909D01*
X76178271Y-81443067D01*
X76146143Y-81451115D01*
X76113381Y-81455975D01*
X76080300Y-81457600D01*
X75405300Y-81457600D01*
X75372219Y-81455975D01*
X75339457Y-81451115D01*
X75307329Y-81443067D01*
X75276144Y-81431909D01*
X75246204Y-81417748D01*
X75217795Y-81400721D01*
X75191192Y-81380991D01*
X75166651Y-81358749D01*
X75144409Y-81334208D01*
X75124679Y-81307605D01*
X75107652Y-81279196D01*
X75093491Y-81249256D01*
X75082333Y-81218071D01*
X75074285Y-81185943D01*
X75069425Y-81153181D01*
X75067800Y-81120100D01*
X75067800Y-80345100D01*
X75069425Y-80312019D01*
X75074285Y-80279257D01*
X75082333Y-80247129D01*
X75093491Y-80215944D01*
X75107652Y-80186004D01*
X75124679Y-80157595D01*
X75144409Y-80130992D01*
X75166651Y-80106451D01*
X75191192Y-80084209D01*
X75217795Y-80064479D01*
X75246204Y-80047452D01*
X75276144Y-80033291D01*
X75307329Y-80022133D01*
X75339457Y-80014085D01*
X75372219Y-80009225D01*
X75405300Y-80007600D01*
X76080300Y-80007600D01*
X76113381Y-80009225D01*
X76113381Y-80009225D01*
G37*
D14*
X75742800Y-80732600D03*
G04 #@! TD*
D13*
G04 #@! TO.C,R4*
G36*
X79518781Y-78447625D02*
X79551543Y-78452485D01*
X79583671Y-78460533D01*
X79614856Y-78471691D01*
X79644796Y-78485852D01*
X79673205Y-78502879D01*
X79699808Y-78522609D01*
X79724349Y-78544851D01*
X79746591Y-78569392D01*
X79766321Y-78595995D01*
X79783348Y-78624404D01*
X79797509Y-78654344D01*
X79808667Y-78685529D01*
X79816715Y-78717657D01*
X79821575Y-78750419D01*
X79823200Y-78783500D01*
X79823200Y-79458500D01*
X79821575Y-79491581D01*
X79816715Y-79524343D01*
X79808667Y-79556471D01*
X79797509Y-79587656D01*
X79783348Y-79617596D01*
X79766321Y-79646005D01*
X79746591Y-79672608D01*
X79724349Y-79697149D01*
X79699808Y-79719391D01*
X79673205Y-79739121D01*
X79644796Y-79756148D01*
X79614856Y-79770309D01*
X79583671Y-79781467D01*
X79551543Y-79789515D01*
X79518781Y-79794375D01*
X79485700Y-79796000D01*
X78710700Y-79796000D01*
X78677619Y-79794375D01*
X78644857Y-79789515D01*
X78612729Y-79781467D01*
X78581544Y-79770309D01*
X78551604Y-79756148D01*
X78523195Y-79739121D01*
X78496592Y-79719391D01*
X78472051Y-79697149D01*
X78449809Y-79672608D01*
X78430079Y-79646005D01*
X78413052Y-79617596D01*
X78398891Y-79587656D01*
X78387733Y-79556471D01*
X78379685Y-79524343D01*
X78374825Y-79491581D01*
X78373200Y-79458500D01*
X78373200Y-78783500D01*
X78374825Y-78750419D01*
X78379685Y-78717657D01*
X78387733Y-78685529D01*
X78398891Y-78654344D01*
X78413052Y-78624404D01*
X78430079Y-78595995D01*
X78449809Y-78569392D01*
X78472051Y-78544851D01*
X78496592Y-78522609D01*
X78523195Y-78502879D01*
X78551604Y-78485852D01*
X78581544Y-78471691D01*
X78612729Y-78460533D01*
X78644857Y-78452485D01*
X78677619Y-78447625D01*
X78710700Y-78446000D01*
X79485700Y-78446000D01*
X79518781Y-78447625D01*
X79518781Y-78447625D01*
G37*
D14*
X79098200Y-79121000D03*
D13*
G36*
X81268781Y-78447625D02*
X81301543Y-78452485D01*
X81333671Y-78460533D01*
X81364856Y-78471691D01*
X81394796Y-78485852D01*
X81423205Y-78502879D01*
X81449808Y-78522609D01*
X81474349Y-78544851D01*
X81496591Y-78569392D01*
X81516321Y-78595995D01*
X81533348Y-78624404D01*
X81547509Y-78654344D01*
X81558667Y-78685529D01*
X81566715Y-78717657D01*
X81571575Y-78750419D01*
X81573200Y-78783500D01*
X81573200Y-79458500D01*
X81571575Y-79491581D01*
X81566715Y-79524343D01*
X81558667Y-79556471D01*
X81547509Y-79587656D01*
X81533348Y-79617596D01*
X81516321Y-79646005D01*
X81496591Y-79672608D01*
X81474349Y-79697149D01*
X81449808Y-79719391D01*
X81423205Y-79739121D01*
X81394796Y-79756148D01*
X81364856Y-79770309D01*
X81333671Y-79781467D01*
X81301543Y-79789515D01*
X81268781Y-79794375D01*
X81235700Y-79796000D01*
X80460700Y-79796000D01*
X80427619Y-79794375D01*
X80394857Y-79789515D01*
X80362729Y-79781467D01*
X80331544Y-79770309D01*
X80301604Y-79756148D01*
X80273195Y-79739121D01*
X80246592Y-79719391D01*
X80222051Y-79697149D01*
X80199809Y-79672608D01*
X80180079Y-79646005D01*
X80163052Y-79617596D01*
X80148891Y-79587656D01*
X80137733Y-79556471D01*
X80129685Y-79524343D01*
X80124825Y-79491581D01*
X80123200Y-79458500D01*
X80123200Y-78783500D01*
X80124825Y-78750419D01*
X80129685Y-78717657D01*
X80137733Y-78685529D01*
X80148891Y-78654344D01*
X80163052Y-78624404D01*
X80180079Y-78595995D01*
X80199809Y-78569392D01*
X80222051Y-78544851D01*
X80246592Y-78522609D01*
X80273195Y-78502879D01*
X80301604Y-78485852D01*
X80331544Y-78471691D01*
X80362729Y-78460533D01*
X80394857Y-78452485D01*
X80427619Y-78447625D01*
X80460700Y-78446000D01*
X81235700Y-78446000D01*
X81268781Y-78447625D01*
X81268781Y-78447625D01*
G37*
D14*
X80848200Y-79121000D03*
G04 #@! TD*
D13*
G04 #@! TO.C,R5*
G36*
X72722981Y-85458025D02*
X72755743Y-85462885D01*
X72787871Y-85470933D01*
X72819056Y-85482091D01*
X72848996Y-85496252D01*
X72877405Y-85513279D01*
X72904008Y-85533009D01*
X72928549Y-85555251D01*
X72950791Y-85579792D01*
X72970521Y-85606395D01*
X72987548Y-85634804D01*
X73001709Y-85664744D01*
X73012867Y-85695929D01*
X73020915Y-85728057D01*
X73025775Y-85760819D01*
X73027400Y-85793900D01*
X73027400Y-86468900D01*
X73025775Y-86501981D01*
X73020915Y-86534743D01*
X73012867Y-86566871D01*
X73001709Y-86598056D01*
X72987548Y-86627996D01*
X72970521Y-86656405D01*
X72950791Y-86683008D01*
X72928549Y-86707549D01*
X72904008Y-86729791D01*
X72877405Y-86749521D01*
X72848996Y-86766548D01*
X72819056Y-86780709D01*
X72787871Y-86791867D01*
X72755743Y-86799915D01*
X72722981Y-86804775D01*
X72689900Y-86806400D01*
X71914900Y-86806400D01*
X71881819Y-86804775D01*
X71849057Y-86799915D01*
X71816929Y-86791867D01*
X71785744Y-86780709D01*
X71755804Y-86766548D01*
X71727395Y-86749521D01*
X71700792Y-86729791D01*
X71676251Y-86707549D01*
X71654009Y-86683008D01*
X71634279Y-86656405D01*
X71617252Y-86627996D01*
X71603091Y-86598056D01*
X71591933Y-86566871D01*
X71583885Y-86534743D01*
X71579025Y-86501981D01*
X71577400Y-86468900D01*
X71577400Y-85793900D01*
X71579025Y-85760819D01*
X71583885Y-85728057D01*
X71591933Y-85695929D01*
X71603091Y-85664744D01*
X71617252Y-85634804D01*
X71634279Y-85606395D01*
X71654009Y-85579792D01*
X71676251Y-85555251D01*
X71700792Y-85533009D01*
X71727395Y-85513279D01*
X71755804Y-85496252D01*
X71785744Y-85482091D01*
X71816929Y-85470933D01*
X71849057Y-85462885D01*
X71881819Y-85458025D01*
X71914900Y-85456400D01*
X72689900Y-85456400D01*
X72722981Y-85458025D01*
X72722981Y-85458025D01*
G37*
D14*
X72302400Y-86131400D03*
D13*
G36*
X74472981Y-85458025D02*
X74505743Y-85462885D01*
X74537871Y-85470933D01*
X74569056Y-85482091D01*
X74598996Y-85496252D01*
X74627405Y-85513279D01*
X74654008Y-85533009D01*
X74678549Y-85555251D01*
X74700791Y-85579792D01*
X74720521Y-85606395D01*
X74737548Y-85634804D01*
X74751709Y-85664744D01*
X74762867Y-85695929D01*
X74770915Y-85728057D01*
X74775775Y-85760819D01*
X74777400Y-85793900D01*
X74777400Y-86468900D01*
X74775775Y-86501981D01*
X74770915Y-86534743D01*
X74762867Y-86566871D01*
X74751709Y-86598056D01*
X74737548Y-86627996D01*
X74720521Y-86656405D01*
X74700791Y-86683008D01*
X74678549Y-86707549D01*
X74654008Y-86729791D01*
X74627405Y-86749521D01*
X74598996Y-86766548D01*
X74569056Y-86780709D01*
X74537871Y-86791867D01*
X74505743Y-86799915D01*
X74472981Y-86804775D01*
X74439900Y-86806400D01*
X73664900Y-86806400D01*
X73631819Y-86804775D01*
X73599057Y-86799915D01*
X73566929Y-86791867D01*
X73535744Y-86780709D01*
X73505804Y-86766548D01*
X73477395Y-86749521D01*
X73450792Y-86729791D01*
X73426251Y-86707549D01*
X73404009Y-86683008D01*
X73384279Y-86656405D01*
X73367252Y-86627996D01*
X73353091Y-86598056D01*
X73341933Y-86566871D01*
X73333885Y-86534743D01*
X73329025Y-86501981D01*
X73327400Y-86468900D01*
X73327400Y-85793900D01*
X73329025Y-85760819D01*
X73333885Y-85728057D01*
X73341933Y-85695929D01*
X73353091Y-85664744D01*
X73367252Y-85634804D01*
X73384279Y-85606395D01*
X73404009Y-85579792D01*
X73426251Y-85555251D01*
X73450792Y-85533009D01*
X73477395Y-85513279D01*
X73505804Y-85496252D01*
X73535744Y-85482091D01*
X73566929Y-85470933D01*
X73599057Y-85462885D01*
X73631819Y-85458025D01*
X73664900Y-85456400D01*
X74439900Y-85456400D01*
X74472981Y-85458025D01*
X74472981Y-85458025D01*
G37*
D14*
X74052400Y-86131400D03*
G04 #@! TD*
D13*
G04 #@! TO.C,R6*
G36*
X78183981Y-85458025D02*
X78216743Y-85462885D01*
X78248871Y-85470933D01*
X78280056Y-85482091D01*
X78309996Y-85496252D01*
X78338405Y-85513279D01*
X78365008Y-85533009D01*
X78389549Y-85555251D01*
X78411791Y-85579792D01*
X78431521Y-85606395D01*
X78448548Y-85634804D01*
X78462709Y-85664744D01*
X78473867Y-85695929D01*
X78481915Y-85728057D01*
X78486775Y-85760819D01*
X78488400Y-85793900D01*
X78488400Y-86468900D01*
X78486775Y-86501981D01*
X78481915Y-86534743D01*
X78473867Y-86566871D01*
X78462709Y-86598056D01*
X78448548Y-86627996D01*
X78431521Y-86656405D01*
X78411791Y-86683008D01*
X78389549Y-86707549D01*
X78365008Y-86729791D01*
X78338405Y-86749521D01*
X78309996Y-86766548D01*
X78280056Y-86780709D01*
X78248871Y-86791867D01*
X78216743Y-86799915D01*
X78183981Y-86804775D01*
X78150900Y-86806400D01*
X77375900Y-86806400D01*
X77342819Y-86804775D01*
X77310057Y-86799915D01*
X77277929Y-86791867D01*
X77246744Y-86780709D01*
X77216804Y-86766548D01*
X77188395Y-86749521D01*
X77161792Y-86729791D01*
X77137251Y-86707549D01*
X77115009Y-86683008D01*
X77095279Y-86656405D01*
X77078252Y-86627996D01*
X77064091Y-86598056D01*
X77052933Y-86566871D01*
X77044885Y-86534743D01*
X77040025Y-86501981D01*
X77038400Y-86468900D01*
X77038400Y-85793900D01*
X77040025Y-85760819D01*
X77044885Y-85728057D01*
X77052933Y-85695929D01*
X77064091Y-85664744D01*
X77078252Y-85634804D01*
X77095279Y-85606395D01*
X77115009Y-85579792D01*
X77137251Y-85555251D01*
X77161792Y-85533009D01*
X77188395Y-85513279D01*
X77216804Y-85496252D01*
X77246744Y-85482091D01*
X77277929Y-85470933D01*
X77310057Y-85462885D01*
X77342819Y-85458025D01*
X77375900Y-85456400D01*
X78150900Y-85456400D01*
X78183981Y-85458025D01*
X78183981Y-85458025D01*
G37*
D14*
X77763400Y-86131400D03*
D13*
G36*
X79933981Y-85458025D02*
X79966743Y-85462885D01*
X79998871Y-85470933D01*
X80030056Y-85482091D01*
X80059996Y-85496252D01*
X80088405Y-85513279D01*
X80115008Y-85533009D01*
X80139549Y-85555251D01*
X80161791Y-85579792D01*
X80181521Y-85606395D01*
X80198548Y-85634804D01*
X80212709Y-85664744D01*
X80223867Y-85695929D01*
X80231915Y-85728057D01*
X80236775Y-85760819D01*
X80238400Y-85793900D01*
X80238400Y-86468900D01*
X80236775Y-86501981D01*
X80231915Y-86534743D01*
X80223867Y-86566871D01*
X80212709Y-86598056D01*
X80198548Y-86627996D01*
X80181521Y-86656405D01*
X80161791Y-86683008D01*
X80139549Y-86707549D01*
X80115008Y-86729791D01*
X80088405Y-86749521D01*
X80059996Y-86766548D01*
X80030056Y-86780709D01*
X79998871Y-86791867D01*
X79966743Y-86799915D01*
X79933981Y-86804775D01*
X79900900Y-86806400D01*
X79125900Y-86806400D01*
X79092819Y-86804775D01*
X79060057Y-86799915D01*
X79027929Y-86791867D01*
X78996744Y-86780709D01*
X78966804Y-86766548D01*
X78938395Y-86749521D01*
X78911792Y-86729791D01*
X78887251Y-86707549D01*
X78865009Y-86683008D01*
X78845279Y-86656405D01*
X78828252Y-86627996D01*
X78814091Y-86598056D01*
X78802933Y-86566871D01*
X78794885Y-86534743D01*
X78790025Y-86501981D01*
X78788400Y-86468900D01*
X78788400Y-85793900D01*
X78790025Y-85760819D01*
X78794885Y-85728057D01*
X78802933Y-85695929D01*
X78814091Y-85664744D01*
X78828252Y-85634804D01*
X78845279Y-85606395D01*
X78865009Y-85579792D01*
X78887251Y-85555251D01*
X78911792Y-85533009D01*
X78938395Y-85513279D01*
X78966804Y-85496252D01*
X78996744Y-85482091D01*
X79027929Y-85470933D01*
X79060057Y-85462885D01*
X79092819Y-85458025D01*
X79125900Y-85456400D01*
X79900900Y-85456400D01*
X79933981Y-85458025D01*
X79933981Y-85458025D01*
G37*
D14*
X79513400Y-86131400D03*
G04 #@! TD*
D13*
G04 #@! TO.C,R7*
G36*
X82996781Y-85278425D02*
X83029543Y-85283285D01*
X83061671Y-85291333D01*
X83092856Y-85302491D01*
X83122796Y-85316652D01*
X83151205Y-85333679D01*
X83177808Y-85353409D01*
X83202349Y-85375651D01*
X83224591Y-85400192D01*
X83244321Y-85426795D01*
X83261348Y-85455204D01*
X83275509Y-85485144D01*
X83286667Y-85516329D01*
X83294715Y-85548457D01*
X83299575Y-85581219D01*
X83301200Y-85614300D01*
X83301200Y-86389300D01*
X83299575Y-86422381D01*
X83294715Y-86455143D01*
X83286667Y-86487271D01*
X83275509Y-86518456D01*
X83261348Y-86548396D01*
X83244321Y-86576805D01*
X83224591Y-86603408D01*
X83202349Y-86627949D01*
X83177808Y-86650191D01*
X83151205Y-86669921D01*
X83122796Y-86686948D01*
X83092856Y-86701109D01*
X83061671Y-86712267D01*
X83029543Y-86720315D01*
X82996781Y-86725175D01*
X82963700Y-86726800D01*
X82288700Y-86726800D01*
X82255619Y-86725175D01*
X82222857Y-86720315D01*
X82190729Y-86712267D01*
X82159544Y-86701109D01*
X82129604Y-86686948D01*
X82101195Y-86669921D01*
X82074592Y-86650191D01*
X82050051Y-86627949D01*
X82027809Y-86603408D01*
X82008079Y-86576805D01*
X81991052Y-86548396D01*
X81976891Y-86518456D01*
X81965733Y-86487271D01*
X81957685Y-86455143D01*
X81952825Y-86422381D01*
X81951200Y-86389300D01*
X81951200Y-85614300D01*
X81952825Y-85581219D01*
X81957685Y-85548457D01*
X81965733Y-85516329D01*
X81976891Y-85485144D01*
X81991052Y-85455204D01*
X82008079Y-85426795D01*
X82027809Y-85400192D01*
X82050051Y-85375651D01*
X82074592Y-85353409D01*
X82101195Y-85333679D01*
X82129604Y-85316652D01*
X82159544Y-85302491D01*
X82190729Y-85291333D01*
X82222857Y-85283285D01*
X82255619Y-85278425D01*
X82288700Y-85276800D01*
X82963700Y-85276800D01*
X82996781Y-85278425D01*
X82996781Y-85278425D01*
G37*
D14*
X82626200Y-86001800D03*
D13*
G36*
X82996781Y-83528425D02*
X83029543Y-83533285D01*
X83061671Y-83541333D01*
X83092856Y-83552491D01*
X83122796Y-83566652D01*
X83151205Y-83583679D01*
X83177808Y-83603409D01*
X83202349Y-83625651D01*
X83224591Y-83650192D01*
X83244321Y-83676795D01*
X83261348Y-83705204D01*
X83275509Y-83735144D01*
X83286667Y-83766329D01*
X83294715Y-83798457D01*
X83299575Y-83831219D01*
X83301200Y-83864300D01*
X83301200Y-84639300D01*
X83299575Y-84672381D01*
X83294715Y-84705143D01*
X83286667Y-84737271D01*
X83275509Y-84768456D01*
X83261348Y-84798396D01*
X83244321Y-84826805D01*
X83224591Y-84853408D01*
X83202349Y-84877949D01*
X83177808Y-84900191D01*
X83151205Y-84919921D01*
X83122796Y-84936948D01*
X83092856Y-84951109D01*
X83061671Y-84962267D01*
X83029543Y-84970315D01*
X82996781Y-84975175D01*
X82963700Y-84976800D01*
X82288700Y-84976800D01*
X82255619Y-84975175D01*
X82222857Y-84970315D01*
X82190729Y-84962267D01*
X82159544Y-84951109D01*
X82129604Y-84936948D01*
X82101195Y-84919921D01*
X82074592Y-84900191D01*
X82050051Y-84877949D01*
X82027809Y-84853408D01*
X82008079Y-84826805D01*
X81991052Y-84798396D01*
X81976891Y-84768456D01*
X81965733Y-84737271D01*
X81957685Y-84705143D01*
X81952825Y-84672381D01*
X81951200Y-84639300D01*
X81951200Y-83864300D01*
X81952825Y-83831219D01*
X81957685Y-83798457D01*
X81965733Y-83766329D01*
X81976891Y-83735144D01*
X81991052Y-83705204D01*
X82008079Y-83676795D01*
X82027809Y-83650192D01*
X82050051Y-83625651D01*
X82074592Y-83603409D01*
X82101195Y-83583679D01*
X82129604Y-83566652D01*
X82159544Y-83552491D01*
X82190729Y-83541333D01*
X82222857Y-83533285D01*
X82255619Y-83528425D01*
X82288700Y-83526800D01*
X82963700Y-83526800D01*
X82996781Y-83528425D01*
X82996781Y-83528425D01*
G37*
D14*
X82626200Y-84251800D03*
G04 #@! TD*
D13*
G04 #@! TO.C,R8*
G36*
X100852981Y-83235025D02*
X100885743Y-83239885D01*
X100917871Y-83247933D01*
X100949056Y-83259091D01*
X100978996Y-83273252D01*
X101007405Y-83290279D01*
X101034008Y-83310009D01*
X101058549Y-83332251D01*
X101080791Y-83356792D01*
X101100521Y-83383395D01*
X101117548Y-83411804D01*
X101131709Y-83441744D01*
X101142867Y-83472929D01*
X101150915Y-83505057D01*
X101155775Y-83537819D01*
X101157400Y-83570900D01*
X101157400Y-84345900D01*
X101155775Y-84378981D01*
X101150915Y-84411743D01*
X101142867Y-84443871D01*
X101131709Y-84475056D01*
X101117548Y-84504996D01*
X101100521Y-84533405D01*
X101080791Y-84560008D01*
X101058549Y-84584549D01*
X101034008Y-84606791D01*
X101007405Y-84626521D01*
X100978996Y-84643548D01*
X100949056Y-84657709D01*
X100917871Y-84668867D01*
X100885743Y-84676915D01*
X100852981Y-84681775D01*
X100819900Y-84683400D01*
X100144900Y-84683400D01*
X100111819Y-84681775D01*
X100079057Y-84676915D01*
X100046929Y-84668867D01*
X100015744Y-84657709D01*
X99985804Y-84643548D01*
X99957395Y-84626521D01*
X99930792Y-84606791D01*
X99906251Y-84584549D01*
X99884009Y-84560008D01*
X99864279Y-84533405D01*
X99847252Y-84504996D01*
X99833091Y-84475056D01*
X99821933Y-84443871D01*
X99813885Y-84411743D01*
X99809025Y-84378981D01*
X99807400Y-84345900D01*
X99807400Y-83570900D01*
X99809025Y-83537819D01*
X99813885Y-83505057D01*
X99821933Y-83472929D01*
X99833091Y-83441744D01*
X99847252Y-83411804D01*
X99864279Y-83383395D01*
X99884009Y-83356792D01*
X99906251Y-83332251D01*
X99930792Y-83310009D01*
X99957395Y-83290279D01*
X99985804Y-83273252D01*
X100015744Y-83259091D01*
X100046929Y-83247933D01*
X100079057Y-83239885D01*
X100111819Y-83235025D01*
X100144900Y-83233400D01*
X100819900Y-83233400D01*
X100852981Y-83235025D01*
X100852981Y-83235025D01*
G37*
D14*
X100482400Y-83958400D03*
D13*
G36*
X100852981Y-81485025D02*
X100885743Y-81489885D01*
X100917871Y-81497933D01*
X100949056Y-81509091D01*
X100978996Y-81523252D01*
X101007405Y-81540279D01*
X101034008Y-81560009D01*
X101058549Y-81582251D01*
X101080791Y-81606792D01*
X101100521Y-81633395D01*
X101117548Y-81661804D01*
X101131709Y-81691744D01*
X101142867Y-81722929D01*
X101150915Y-81755057D01*
X101155775Y-81787819D01*
X101157400Y-81820900D01*
X101157400Y-82595900D01*
X101155775Y-82628981D01*
X101150915Y-82661743D01*
X101142867Y-82693871D01*
X101131709Y-82725056D01*
X101117548Y-82754996D01*
X101100521Y-82783405D01*
X101080791Y-82810008D01*
X101058549Y-82834549D01*
X101034008Y-82856791D01*
X101007405Y-82876521D01*
X100978996Y-82893548D01*
X100949056Y-82907709D01*
X100917871Y-82918867D01*
X100885743Y-82926915D01*
X100852981Y-82931775D01*
X100819900Y-82933400D01*
X100144900Y-82933400D01*
X100111819Y-82931775D01*
X100079057Y-82926915D01*
X100046929Y-82918867D01*
X100015744Y-82907709D01*
X99985804Y-82893548D01*
X99957395Y-82876521D01*
X99930792Y-82856791D01*
X99906251Y-82834549D01*
X99884009Y-82810008D01*
X99864279Y-82783405D01*
X99847252Y-82754996D01*
X99833091Y-82725056D01*
X99821933Y-82693871D01*
X99813885Y-82661743D01*
X99809025Y-82628981D01*
X99807400Y-82595900D01*
X99807400Y-81820900D01*
X99809025Y-81787819D01*
X99813885Y-81755057D01*
X99821933Y-81722929D01*
X99833091Y-81691744D01*
X99847252Y-81661804D01*
X99864279Y-81633395D01*
X99884009Y-81606792D01*
X99906251Y-81582251D01*
X99930792Y-81560009D01*
X99957395Y-81540279D01*
X99985804Y-81523252D01*
X100015744Y-81509091D01*
X100046929Y-81497933D01*
X100079057Y-81489885D01*
X100111819Y-81485025D01*
X100144900Y-81483400D01*
X100819900Y-81483400D01*
X100852981Y-81485025D01*
X100852981Y-81485025D01*
G37*
D14*
X100482400Y-82208400D03*
G04 #@! TD*
D13*
G04 #@! TO.C,R10*
G36*
X84673181Y-83542425D02*
X84705943Y-83547285D01*
X84738071Y-83555333D01*
X84769256Y-83566491D01*
X84799196Y-83580652D01*
X84827605Y-83597679D01*
X84854208Y-83617409D01*
X84878749Y-83639651D01*
X84900991Y-83664192D01*
X84920721Y-83690795D01*
X84937748Y-83719204D01*
X84951909Y-83749144D01*
X84963067Y-83780329D01*
X84971115Y-83812457D01*
X84975975Y-83845219D01*
X84977600Y-83878300D01*
X84977600Y-84653300D01*
X84975975Y-84686381D01*
X84971115Y-84719143D01*
X84963067Y-84751271D01*
X84951909Y-84782456D01*
X84937748Y-84812396D01*
X84920721Y-84840805D01*
X84900991Y-84867408D01*
X84878749Y-84891949D01*
X84854208Y-84914191D01*
X84827605Y-84933921D01*
X84799196Y-84950948D01*
X84769256Y-84965109D01*
X84738071Y-84976267D01*
X84705943Y-84984315D01*
X84673181Y-84989175D01*
X84640100Y-84990800D01*
X83965100Y-84990800D01*
X83932019Y-84989175D01*
X83899257Y-84984315D01*
X83867129Y-84976267D01*
X83835944Y-84965109D01*
X83806004Y-84950948D01*
X83777595Y-84933921D01*
X83750992Y-84914191D01*
X83726451Y-84891949D01*
X83704209Y-84867408D01*
X83684479Y-84840805D01*
X83667452Y-84812396D01*
X83653291Y-84782456D01*
X83642133Y-84751271D01*
X83634085Y-84719143D01*
X83629225Y-84686381D01*
X83627600Y-84653300D01*
X83627600Y-83878300D01*
X83629225Y-83845219D01*
X83634085Y-83812457D01*
X83642133Y-83780329D01*
X83653291Y-83749144D01*
X83667452Y-83719204D01*
X83684479Y-83690795D01*
X83704209Y-83664192D01*
X83726451Y-83639651D01*
X83750992Y-83617409D01*
X83777595Y-83597679D01*
X83806004Y-83580652D01*
X83835944Y-83566491D01*
X83867129Y-83555333D01*
X83899257Y-83547285D01*
X83932019Y-83542425D01*
X83965100Y-83540800D01*
X84640100Y-83540800D01*
X84673181Y-83542425D01*
X84673181Y-83542425D01*
G37*
D14*
X84302600Y-84265800D03*
D13*
G36*
X84673181Y-85292425D02*
X84705943Y-85297285D01*
X84738071Y-85305333D01*
X84769256Y-85316491D01*
X84799196Y-85330652D01*
X84827605Y-85347679D01*
X84854208Y-85367409D01*
X84878749Y-85389651D01*
X84900991Y-85414192D01*
X84920721Y-85440795D01*
X84937748Y-85469204D01*
X84951909Y-85499144D01*
X84963067Y-85530329D01*
X84971115Y-85562457D01*
X84975975Y-85595219D01*
X84977600Y-85628300D01*
X84977600Y-86403300D01*
X84975975Y-86436381D01*
X84971115Y-86469143D01*
X84963067Y-86501271D01*
X84951909Y-86532456D01*
X84937748Y-86562396D01*
X84920721Y-86590805D01*
X84900991Y-86617408D01*
X84878749Y-86641949D01*
X84854208Y-86664191D01*
X84827605Y-86683921D01*
X84799196Y-86700948D01*
X84769256Y-86715109D01*
X84738071Y-86726267D01*
X84705943Y-86734315D01*
X84673181Y-86739175D01*
X84640100Y-86740800D01*
X83965100Y-86740800D01*
X83932019Y-86739175D01*
X83899257Y-86734315D01*
X83867129Y-86726267D01*
X83835944Y-86715109D01*
X83806004Y-86700948D01*
X83777595Y-86683921D01*
X83750992Y-86664191D01*
X83726451Y-86641949D01*
X83704209Y-86617408D01*
X83684479Y-86590805D01*
X83667452Y-86562396D01*
X83653291Y-86532456D01*
X83642133Y-86501271D01*
X83634085Y-86469143D01*
X83629225Y-86436381D01*
X83627600Y-86403300D01*
X83627600Y-85628300D01*
X83629225Y-85595219D01*
X83634085Y-85562457D01*
X83642133Y-85530329D01*
X83653291Y-85499144D01*
X83667452Y-85469204D01*
X83684479Y-85440795D01*
X83704209Y-85414192D01*
X83726451Y-85389651D01*
X83750992Y-85367409D01*
X83777595Y-85347679D01*
X83806004Y-85330652D01*
X83835944Y-85316491D01*
X83867129Y-85305333D01*
X83899257Y-85297285D01*
X83932019Y-85292425D01*
X83965100Y-85290800D01*
X84640100Y-85290800D01*
X84673181Y-85292425D01*
X84673181Y-85292425D01*
G37*
D14*
X84302600Y-86015800D03*
G04 #@! TD*
D13*
G04 #@! TO.C,R11*
G36*
X95100381Y-85026225D02*
X95133143Y-85031085D01*
X95165271Y-85039133D01*
X95196456Y-85050291D01*
X95226396Y-85064452D01*
X95254805Y-85081479D01*
X95281408Y-85101209D01*
X95305949Y-85123451D01*
X95328191Y-85147992D01*
X95347921Y-85174595D01*
X95364948Y-85203004D01*
X95379109Y-85232944D01*
X95390267Y-85264129D01*
X95398315Y-85296257D01*
X95403175Y-85329019D01*
X95404800Y-85362100D01*
X95404800Y-86037100D01*
X95403175Y-86070181D01*
X95398315Y-86102943D01*
X95390267Y-86135071D01*
X95379109Y-86166256D01*
X95364948Y-86196196D01*
X95347921Y-86224605D01*
X95328191Y-86251208D01*
X95305949Y-86275749D01*
X95281408Y-86297991D01*
X95254805Y-86317721D01*
X95226396Y-86334748D01*
X95196456Y-86348909D01*
X95165271Y-86360067D01*
X95133143Y-86368115D01*
X95100381Y-86372975D01*
X95067300Y-86374600D01*
X94292300Y-86374600D01*
X94259219Y-86372975D01*
X94226457Y-86368115D01*
X94194329Y-86360067D01*
X94163144Y-86348909D01*
X94133204Y-86334748D01*
X94104795Y-86317721D01*
X94078192Y-86297991D01*
X94053651Y-86275749D01*
X94031409Y-86251208D01*
X94011679Y-86224605D01*
X93994652Y-86196196D01*
X93980491Y-86166256D01*
X93969333Y-86135071D01*
X93961285Y-86102943D01*
X93956425Y-86070181D01*
X93954800Y-86037100D01*
X93954800Y-85362100D01*
X93956425Y-85329019D01*
X93961285Y-85296257D01*
X93969333Y-85264129D01*
X93980491Y-85232944D01*
X93994652Y-85203004D01*
X94011679Y-85174595D01*
X94031409Y-85147992D01*
X94053651Y-85123451D01*
X94078192Y-85101209D01*
X94104795Y-85081479D01*
X94133204Y-85064452D01*
X94163144Y-85050291D01*
X94194329Y-85039133D01*
X94226457Y-85031085D01*
X94259219Y-85026225D01*
X94292300Y-85024600D01*
X95067300Y-85024600D01*
X95100381Y-85026225D01*
X95100381Y-85026225D01*
G37*
D14*
X94679800Y-85699600D03*
D13*
G36*
X96850381Y-85026225D02*
X96883143Y-85031085D01*
X96915271Y-85039133D01*
X96946456Y-85050291D01*
X96976396Y-85064452D01*
X97004805Y-85081479D01*
X97031408Y-85101209D01*
X97055949Y-85123451D01*
X97078191Y-85147992D01*
X97097921Y-85174595D01*
X97114948Y-85203004D01*
X97129109Y-85232944D01*
X97140267Y-85264129D01*
X97148315Y-85296257D01*
X97153175Y-85329019D01*
X97154800Y-85362100D01*
X97154800Y-86037100D01*
X97153175Y-86070181D01*
X97148315Y-86102943D01*
X97140267Y-86135071D01*
X97129109Y-86166256D01*
X97114948Y-86196196D01*
X97097921Y-86224605D01*
X97078191Y-86251208D01*
X97055949Y-86275749D01*
X97031408Y-86297991D01*
X97004805Y-86317721D01*
X96976396Y-86334748D01*
X96946456Y-86348909D01*
X96915271Y-86360067D01*
X96883143Y-86368115D01*
X96850381Y-86372975D01*
X96817300Y-86374600D01*
X96042300Y-86374600D01*
X96009219Y-86372975D01*
X95976457Y-86368115D01*
X95944329Y-86360067D01*
X95913144Y-86348909D01*
X95883204Y-86334748D01*
X95854795Y-86317721D01*
X95828192Y-86297991D01*
X95803651Y-86275749D01*
X95781409Y-86251208D01*
X95761679Y-86224605D01*
X95744652Y-86196196D01*
X95730491Y-86166256D01*
X95719333Y-86135071D01*
X95711285Y-86102943D01*
X95706425Y-86070181D01*
X95704800Y-86037100D01*
X95704800Y-85362100D01*
X95706425Y-85329019D01*
X95711285Y-85296257D01*
X95719333Y-85264129D01*
X95730491Y-85232944D01*
X95744652Y-85203004D01*
X95761679Y-85174595D01*
X95781409Y-85147992D01*
X95803651Y-85123451D01*
X95828192Y-85101209D01*
X95854795Y-85081479D01*
X95883204Y-85064452D01*
X95913144Y-85050291D01*
X95944329Y-85039133D01*
X95976457Y-85031085D01*
X96009219Y-85026225D01*
X96042300Y-85024600D01*
X96817300Y-85024600D01*
X96850381Y-85026225D01*
X96850381Y-85026225D01*
G37*
D14*
X96429800Y-85699600D03*
G04 #@! TD*
D13*
G04 #@! TO.C,R12*
G36*
X100711181Y-85026225D02*
X100743943Y-85031085D01*
X100776071Y-85039133D01*
X100807256Y-85050291D01*
X100837196Y-85064452D01*
X100865605Y-85081479D01*
X100892208Y-85101209D01*
X100916749Y-85123451D01*
X100938991Y-85147992D01*
X100958721Y-85174595D01*
X100975748Y-85203004D01*
X100989909Y-85232944D01*
X101001067Y-85264129D01*
X101009115Y-85296257D01*
X101013975Y-85329019D01*
X101015600Y-85362100D01*
X101015600Y-86037100D01*
X101013975Y-86070181D01*
X101009115Y-86102943D01*
X101001067Y-86135071D01*
X100989909Y-86166256D01*
X100975748Y-86196196D01*
X100958721Y-86224605D01*
X100938991Y-86251208D01*
X100916749Y-86275749D01*
X100892208Y-86297991D01*
X100865605Y-86317721D01*
X100837196Y-86334748D01*
X100807256Y-86348909D01*
X100776071Y-86360067D01*
X100743943Y-86368115D01*
X100711181Y-86372975D01*
X100678100Y-86374600D01*
X99903100Y-86374600D01*
X99870019Y-86372975D01*
X99837257Y-86368115D01*
X99805129Y-86360067D01*
X99773944Y-86348909D01*
X99744004Y-86334748D01*
X99715595Y-86317721D01*
X99688992Y-86297991D01*
X99664451Y-86275749D01*
X99642209Y-86251208D01*
X99622479Y-86224605D01*
X99605452Y-86196196D01*
X99591291Y-86166256D01*
X99580133Y-86135071D01*
X99572085Y-86102943D01*
X99567225Y-86070181D01*
X99565600Y-86037100D01*
X99565600Y-85362100D01*
X99567225Y-85329019D01*
X99572085Y-85296257D01*
X99580133Y-85264129D01*
X99591291Y-85232944D01*
X99605452Y-85203004D01*
X99622479Y-85174595D01*
X99642209Y-85147992D01*
X99664451Y-85123451D01*
X99688992Y-85101209D01*
X99715595Y-85081479D01*
X99744004Y-85064452D01*
X99773944Y-85050291D01*
X99805129Y-85039133D01*
X99837257Y-85031085D01*
X99870019Y-85026225D01*
X99903100Y-85024600D01*
X100678100Y-85024600D01*
X100711181Y-85026225D01*
X100711181Y-85026225D01*
G37*
D14*
X100290600Y-85699600D03*
D13*
G36*
X98961181Y-85026225D02*
X98993943Y-85031085D01*
X99026071Y-85039133D01*
X99057256Y-85050291D01*
X99087196Y-85064452D01*
X99115605Y-85081479D01*
X99142208Y-85101209D01*
X99166749Y-85123451D01*
X99188991Y-85147992D01*
X99208721Y-85174595D01*
X99225748Y-85203004D01*
X99239909Y-85232944D01*
X99251067Y-85264129D01*
X99259115Y-85296257D01*
X99263975Y-85329019D01*
X99265600Y-85362100D01*
X99265600Y-86037100D01*
X99263975Y-86070181D01*
X99259115Y-86102943D01*
X99251067Y-86135071D01*
X99239909Y-86166256D01*
X99225748Y-86196196D01*
X99208721Y-86224605D01*
X99188991Y-86251208D01*
X99166749Y-86275749D01*
X99142208Y-86297991D01*
X99115605Y-86317721D01*
X99087196Y-86334748D01*
X99057256Y-86348909D01*
X99026071Y-86360067D01*
X98993943Y-86368115D01*
X98961181Y-86372975D01*
X98928100Y-86374600D01*
X98153100Y-86374600D01*
X98120019Y-86372975D01*
X98087257Y-86368115D01*
X98055129Y-86360067D01*
X98023944Y-86348909D01*
X97994004Y-86334748D01*
X97965595Y-86317721D01*
X97938992Y-86297991D01*
X97914451Y-86275749D01*
X97892209Y-86251208D01*
X97872479Y-86224605D01*
X97855452Y-86196196D01*
X97841291Y-86166256D01*
X97830133Y-86135071D01*
X97822085Y-86102943D01*
X97817225Y-86070181D01*
X97815600Y-86037100D01*
X97815600Y-85362100D01*
X97817225Y-85329019D01*
X97822085Y-85296257D01*
X97830133Y-85264129D01*
X97841291Y-85232944D01*
X97855452Y-85203004D01*
X97872479Y-85174595D01*
X97892209Y-85147992D01*
X97914451Y-85123451D01*
X97938992Y-85101209D01*
X97965595Y-85081479D01*
X97994004Y-85064452D01*
X98023944Y-85050291D01*
X98055129Y-85039133D01*
X98087257Y-85031085D01*
X98120019Y-85026225D01*
X98153100Y-85024600D01*
X98928100Y-85024600D01*
X98961181Y-85026225D01*
X98961181Y-85026225D01*
G37*
D14*
X98540600Y-85699600D03*
G04 #@! TD*
D18*
G04 #@! TO.C,U1*
X105562400Y-80670400D03*
D17*
X103022400Y-80670400D03*
X105562400Y-83210400D03*
X103022400Y-83210400D03*
X105562400Y-85750400D03*
X103022400Y-85750400D03*
X105562400Y-88290400D03*
X103022400Y-88290400D03*
G04 #@! TD*
D18*
G04 #@! TO.C,U2*
X80975200Y-88823800D03*
D17*
X83515200Y-88823800D03*
X86055200Y-88823800D03*
X88595200Y-88823800D03*
G04 #@! TD*
D18*
G04 #@! TO.C,J3*
X97434400Y-88823800D03*
D17*
X94894400Y-88823800D03*
X92354400Y-88823800D03*
G04 #@! TD*
M02*
