M48
;DRILL file {KiCad (5.0.0)} date 04/18/19 12:31:31
;FORMAT={-:-/ absolute / metric / decimal}
FMAT,2
METRIC,TZ
T1C0.400
T2C0.800
T3C1.000
%
G90
G05
M71
T1
X67.716Y-89.56
X72.009Y-81.001
X75.844Y-86.131
X80.899Y-86.995
X81.991Y-81.89
X81.991Y-82.855
X82.296Y-79.426
X83.515Y-82.906
X87.909Y-85.674
X88.773Y-86.462
X91.288Y-85.369
X92.405Y-85.395
X94.844Y-87.071
X95.834Y-90.322
X96.368Y-87.046
X97.409Y-87.02
X98.908Y-84.404
X100.559Y-89.662
X103.911Y-78.562
X104.978Y-78.562
X106.197Y-78.562
T2
X67.615Y-76.759
X67.615Y-91.999
X70.155Y-76.759
X70.155Y-91.999
X72.695Y-76.759
X72.695Y-91.999
X75.235Y-76.759
X75.235Y-91.999
X77.775Y-76.759
X77.775Y-91.999
X80.315Y-76.759
X80.315Y-91.999
X82.855Y-76.759
X82.855Y-91.999
X85.395Y-76.759
X85.395Y-91.999
X87.935Y-76.759
X87.935Y-91.999
X90.475Y-76.759
X90.475Y-91.999
X93.015Y-76.759
X93.015Y-91.999
X95.555Y-76.759
X95.555Y-91.999
X98.095Y-76.759
X98.095Y-91.999
X100.635Y-76.759
X100.635Y-91.999
X103.175Y-76.759
X103.175Y-91.999
T3
X80.975Y-88.824
X83.515Y-88.824
X86.055Y-88.824
X88.595Y-88.824
X69.723Y-88.849
X72.263Y-88.849
X74.803Y-88.849
X77.343Y-88.849
X103.022Y-80.67
X103.022Y-83.21
X103.022Y-85.75
X103.022Y-88.29
X105.562Y-80.67
X105.562Y-83.21
X105.562Y-85.75
X105.562Y-88.29
X90.094Y-80.315
X90.094Y-82.855
X92.634Y-80.315
X92.634Y-82.855
X95.174Y-80.315
X95.174Y-82.855
X97.714Y-80.315
X97.714Y-82.855
X92.354Y-88.824
X94.894Y-88.824
X97.434Y-88.824
X65.913Y-80.62
X65.913Y-83.16
X65.913Y-85.7
X65.913Y-88.24
T0
M30
