G04 #@! TF.GenerationSoftware,KiCad,Pcbnew,(5.0.0)*
G04 #@! TF.CreationDate,2019-04-18T12:31:28+02:00*
G04 #@! TF.ProjectId,WateringSystem,5761746572696E6753797374656D2E6B,rev?*
G04 #@! TF.SameCoordinates,Original*
G04 #@! TF.FileFunction,Copper,L1,Top,Signal*
G04 #@! TF.FilePolarity,Positive*
%FSLAX46Y46*%
G04 Gerber Fmt 4.6, Leading zero omitted, Abs format (unit mm)*
G04 Created by KiCad (PCBNEW (5.0.0)) date 04/18/19 12:31:28*
%MOMM*%
%LPD*%
G01*
G04 APERTURE LIST*
G04 #@! TA.AperFunction,ComponentPad*
%ADD10R,1.600000X1.600000*%
G04 #@! TD*
G04 #@! TA.AperFunction,ComponentPad*
%ADD11O,1.600000X1.600000*%
G04 #@! TD*
G04 #@! TA.AperFunction,Conductor*
%ADD12C,0.100000*%
G04 #@! TD*
G04 #@! TA.AperFunction,SMDPad,CuDef*
%ADD13C,0.950000*%
G04 #@! TD*
G04 #@! TA.AperFunction,SMDPad,CuDef*
%ADD14R,1.680000X1.700000*%
G04 #@! TD*
G04 #@! TA.AperFunction,SMDPad,CuDef*
%ADD15C,1.425000*%
G04 #@! TD*
G04 #@! TA.AperFunction,ComponentPad*
%ADD16O,1.700000X1.700000*%
G04 #@! TD*
G04 #@! TA.AperFunction,ComponentPad*
%ADD17R,1.700000X1.700000*%
G04 #@! TD*
G04 #@! TA.AperFunction,SMDPad,CuDef*
%ADD18R,0.900000X0.800000*%
G04 #@! TD*
G04 #@! TA.AperFunction,ViaPad*
%ADD19C,0.800000*%
G04 #@! TD*
G04 #@! TA.AperFunction,Conductor*
%ADD20C,0.500000*%
G04 #@! TD*
G04 #@! TA.AperFunction,Conductor*
%ADD21C,0.254000*%
G04 #@! TD*
G04 APERTURE END LIST*
D10*
G04 #@! TO.P,A1,1*
G04 #@! TO.N,/H_TX*
X103174800Y-76758800D03*
D11*
G04 #@! TO.P,A1,17*
G04 #@! TO.N,/3V3*
X70154800Y-91998800D03*
G04 #@! TO.P,A1,2*
G04 #@! TO.N,/H_RX*
X100634800Y-76758800D03*
G04 #@! TO.P,A1,18*
G04 #@! TO.N,N/C*
X72694800Y-91998800D03*
G04 #@! TO.P,A1,3*
X98094800Y-76758800D03*
G04 #@! TO.P,A1,19*
G04 #@! TO.N,/LR_LEVEL*
X75234800Y-91998800D03*
G04 #@! TO.P,A1,4*
G04 #@! TO.N,GND*
X95554800Y-76758800D03*
G04 #@! TO.P,A1,20*
G04 #@! TO.N,/SR_LEVEL*
X77774800Y-91998800D03*
G04 #@! TO.P,A1,5*
G04 #@! TO.N,/S_RX*
X93014800Y-76758800D03*
G04 #@! TO.P,A1,21*
G04 #@! TO.N,N/C*
X80314800Y-91998800D03*
G04 #@! TO.P,A1,6*
G04 #@! TO.N,/S_TX*
X90474800Y-76758800D03*
G04 #@! TO.P,A1,22*
G04 #@! TO.N,N/C*
X82854800Y-91998800D03*
G04 #@! TO.P,A1,7*
X87934800Y-76758800D03*
G04 #@! TO.P,A1,23*
G04 #@! TO.N,/SDA*
X85394800Y-91998800D03*
G04 #@! TO.P,A1,8*
G04 #@! TO.N,N/C*
X85394800Y-76758800D03*
G04 #@! TO.P,A1,24*
G04 #@! TO.N,/SCL*
X87934800Y-91998800D03*
G04 #@! TO.P,A1,9*
G04 #@! TO.N,/YELLOW_LED*
X82854800Y-76758800D03*
G04 #@! TO.P,A1,25*
G04 #@! TO.N,N/C*
X90474800Y-91998800D03*
G04 #@! TO.P,A1,10*
G04 #@! TO.N,/RED_LED*
X80314800Y-76758800D03*
G04 #@! TO.P,A1,26*
G04 #@! TO.N,N/C*
X93014800Y-91998800D03*
G04 #@! TO.P,A1,11*
X77774800Y-76758800D03*
G04 #@! TO.P,A1,27*
G04 #@! TO.N,/5V0*
X95554800Y-91998800D03*
G04 #@! TO.P,A1,12*
G04 #@! TO.N,Net-(A1-Pad12)*
X75234800Y-76758800D03*
G04 #@! TO.P,A1,28*
G04 #@! TO.N,N/C*
X98094800Y-91998800D03*
G04 #@! TO.P,A1,13*
X72694800Y-76758800D03*
G04 #@! TO.P,A1,29*
G04 #@! TO.N,GND*
X100634800Y-91998800D03*
G04 #@! TO.P,A1,14*
G04 #@! TO.N,N/C*
X70154800Y-76758800D03*
G04 #@! TO.P,A1,30*
G04 #@! TO.N,/VIN*
X103174800Y-91998800D03*
G04 #@! TO.P,A1,15*
G04 #@! TO.N,N/C*
X67614800Y-76758800D03*
G04 #@! TO.P,A1,16*
X67614800Y-91998800D03*
G04 #@! TD*
D12*
G04 #@! TO.N,GND*
G04 #@! TO.C,C1*
G36*
X69006379Y-79840944D02*
X69029434Y-79844363D01*
X69052043Y-79850027D01*
X69073987Y-79857879D01*
X69095057Y-79867844D01*
X69115048Y-79879826D01*
X69133768Y-79893710D01*
X69151038Y-79909362D01*
X69166690Y-79926632D01*
X69180574Y-79945352D01*
X69192556Y-79965343D01*
X69202521Y-79986413D01*
X69210373Y-80008357D01*
X69216037Y-80030966D01*
X69219456Y-80054021D01*
X69220600Y-80077300D01*
X69220600Y-80552300D01*
X69219456Y-80575579D01*
X69216037Y-80598634D01*
X69210373Y-80621243D01*
X69202521Y-80643187D01*
X69192556Y-80664257D01*
X69180574Y-80684248D01*
X69166690Y-80702968D01*
X69151038Y-80720238D01*
X69133768Y-80735890D01*
X69115048Y-80749774D01*
X69095057Y-80761756D01*
X69073987Y-80771721D01*
X69052043Y-80779573D01*
X69029434Y-80785237D01*
X69006379Y-80788656D01*
X68983100Y-80789800D01*
X68408100Y-80789800D01*
X68384821Y-80788656D01*
X68361766Y-80785237D01*
X68339157Y-80779573D01*
X68317213Y-80771721D01*
X68296143Y-80761756D01*
X68276152Y-80749774D01*
X68257432Y-80735890D01*
X68240162Y-80720238D01*
X68224510Y-80702968D01*
X68210626Y-80684248D01*
X68198644Y-80664257D01*
X68188679Y-80643187D01*
X68180827Y-80621243D01*
X68175163Y-80598634D01*
X68171744Y-80575579D01*
X68170600Y-80552300D01*
X68170600Y-80077300D01*
X68171744Y-80054021D01*
X68175163Y-80030966D01*
X68180827Y-80008357D01*
X68188679Y-79986413D01*
X68198644Y-79965343D01*
X68210626Y-79945352D01*
X68224510Y-79926632D01*
X68240162Y-79909362D01*
X68257432Y-79893710D01*
X68276152Y-79879826D01*
X68296143Y-79867844D01*
X68317213Y-79857879D01*
X68339157Y-79850027D01*
X68361766Y-79844363D01*
X68384821Y-79840944D01*
X68408100Y-79839800D01*
X68983100Y-79839800D01*
X69006379Y-79840944D01*
X69006379Y-79840944D01*
G37*
D13*
G04 #@! TD*
G04 #@! TO.P,C1,2*
G04 #@! TO.N,GND*
X68695600Y-80314800D03*
D12*
G04 #@! TO.N,/5V0*
G04 #@! TO.C,C1*
G36*
X70756379Y-79840944D02*
X70779434Y-79844363D01*
X70802043Y-79850027D01*
X70823987Y-79857879D01*
X70845057Y-79867844D01*
X70865048Y-79879826D01*
X70883768Y-79893710D01*
X70901038Y-79909362D01*
X70916690Y-79926632D01*
X70930574Y-79945352D01*
X70942556Y-79965343D01*
X70952521Y-79986413D01*
X70960373Y-80008357D01*
X70966037Y-80030966D01*
X70969456Y-80054021D01*
X70970600Y-80077300D01*
X70970600Y-80552300D01*
X70969456Y-80575579D01*
X70966037Y-80598634D01*
X70960373Y-80621243D01*
X70952521Y-80643187D01*
X70942556Y-80664257D01*
X70930574Y-80684248D01*
X70916690Y-80702968D01*
X70901038Y-80720238D01*
X70883768Y-80735890D01*
X70865048Y-80749774D01*
X70845057Y-80761756D01*
X70823987Y-80771721D01*
X70802043Y-80779573D01*
X70779434Y-80785237D01*
X70756379Y-80788656D01*
X70733100Y-80789800D01*
X70158100Y-80789800D01*
X70134821Y-80788656D01*
X70111766Y-80785237D01*
X70089157Y-80779573D01*
X70067213Y-80771721D01*
X70046143Y-80761756D01*
X70026152Y-80749774D01*
X70007432Y-80735890D01*
X69990162Y-80720238D01*
X69974510Y-80702968D01*
X69960626Y-80684248D01*
X69948644Y-80664257D01*
X69938679Y-80643187D01*
X69930827Y-80621243D01*
X69925163Y-80598634D01*
X69921744Y-80575579D01*
X69920600Y-80552300D01*
X69920600Y-80077300D01*
X69921744Y-80054021D01*
X69925163Y-80030966D01*
X69930827Y-80008357D01*
X69938679Y-79986413D01*
X69948644Y-79965343D01*
X69960626Y-79945352D01*
X69974510Y-79926632D01*
X69990162Y-79909362D01*
X70007432Y-79893710D01*
X70026152Y-79879826D01*
X70046143Y-79867844D01*
X70067213Y-79857879D01*
X70089157Y-79850027D01*
X70111766Y-79844363D01*
X70134821Y-79840944D01*
X70158100Y-79839800D01*
X70733100Y-79839800D01*
X70756379Y-79840944D01*
X70756379Y-79840944D01*
G37*
D13*
G04 #@! TD*
G04 #@! TO.P,C1,1*
G04 #@! TO.N,/5V0*
X70445600Y-80314800D03*
D12*
G04 #@! TO.N,/5V0*
G04 #@! TO.C,C2*
G36*
X70730979Y-78316944D02*
X70754034Y-78320363D01*
X70776643Y-78326027D01*
X70798587Y-78333879D01*
X70819657Y-78343844D01*
X70839648Y-78355826D01*
X70858368Y-78369710D01*
X70875638Y-78385362D01*
X70891290Y-78402632D01*
X70905174Y-78421352D01*
X70917156Y-78441343D01*
X70927121Y-78462413D01*
X70934973Y-78484357D01*
X70940637Y-78506966D01*
X70944056Y-78530021D01*
X70945200Y-78553300D01*
X70945200Y-79028300D01*
X70944056Y-79051579D01*
X70940637Y-79074634D01*
X70934973Y-79097243D01*
X70927121Y-79119187D01*
X70917156Y-79140257D01*
X70905174Y-79160248D01*
X70891290Y-79178968D01*
X70875638Y-79196238D01*
X70858368Y-79211890D01*
X70839648Y-79225774D01*
X70819657Y-79237756D01*
X70798587Y-79247721D01*
X70776643Y-79255573D01*
X70754034Y-79261237D01*
X70730979Y-79264656D01*
X70707700Y-79265800D01*
X70132700Y-79265800D01*
X70109421Y-79264656D01*
X70086366Y-79261237D01*
X70063757Y-79255573D01*
X70041813Y-79247721D01*
X70020743Y-79237756D01*
X70000752Y-79225774D01*
X69982032Y-79211890D01*
X69964762Y-79196238D01*
X69949110Y-79178968D01*
X69935226Y-79160248D01*
X69923244Y-79140257D01*
X69913279Y-79119187D01*
X69905427Y-79097243D01*
X69899763Y-79074634D01*
X69896344Y-79051579D01*
X69895200Y-79028300D01*
X69895200Y-78553300D01*
X69896344Y-78530021D01*
X69899763Y-78506966D01*
X69905427Y-78484357D01*
X69913279Y-78462413D01*
X69923244Y-78441343D01*
X69935226Y-78421352D01*
X69949110Y-78402632D01*
X69964762Y-78385362D01*
X69982032Y-78369710D01*
X70000752Y-78355826D01*
X70020743Y-78343844D01*
X70041813Y-78333879D01*
X70063757Y-78326027D01*
X70086366Y-78320363D01*
X70109421Y-78316944D01*
X70132700Y-78315800D01*
X70707700Y-78315800D01*
X70730979Y-78316944D01*
X70730979Y-78316944D01*
G37*
D13*
G04 #@! TD*
G04 #@! TO.P,C2,1*
G04 #@! TO.N,/5V0*
X70420200Y-78790800D03*
D12*
G04 #@! TO.N,GND*
G04 #@! TO.C,C2*
G36*
X68980979Y-78316944D02*
X69004034Y-78320363D01*
X69026643Y-78326027D01*
X69048587Y-78333879D01*
X69069657Y-78343844D01*
X69089648Y-78355826D01*
X69108368Y-78369710D01*
X69125638Y-78385362D01*
X69141290Y-78402632D01*
X69155174Y-78421352D01*
X69167156Y-78441343D01*
X69177121Y-78462413D01*
X69184973Y-78484357D01*
X69190637Y-78506966D01*
X69194056Y-78530021D01*
X69195200Y-78553300D01*
X69195200Y-79028300D01*
X69194056Y-79051579D01*
X69190637Y-79074634D01*
X69184973Y-79097243D01*
X69177121Y-79119187D01*
X69167156Y-79140257D01*
X69155174Y-79160248D01*
X69141290Y-79178968D01*
X69125638Y-79196238D01*
X69108368Y-79211890D01*
X69089648Y-79225774D01*
X69069657Y-79237756D01*
X69048587Y-79247721D01*
X69026643Y-79255573D01*
X69004034Y-79261237D01*
X68980979Y-79264656D01*
X68957700Y-79265800D01*
X68382700Y-79265800D01*
X68359421Y-79264656D01*
X68336366Y-79261237D01*
X68313757Y-79255573D01*
X68291813Y-79247721D01*
X68270743Y-79237756D01*
X68250752Y-79225774D01*
X68232032Y-79211890D01*
X68214762Y-79196238D01*
X68199110Y-79178968D01*
X68185226Y-79160248D01*
X68173244Y-79140257D01*
X68163279Y-79119187D01*
X68155427Y-79097243D01*
X68149763Y-79074634D01*
X68146344Y-79051579D01*
X68145200Y-79028300D01*
X68145200Y-78553300D01*
X68146344Y-78530021D01*
X68149763Y-78506966D01*
X68155427Y-78484357D01*
X68163279Y-78462413D01*
X68173244Y-78441343D01*
X68185226Y-78421352D01*
X68199110Y-78402632D01*
X68214762Y-78385362D01*
X68232032Y-78369710D01*
X68250752Y-78355826D01*
X68270743Y-78343844D01*
X68291813Y-78333879D01*
X68313757Y-78326027D01*
X68336366Y-78320363D01*
X68359421Y-78316944D01*
X68382700Y-78315800D01*
X68957700Y-78315800D01*
X68980979Y-78316944D01*
X68980979Y-78316944D01*
G37*
D13*
G04 #@! TD*
G04 #@! TO.P,C2,2*
G04 #@! TO.N,GND*
X68670200Y-78790800D03*
D12*
G04 #@! TO.N,/M_FILTERED_PWM*
G04 #@! TO.C,C3*
G36*
X76092979Y-81898344D02*
X76116034Y-81901763D01*
X76138643Y-81907427D01*
X76160587Y-81915279D01*
X76181657Y-81925244D01*
X76201648Y-81937226D01*
X76220368Y-81951110D01*
X76237638Y-81966762D01*
X76253290Y-81984032D01*
X76267174Y-82002752D01*
X76279156Y-82022743D01*
X76289121Y-82043813D01*
X76296973Y-82065757D01*
X76302637Y-82088366D01*
X76306056Y-82111421D01*
X76307200Y-82134700D01*
X76307200Y-82609700D01*
X76306056Y-82632979D01*
X76302637Y-82656034D01*
X76296973Y-82678643D01*
X76289121Y-82700587D01*
X76279156Y-82721657D01*
X76267174Y-82741648D01*
X76253290Y-82760368D01*
X76237638Y-82777638D01*
X76220368Y-82793290D01*
X76201648Y-82807174D01*
X76181657Y-82819156D01*
X76160587Y-82829121D01*
X76138643Y-82836973D01*
X76116034Y-82842637D01*
X76092979Y-82846056D01*
X76069700Y-82847200D01*
X75494700Y-82847200D01*
X75471421Y-82846056D01*
X75448366Y-82842637D01*
X75425757Y-82836973D01*
X75403813Y-82829121D01*
X75382743Y-82819156D01*
X75362752Y-82807174D01*
X75344032Y-82793290D01*
X75326762Y-82777638D01*
X75311110Y-82760368D01*
X75297226Y-82741648D01*
X75285244Y-82721657D01*
X75275279Y-82700587D01*
X75267427Y-82678643D01*
X75261763Y-82656034D01*
X75258344Y-82632979D01*
X75257200Y-82609700D01*
X75257200Y-82134700D01*
X75258344Y-82111421D01*
X75261763Y-82088366D01*
X75267427Y-82065757D01*
X75275279Y-82043813D01*
X75285244Y-82022743D01*
X75297226Y-82002752D01*
X75311110Y-81984032D01*
X75326762Y-81966762D01*
X75344032Y-81951110D01*
X75362752Y-81937226D01*
X75382743Y-81925244D01*
X75403813Y-81915279D01*
X75425757Y-81907427D01*
X75448366Y-81901763D01*
X75471421Y-81898344D01*
X75494700Y-81897200D01*
X76069700Y-81897200D01*
X76092979Y-81898344D01*
X76092979Y-81898344D01*
G37*
D13*
G04 #@! TD*
G04 #@! TO.P,C3,1*
G04 #@! TO.N,/M_FILTERED_PWM*
X75782200Y-82372200D03*
D12*
G04 #@! TO.N,GND*
G04 #@! TO.C,C3*
G36*
X77842979Y-81898344D02*
X77866034Y-81901763D01*
X77888643Y-81907427D01*
X77910587Y-81915279D01*
X77931657Y-81925244D01*
X77951648Y-81937226D01*
X77970368Y-81951110D01*
X77987638Y-81966762D01*
X78003290Y-81984032D01*
X78017174Y-82002752D01*
X78029156Y-82022743D01*
X78039121Y-82043813D01*
X78046973Y-82065757D01*
X78052637Y-82088366D01*
X78056056Y-82111421D01*
X78057200Y-82134700D01*
X78057200Y-82609700D01*
X78056056Y-82632979D01*
X78052637Y-82656034D01*
X78046973Y-82678643D01*
X78039121Y-82700587D01*
X78029156Y-82721657D01*
X78017174Y-82741648D01*
X78003290Y-82760368D01*
X77987638Y-82777638D01*
X77970368Y-82793290D01*
X77951648Y-82807174D01*
X77931657Y-82819156D01*
X77910587Y-82829121D01*
X77888643Y-82836973D01*
X77866034Y-82842637D01*
X77842979Y-82846056D01*
X77819700Y-82847200D01*
X77244700Y-82847200D01*
X77221421Y-82846056D01*
X77198366Y-82842637D01*
X77175757Y-82836973D01*
X77153813Y-82829121D01*
X77132743Y-82819156D01*
X77112752Y-82807174D01*
X77094032Y-82793290D01*
X77076762Y-82777638D01*
X77061110Y-82760368D01*
X77047226Y-82741648D01*
X77035244Y-82721657D01*
X77025279Y-82700587D01*
X77017427Y-82678643D01*
X77011763Y-82656034D01*
X77008344Y-82632979D01*
X77007200Y-82609700D01*
X77007200Y-82134700D01*
X77008344Y-82111421D01*
X77011763Y-82088366D01*
X77017427Y-82065757D01*
X77025279Y-82043813D01*
X77035244Y-82022743D01*
X77047226Y-82002752D01*
X77061110Y-81984032D01*
X77076762Y-81966762D01*
X77094032Y-81951110D01*
X77112752Y-81937226D01*
X77132743Y-81925244D01*
X77153813Y-81915279D01*
X77175757Y-81907427D01*
X77198366Y-81901763D01*
X77221421Y-81898344D01*
X77244700Y-81897200D01*
X77819700Y-81897200D01*
X77842979Y-81898344D01*
X77842979Y-81898344D01*
G37*
D13*
G04 #@! TD*
G04 #@! TO.P,C3,2*
G04 #@! TO.N,GND*
X77532200Y-82372200D03*
D14*
G04 #@! TO.P,D1,2*
G04 #@! TO.N,/MOTOR_GND*
X69570600Y-85748600D03*
G04 #@! TO.P,D1,1*
G04 #@! TO.N,/5V0*
X69570600Y-82348600D03*
G04 #@! TD*
D12*
G04 #@! TO.N,GND*
G04 #@! TO.C,D2*
G36*
X87238104Y-83388104D02*
X87262373Y-83391704D01*
X87286171Y-83397665D01*
X87309271Y-83405930D01*
X87331449Y-83416420D01*
X87352493Y-83429033D01*
X87372198Y-83443647D01*
X87390377Y-83460123D01*
X87406853Y-83478302D01*
X87421467Y-83498007D01*
X87434080Y-83519051D01*
X87444570Y-83541229D01*
X87452835Y-83564329D01*
X87458796Y-83588127D01*
X87462396Y-83612396D01*
X87463600Y-83636900D01*
X87463600Y-84561900D01*
X87462396Y-84586404D01*
X87458796Y-84610673D01*
X87452835Y-84634471D01*
X87444570Y-84657571D01*
X87434080Y-84679749D01*
X87421467Y-84700793D01*
X87406853Y-84720498D01*
X87390377Y-84738677D01*
X87372198Y-84755153D01*
X87352493Y-84769767D01*
X87331449Y-84782380D01*
X87309271Y-84792870D01*
X87286171Y-84801135D01*
X87262373Y-84807096D01*
X87238104Y-84810696D01*
X87213600Y-84811900D01*
X85963600Y-84811900D01*
X85939096Y-84810696D01*
X85914827Y-84807096D01*
X85891029Y-84801135D01*
X85867929Y-84792870D01*
X85845751Y-84782380D01*
X85824707Y-84769767D01*
X85805002Y-84755153D01*
X85786823Y-84738677D01*
X85770347Y-84720498D01*
X85755733Y-84700793D01*
X85743120Y-84679749D01*
X85732630Y-84657571D01*
X85724365Y-84634471D01*
X85718404Y-84610673D01*
X85714804Y-84586404D01*
X85713600Y-84561900D01*
X85713600Y-83636900D01*
X85714804Y-83612396D01*
X85718404Y-83588127D01*
X85724365Y-83564329D01*
X85732630Y-83541229D01*
X85743120Y-83519051D01*
X85755733Y-83498007D01*
X85770347Y-83478302D01*
X85786823Y-83460123D01*
X85805002Y-83443647D01*
X85824707Y-83429033D01*
X85845751Y-83416420D01*
X85867929Y-83405930D01*
X85891029Y-83397665D01*
X85914827Y-83391704D01*
X85939096Y-83388104D01*
X85963600Y-83386900D01*
X87213600Y-83386900D01*
X87238104Y-83388104D01*
X87238104Y-83388104D01*
G37*
D15*
G04 #@! TD*
G04 #@! TO.P,D2,1*
G04 #@! TO.N,GND*
X86588600Y-84099400D03*
D12*
G04 #@! TO.N,Net-(D2-Pad2)*
G04 #@! TO.C,D2*
G36*
X87238104Y-80413104D02*
X87262373Y-80416704D01*
X87286171Y-80422665D01*
X87309271Y-80430930D01*
X87331449Y-80441420D01*
X87352493Y-80454033D01*
X87372198Y-80468647D01*
X87390377Y-80485123D01*
X87406853Y-80503302D01*
X87421467Y-80523007D01*
X87434080Y-80544051D01*
X87444570Y-80566229D01*
X87452835Y-80589329D01*
X87458796Y-80613127D01*
X87462396Y-80637396D01*
X87463600Y-80661900D01*
X87463600Y-81586900D01*
X87462396Y-81611404D01*
X87458796Y-81635673D01*
X87452835Y-81659471D01*
X87444570Y-81682571D01*
X87434080Y-81704749D01*
X87421467Y-81725793D01*
X87406853Y-81745498D01*
X87390377Y-81763677D01*
X87372198Y-81780153D01*
X87352493Y-81794767D01*
X87331449Y-81807380D01*
X87309271Y-81817870D01*
X87286171Y-81826135D01*
X87262373Y-81832096D01*
X87238104Y-81835696D01*
X87213600Y-81836900D01*
X85963600Y-81836900D01*
X85939096Y-81835696D01*
X85914827Y-81832096D01*
X85891029Y-81826135D01*
X85867929Y-81817870D01*
X85845751Y-81807380D01*
X85824707Y-81794767D01*
X85805002Y-81780153D01*
X85786823Y-81763677D01*
X85770347Y-81745498D01*
X85755733Y-81725793D01*
X85743120Y-81704749D01*
X85732630Y-81682571D01*
X85724365Y-81659471D01*
X85718404Y-81635673D01*
X85714804Y-81611404D01*
X85713600Y-81586900D01*
X85713600Y-80661900D01*
X85714804Y-80637396D01*
X85718404Y-80613127D01*
X85724365Y-80589329D01*
X85732630Y-80566229D01*
X85743120Y-80544051D01*
X85755733Y-80523007D01*
X85770347Y-80503302D01*
X85786823Y-80485123D01*
X85805002Y-80468647D01*
X85824707Y-80454033D01*
X85845751Y-80441420D01*
X85867929Y-80430930D01*
X85891029Y-80422665D01*
X85914827Y-80416704D01*
X85939096Y-80413104D01*
X85963600Y-80411900D01*
X87213600Y-80411900D01*
X87238104Y-80413104D01*
X87238104Y-80413104D01*
G37*
D15*
G04 #@! TD*
G04 #@! TO.P,D2,2*
G04 #@! TO.N,Net-(D2-Pad2)*
X86588600Y-81124400D03*
D12*
G04 #@! TO.N,Net-(D3-Pad2)*
G04 #@! TO.C,D3*
G36*
X80913504Y-80467104D02*
X80937773Y-80470704D01*
X80961571Y-80476665D01*
X80984671Y-80484930D01*
X81006849Y-80495420D01*
X81027893Y-80508033D01*
X81047598Y-80522647D01*
X81065777Y-80539123D01*
X81082253Y-80557302D01*
X81096867Y-80577007D01*
X81109480Y-80598051D01*
X81119970Y-80620229D01*
X81128235Y-80643329D01*
X81134196Y-80667127D01*
X81137796Y-80691396D01*
X81139000Y-80715900D01*
X81139000Y-81640900D01*
X81137796Y-81665404D01*
X81134196Y-81689673D01*
X81128235Y-81713471D01*
X81119970Y-81736571D01*
X81109480Y-81758749D01*
X81096867Y-81779793D01*
X81082253Y-81799498D01*
X81065777Y-81817677D01*
X81047598Y-81834153D01*
X81027893Y-81848767D01*
X81006849Y-81861380D01*
X80984671Y-81871870D01*
X80961571Y-81880135D01*
X80937773Y-81886096D01*
X80913504Y-81889696D01*
X80889000Y-81890900D01*
X79639000Y-81890900D01*
X79614496Y-81889696D01*
X79590227Y-81886096D01*
X79566429Y-81880135D01*
X79543329Y-81871870D01*
X79521151Y-81861380D01*
X79500107Y-81848767D01*
X79480402Y-81834153D01*
X79462223Y-81817677D01*
X79445747Y-81799498D01*
X79431133Y-81779793D01*
X79418520Y-81758749D01*
X79408030Y-81736571D01*
X79399765Y-81713471D01*
X79393804Y-81689673D01*
X79390204Y-81665404D01*
X79389000Y-81640900D01*
X79389000Y-80715900D01*
X79390204Y-80691396D01*
X79393804Y-80667127D01*
X79399765Y-80643329D01*
X79408030Y-80620229D01*
X79418520Y-80598051D01*
X79431133Y-80577007D01*
X79445747Y-80557302D01*
X79462223Y-80539123D01*
X79480402Y-80522647D01*
X79500107Y-80508033D01*
X79521151Y-80495420D01*
X79543329Y-80484930D01*
X79566429Y-80476665D01*
X79590227Y-80470704D01*
X79614496Y-80467104D01*
X79639000Y-80465900D01*
X80889000Y-80465900D01*
X80913504Y-80467104D01*
X80913504Y-80467104D01*
G37*
D15*
G04 #@! TD*
G04 #@! TO.P,D3,2*
G04 #@! TO.N,Net-(D3-Pad2)*
X80264000Y-81178400D03*
D12*
G04 #@! TO.N,GND*
G04 #@! TO.C,D3*
G36*
X80913504Y-83442104D02*
X80937773Y-83445704D01*
X80961571Y-83451665D01*
X80984671Y-83459930D01*
X81006849Y-83470420D01*
X81027893Y-83483033D01*
X81047598Y-83497647D01*
X81065777Y-83514123D01*
X81082253Y-83532302D01*
X81096867Y-83552007D01*
X81109480Y-83573051D01*
X81119970Y-83595229D01*
X81128235Y-83618329D01*
X81134196Y-83642127D01*
X81137796Y-83666396D01*
X81139000Y-83690900D01*
X81139000Y-84615900D01*
X81137796Y-84640404D01*
X81134196Y-84664673D01*
X81128235Y-84688471D01*
X81119970Y-84711571D01*
X81109480Y-84733749D01*
X81096867Y-84754793D01*
X81082253Y-84774498D01*
X81065777Y-84792677D01*
X81047598Y-84809153D01*
X81027893Y-84823767D01*
X81006849Y-84836380D01*
X80984671Y-84846870D01*
X80961571Y-84855135D01*
X80937773Y-84861096D01*
X80913504Y-84864696D01*
X80889000Y-84865900D01*
X79639000Y-84865900D01*
X79614496Y-84864696D01*
X79590227Y-84861096D01*
X79566429Y-84855135D01*
X79543329Y-84846870D01*
X79521151Y-84836380D01*
X79500107Y-84823767D01*
X79480402Y-84809153D01*
X79462223Y-84792677D01*
X79445747Y-84774498D01*
X79431133Y-84754793D01*
X79418520Y-84733749D01*
X79408030Y-84711571D01*
X79399765Y-84688471D01*
X79393804Y-84664673D01*
X79390204Y-84640404D01*
X79389000Y-84615900D01*
X79389000Y-83690900D01*
X79390204Y-83666396D01*
X79393804Y-83642127D01*
X79399765Y-83618329D01*
X79408030Y-83595229D01*
X79418520Y-83573051D01*
X79431133Y-83552007D01*
X79445747Y-83532302D01*
X79462223Y-83514123D01*
X79480402Y-83497647D01*
X79500107Y-83483033D01*
X79521151Y-83470420D01*
X79543329Y-83459930D01*
X79566429Y-83451665D01*
X79590227Y-83445704D01*
X79614496Y-83442104D01*
X79639000Y-83440900D01*
X80889000Y-83440900D01*
X80913504Y-83442104D01*
X80913504Y-83442104D01*
G37*
D15*
G04 #@! TD*
G04 #@! TO.P,D3,1*
G04 #@! TO.N,GND*
X80264000Y-84153400D03*
D16*
G04 #@! TO.P,J1,4*
G04 #@! TO.N,/MOTOR_GND*
X65913000Y-88239600D03*
G04 #@! TO.P,J1,3*
G04 #@! TO.N,/5V0*
X65913000Y-85699600D03*
G04 #@! TO.P,J1,2*
G04 #@! TO.N,GND*
X65913000Y-83159600D03*
D17*
G04 #@! TO.P,J1,1*
G04 #@! TO.N,/VIN*
X65913000Y-80619600D03*
G04 #@! TD*
D16*
G04 #@! TO.P,J2,8*
G04 #@! TO.N,/TX*
X90093800Y-82854800D03*
G04 #@! TO.P,J2,7*
G04 #@! TO.N,/S_TX*
X90093800Y-80314800D03*
G04 #@! TO.P,J2,6*
G04 #@! TO.N,/RX*
X92633800Y-82854800D03*
G04 #@! TO.P,J2,5*
G04 #@! TO.N,/S_RX*
X92633800Y-80314800D03*
G04 #@! TO.P,J2,4*
G04 #@! TO.N,/RX*
X95173800Y-82854800D03*
G04 #@! TO.P,J2,3*
G04 #@! TO.N,/H_RX*
X95173800Y-80314800D03*
G04 #@! TO.P,J2,2*
G04 #@! TO.N,/TX*
X97713800Y-82854800D03*
D17*
G04 #@! TO.P,J2,1*
G04 #@! TO.N,/H_TX*
X97713800Y-80314800D03*
G04 #@! TD*
G04 #@! TO.P,J4,1*
G04 #@! TO.N,/LR_LEVEL*
X69723000Y-88849200D03*
D16*
G04 #@! TO.P,J4,2*
G04 #@! TO.N,GND*
X72263000Y-88849200D03*
G04 #@! TO.P,J4,3*
G04 #@! TO.N,/SR_LEVEL*
X74803000Y-88849200D03*
G04 #@! TO.P,J4,4*
G04 #@! TO.N,GND*
X77343000Y-88849200D03*
G04 #@! TD*
D18*
G04 #@! TO.P,Q1,1*
G04 #@! TO.N,/M_FILTERED_PWM*
X74152000Y-84084200D03*
G04 #@! TO.P,Q1,2*
G04 #@! TO.N,GND*
X74152000Y-82184200D03*
G04 #@! TO.P,Q1,3*
G04 #@! TO.N,/MOTOR_GND*
X72152000Y-83134200D03*
G04 #@! TD*
D12*
G04 #@! TO.N,/M_FILTERED_PWM*
G04 #@! TO.C,R1*
G36*
X76092979Y-83676344D02*
X76116034Y-83679763D01*
X76138643Y-83685427D01*
X76160587Y-83693279D01*
X76181657Y-83703244D01*
X76201648Y-83715226D01*
X76220368Y-83729110D01*
X76237638Y-83744762D01*
X76253290Y-83762032D01*
X76267174Y-83780752D01*
X76279156Y-83800743D01*
X76289121Y-83821813D01*
X76296973Y-83843757D01*
X76302637Y-83866366D01*
X76306056Y-83889421D01*
X76307200Y-83912700D01*
X76307200Y-84387700D01*
X76306056Y-84410979D01*
X76302637Y-84434034D01*
X76296973Y-84456643D01*
X76289121Y-84478587D01*
X76279156Y-84499657D01*
X76267174Y-84519648D01*
X76253290Y-84538368D01*
X76237638Y-84555638D01*
X76220368Y-84571290D01*
X76201648Y-84585174D01*
X76181657Y-84597156D01*
X76160587Y-84607121D01*
X76138643Y-84614973D01*
X76116034Y-84620637D01*
X76092979Y-84624056D01*
X76069700Y-84625200D01*
X75494700Y-84625200D01*
X75471421Y-84624056D01*
X75448366Y-84620637D01*
X75425757Y-84614973D01*
X75403813Y-84607121D01*
X75382743Y-84597156D01*
X75362752Y-84585174D01*
X75344032Y-84571290D01*
X75326762Y-84555638D01*
X75311110Y-84538368D01*
X75297226Y-84519648D01*
X75285244Y-84499657D01*
X75275279Y-84478587D01*
X75267427Y-84456643D01*
X75261763Y-84434034D01*
X75258344Y-84410979D01*
X75257200Y-84387700D01*
X75257200Y-83912700D01*
X75258344Y-83889421D01*
X75261763Y-83866366D01*
X75267427Y-83843757D01*
X75275279Y-83821813D01*
X75285244Y-83800743D01*
X75297226Y-83780752D01*
X75311110Y-83762032D01*
X75326762Y-83744762D01*
X75344032Y-83729110D01*
X75362752Y-83715226D01*
X75382743Y-83703244D01*
X75403813Y-83693279D01*
X75425757Y-83685427D01*
X75448366Y-83679763D01*
X75471421Y-83676344D01*
X75494700Y-83675200D01*
X76069700Y-83675200D01*
X76092979Y-83676344D01*
X76092979Y-83676344D01*
G37*
D13*
G04 #@! TD*
G04 #@! TO.P,R1,2*
G04 #@! TO.N,/M_FILTERED_PWM*
X75782200Y-84150200D03*
D12*
G04 #@! TO.N,GND*
G04 #@! TO.C,R1*
G36*
X77842979Y-83676344D02*
X77866034Y-83679763D01*
X77888643Y-83685427D01*
X77910587Y-83693279D01*
X77931657Y-83703244D01*
X77951648Y-83715226D01*
X77970368Y-83729110D01*
X77987638Y-83744762D01*
X78003290Y-83762032D01*
X78017174Y-83780752D01*
X78029156Y-83800743D01*
X78039121Y-83821813D01*
X78046973Y-83843757D01*
X78052637Y-83866366D01*
X78056056Y-83889421D01*
X78057200Y-83912700D01*
X78057200Y-84387700D01*
X78056056Y-84410979D01*
X78052637Y-84434034D01*
X78046973Y-84456643D01*
X78039121Y-84478587D01*
X78029156Y-84499657D01*
X78017174Y-84519648D01*
X78003290Y-84538368D01*
X77987638Y-84555638D01*
X77970368Y-84571290D01*
X77951648Y-84585174D01*
X77931657Y-84597156D01*
X77910587Y-84607121D01*
X77888643Y-84614973D01*
X77866034Y-84620637D01*
X77842979Y-84624056D01*
X77819700Y-84625200D01*
X77244700Y-84625200D01*
X77221421Y-84624056D01*
X77198366Y-84620637D01*
X77175757Y-84614973D01*
X77153813Y-84607121D01*
X77132743Y-84597156D01*
X77112752Y-84585174D01*
X77094032Y-84571290D01*
X77076762Y-84555638D01*
X77061110Y-84538368D01*
X77047226Y-84519648D01*
X77035244Y-84499657D01*
X77025279Y-84478587D01*
X77017427Y-84456643D01*
X77011763Y-84434034D01*
X77008344Y-84410979D01*
X77007200Y-84387700D01*
X77007200Y-83912700D01*
X77008344Y-83889421D01*
X77011763Y-83866366D01*
X77017427Y-83843757D01*
X77025279Y-83821813D01*
X77035244Y-83800743D01*
X77047226Y-83780752D01*
X77061110Y-83762032D01*
X77076762Y-83744762D01*
X77094032Y-83729110D01*
X77112752Y-83715226D01*
X77132743Y-83703244D01*
X77153813Y-83693279D01*
X77175757Y-83685427D01*
X77198366Y-83679763D01*
X77221421Y-83676344D01*
X77244700Y-83675200D01*
X77819700Y-83675200D01*
X77842979Y-83676344D01*
X77842979Y-83676344D01*
G37*
D13*
G04 #@! TD*
G04 #@! TO.P,R1,1*
G04 #@! TO.N,GND*
X77532200Y-84150200D03*
D12*
G04 #@! TO.N,/YELLOW_LED*
G04 #@! TO.C,R2*
G36*
X85363979Y-78621744D02*
X85387034Y-78625163D01*
X85409643Y-78630827D01*
X85431587Y-78638679D01*
X85452657Y-78648644D01*
X85472648Y-78660626D01*
X85491368Y-78674510D01*
X85508638Y-78690162D01*
X85524290Y-78707432D01*
X85538174Y-78726152D01*
X85550156Y-78746143D01*
X85560121Y-78767213D01*
X85567973Y-78789157D01*
X85573637Y-78811766D01*
X85577056Y-78834821D01*
X85578200Y-78858100D01*
X85578200Y-79333100D01*
X85577056Y-79356379D01*
X85573637Y-79379434D01*
X85567973Y-79402043D01*
X85560121Y-79423987D01*
X85550156Y-79445057D01*
X85538174Y-79465048D01*
X85524290Y-79483768D01*
X85508638Y-79501038D01*
X85491368Y-79516690D01*
X85472648Y-79530574D01*
X85452657Y-79542556D01*
X85431587Y-79552521D01*
X85409643Y-79560373D01*
X85387034Y-79566037D01*
X85363979Y-79569456D01*
X85340700Y-79570600D01*
X84765700Y-79570600D01*
X84742421Y-79569456D01*
X84719366Y-79566037D01*
X84696757Y-79560373D01*
X84674813Y-79552521D01*
X84653743Y-79542556D01*
X84633752Y-79530574D01*
X84615032Y-79516690D01*
X84597762Y-79501038D01*
X84582110Y-79483768D01*
X84568226Y-79465048D01*
X84556244Y-79445057D01*
X84546279Y-79423987D01*
X84538427Y-79402043D01*
X84532763Y-79379434D01*
X84529344Y-79356379D01*
X84528200Y-79333100D01*
X84528200Y-78858100D01*
X84529344Y-78834821D01*
X84532763Y-78811766D01*
X84538427Y-78789157D01*
X84546279Y-78767213D01*
X84556244Y-78746143D01*
X84568226Y-78726152D01*
X84582110Y-78707432D01*
X84597762Y-78690162D01*
X84615032Y-78674510D01*
X84633752Y-78660626D01*
X84653743Y-78648644D01*
X84674813Y-78638679D01*
X84696757Y-78630827D01*
X84719366Y-78625163D01*
X84742421Y-78621744D01*
X84765700Y-78620600D01*
X85340700Y-78620600D01*
X85363979Y-78621744D01*
X85363979Y-78621744D01*
G37*
D13*
G04 #@! TD*
G04 #@! TO.P,R2,2*
G04 #@! TO.N,/YELLOW_LED*
X85053200Y-79095600D03*
D12*
G04 #@! TO.N,Net-(D2-Pad2)*
G04 #@! TO.C,R2*
G36*
X87113979Y-78621744D02*
X87137034Y-78625163D01*
X87159643Y-78630827D01*
X87181587Y-78638679D01*
X87202657Y-78648644D01*
X87222648Y-78660626D01*
X87241368Y-78674510D01*
X87258638Y-78690162D01*
X87274290Y-78707432D01*
X87288174Y-78726152D01*
X87300156Y-78746143D01*
X87310121Y-78767213D01*
X87317973Y-78789157D01*
X87323637Y-78811766D01*
X87327056Y-78834821D01*
X87328200Y-78858100D01*
X87328200Y-79333100D01*
X87327056Y-79356379D01*
X87323637Y-79379434D01*
X87317973Y-79402043D01*
X87310121Y-79423987D01*
X87300156Y-79445057D01*
X87288174Y-79465048D01*
X87274290Y-79483768D01*
X87258638Y-79501038D01*
X87241368Y-79516690D01*
X87222648Y-79530574D01*
X87202657Y-79542556D01*
X87181587Y-79552521D01*
X87159643Y-79560373D01*
X87137034Y-79566037D01*
X87113979Y-79569456D01*
X87090700Y-79570600D01*
X86515700Y-79570600D01*
X86492421Y-79569456D01*
X86469366Y-79566037D01*
X86446757Y-79560373D01*
X86424813Y-79552521D01*
X86403743Y-79542556D01*
X86383752Y-79530574D01*
X86365032Y-79516690D01*
X86347762Y-79501038D01*
X86332110Y-79483768D01*
X86318226Y-79465048D01*
X86306244Y-79445057D01*
X86296279Y-79423987D01*
X86288427Y-79402043D01*
X86282763Y-79379434D01*
X86279344Y-79356379D01*
X86278200Y-79333100D01*
X86278200Y-78858100D01*
X86279344Y-78834821D01*
X86282763Y-78811766D01*
X86288427Y-78789157D01*
X86296279Y-78767213D01*
X86306244Y-78746143D01*
X86318226Y-78726152D01*
X86332110Y-78707432D01*
X86347762Y-78690162D01*
X86365032Y-78674510D01*
X86383752Y-78660626D01*
X86403743Y-78648644D01*
X86424813Y-78638679D01*
X86446757Y-78630827D01*
X86469366Y-78625163D01*
X86492421Y-78621744D01*
X86515700Y-78620600D01*
X87090700Y-78620600D01*
X87113979Y-78621744D01*
X87113979Y-78621744D01*
G37*
D13*
G04 #@! TD*
G04 #@! TO.P,R2,1*
G04 #@! TO.N,Net-(D2-Pad2)*
X86803200Y-79095600D03*
D12*
G04 #@! TO.N,Net-(A1-Pad12)*
G04 #@! TO.C,R3*
G36*
X76003579Y-78458744D02*
X76026634Y-78462163D01*
X76049243Y-78467827D01*
X76071187Y-78475679D01*
X76092257Y-78485644D01*
X76112248Y-78497626D01*
X76130968Y-78511510D01*
X76148238Y-78527162D01*
X76163890Y-78544432D01*
X76177774Y-78563152D01*
X76189756Y-78583143D01*
X76199721Y-78604213D01*
X76207573Y-78626157D01*
X76213237Y-78648766D01*
X76216656Y-78671821D01*
X76217800Y-78695100D01*
X76217800Y-79270100D01*
X76216656Y-79293379D01*
X76213237Y-79316434D01*
X76207573Y-79339043D01*
X76199721Y-79360987D01*
X76189756Y-79382057D01*
X76177774Y-79402048D01*
X76163890Y-79420768D01*
X76148238Y-79438038D01*
X76130968Y-79453690D01*
X76112248Y-79467574D01*
X76092257Y-79479556D01*
X76071187Y-79489521D01*
X76049243Y-79497373D01*
X76026634Y-79503037D01*
X76003579Y-79506456D01*
X75980300Y-79507600D01*
X75505300Y-79507600D01*
X75482021Y-79506456D01*
X75458966Y-79503037D01*
X75436357Y-79497373D01*
X75414413Y-79489521D01*
X75393343Y-79479556D01*
X75373352Y-79467574D01*
X75354632Y-79453690D01*
X75337362Y-79438038D01*
X75321710Y-79420768D01*
X75307826Y-79402048D01*
X75295844Y-79382057D01*
X75285879Y-79360987D01*
X75278027Y-79339043D01*
X75272363Y-79316434D01*
X75268944Y-79293379D01*
X75267800Y-79270100D01*
X75267800Y-78695100D01*
X75268944Y-78671821D01*
X75272363Y-78648766D01*
X75278027Y-78626157D01*
X75285879Y-78604213D01*
X75295844Y-78583143D01*
X75307826Y-78563152D01*
X75321710Y-78544432D01*
X75337362Y-78527162D01*
X75354632Y-78511510D01*
X75373352Y-78497626D01*
X75393343Y-78485644D01*
X75414413Y-78475679D01*
X75436357Y-78467827D01*
X75458966Y-78462163D01*
X75482021Y-78458744D01*
X75505300Y-78457600D01*
X75980300Y-78457600D01*
X76003579Y-78458744D01*
X76003579Y-78458744D01*
G37*
D13*
G04 #@! TD*
G04 #@! TO.P,R3,1*
G04 #@! TO.N,Net-(A1-Pad12)*
X75742800Y-78982600D03*
D12*
G04 #@! TO.N,/M_FILTERED_PWM*
G04 #@! TO.C,R3*
G36*
X76003579Y-80208744D02*
X76026634Y-80212163D01*
X76049243Y-80217827D01*
X76071187Y-80225679D01*
X76092257Y-80235644D01*
X76112248Y-80247626D01*
X76130968Y-80261510D01*
X76148238Y-80277162D01*
X76163890Y-80294432D01*
X76177774Y-80313152D01*
X76189756Y-80333143D01*
X76199721Y-80354213D01*
X76207573Y-80376157D01*
X76213237Y-80398766D01*
X76216656Y-80421821D01*
X76217800Y-80445100D01*
X76217800Y-81020100D01*
X76216656Y-81043379D01*
X76213237Y-81066434D01*
X76207573Y-81089043D01*
X76199721Y-81110987D01*
X76189756Y-81132057D01*
X76177774Y-81152048D01*
X76163890Y-81170768D01*
X76148238Y-81188038D01*
X76130968Y-81203690D01*
X76112248Y-81217574D01*
X76092257Y-81229556D01*
X76071187Y-81239521D01*
X76049243Y-81247373D01*
X76026634Y-81253037D01*
X76003579Y-81256456D01*
X75980300Y-81257600D01*
X75505300Y-81257600D01*
X75482021Y-81256456D01*
X75458966Y-81253037D01*
X75436357Y-81247373D01*
X75414413Y-81239521D01*
X75393343Y-81229556D01*
X75373352Y-81217574D01*
X75354632Y-81203690D01*
X75337362Y-81188038D01*
X75321710Y-81170768D01*
X75307826Y-81152048D01*
X75295844Y-81132057D01*
X75285879Y-81110987D01*
X75278027Y-81089043D01*
X75272363Y-81066434D01*
X75268944Y-81043379D01*
X75267800Y-81020100D01*
X75267800Y-80445100D01*
X75268944Y-80421821D01*
X75272363Y-80398766D01*
X75278027Y-80376157D01*
X75285879Y-80354213D01*
X75295844Y-80333143D01*
X75307826Y-80313152D01*
X75321710Y-80294432D01*
X75337362Y-80277162D01*
X75354632Y-80261510D01*
X75373352Y-80247626D01*
X75393343Y-80235644D01*
X75414413Y-80225679D01*
X75436357Y-80217827D01*
X75458966Y-80212163D01*
X75482021Y-80208744D01*
X75505300Y-80207600D01*
X75980300Y-80207600D01*
X76003579Y-80208744D01*
X76003579Y-80208744D01*
G37*
D13*
G04 #@! TD*
G04 #@! TO.P,R3,2*
G04 #@! TO.N,/M_FILTERED_PWM*
X75742800Y-80732600D03*
D12*
G04 #@! TO.N,Net-(D3-Pad2)*
G04 #@! TO.C,R4*
G36*
X79408979Y-78647144D02*
X79432034Y-78650563D01*
X79454643Y-78656227D01*
X79476587Y-78664079D01*
X79497657Y-78674044D01*
X79517648Y-78686026D01*
X79536368Y-78699910D01*
X79553638Y-78715562D01*
X79569290Y-78732832D01*
X79583174Y-78751552D01*
X79595156Y-78771543D01*
X79605121Y-78792613D01*
X79612973Y-78814557D01*
X79618637Y-78837166D01*
X79622056Y-78860221D01*
X79623200Y-78883500D01*
X79623200Y-79358500D01*
X79622056Y-79381779D01*
X79618637Y-79404834D01*
X79612973Y-79427443D01*
X79605121Y-79449387D01*
X79595156Y-79470457D01*
X79583174Y-79490448D01*
X79569290Y-79509168D01*
X79553638Y-79526438D01*
X79536368Y-79542090D01*
X79517648Y-79555974D01*
X79497657Y-79567956D01*
X79476587Y-79577921D01*
X79454643Y-79585773D01*
X79432034Y-79591437D01*
X79408979Y-79594856D01*
X79385700Y-79596000D01*
X78810700Y-79596000D01*
X78787421Y-79594856D01*
X78764366Y-79591437D01*
X78741757Y-79585773D01*
X78719813Y-79577921D01*
X78698743Y-79567956D01*
X78678752Y-79555974D01*
X78660032Y-79542090D01*
X78642762Y-79526438D01*
X78627110Y-79509168D01*
X78613226Y-79490448D01*
X78601244Y-79470457D01*
X78591279Y-79449387D01*
X78583427Y-79427443D01*
X78577763Y-79404834D01*
X78574344Y-79381779D01*
X78573200Y-79358500D01*
X78573200Y-78883500D01*
X78574344Y-78860221D01*
X78577763Y-78837166D01*
X78583427Y-78814557D01*
X78591279Y-78792613D01*
X78601244Y-78771543D01*
X78613226Y-78751552D01*
X78627110Y-78732832D01*
X78642762Y-78715562D01*
X78660032Y-78699910D01*
X78678752Y-78686026D01*
X78698743Y-78674044D01*
X78719813Y-78664079D01*
X78741757Y-78656227D01*
X78764366Y-78650563D01*
X78787421Y-78647144D01*
X78810700Y-78646000D01*
X79385700Y-78646000D01*
X79408979Y-78647144D01*
X79408979Y-78647144D01*
G37*
D13*
G04 #@! TD*
G04 #@! TO.P,R4,1*
G04 #@! TO.N,Net-(D3-Pad2)*
X79098200Y-79121000D03*
D12*
G04 #@! TO.N,/RED_LED*
G04 #@! TO.C,R4*
G36*
X81158979Y-78647144D02*
X81182034Y-78650563D01*
X81204643Y-78656227D01*
X81226587Y-78664079D01*
X81247657Y-78674044D01*
X81267648Y-78686026D01*
X81286368Y-78699910D01*
X81303638Y-78715562D01*
X81319290Y-78732832D01*
X81333174Y-78751552D01*
X81345156Y-78771543D01*
X81355121Y-78792613D01*
X81362973Y-78814557D01*
X81368637Y-78837166D01*
X81372056Y-78860221D01*
X81373200Y-78883500D01*
X81373200Y-79358500D01*
X81372056Y-79381779D01*
X81368637Y-79404834D01*
X81362973Y-79427443D01*
X81355121Y-79449387D01*
X81345156Y-79470457D01*
X81333174Y-79490448D01*
X81319290Y-79509168D01*
X81303638Y-79526438D01*
X81286368Y-79542090D01*
X81267648Y-79555974D01*
X81247657Y-79567956D01*
X81226587Y-79577921D01*
X81204643Y-79585773D01*
X81182034Y-79591437D01*
X81158979Y-79594856D01*
X81135700Y-79596000D01*
X80560700Y-79596000D01*
X80537421Y-79594856D01*
X80514366Y-79591437D01*
X80491757Y-79585773D01*
X80469813Y-79577921D01*
X80448743Y-79567956D01*
X80428752Y-79555974D01*
X80410032Y-79542090D01*
X80392762Y-79526438D01*
X80377110Y-79509168D01*
X80363226Y-79490448D01*
X80351244Y-79470457D01*
X80341279Y-79449387D01*
X80333427Y-79427443D01*
X80327763Y-79404834D01*
X80324344Y-79381779D01*
X80323200Y-79358500D01*
X80323200Y-78883500D01*
X80324344Y-78860221D01*
X80327763Y-78837166D01*
X80333427Y-78814557D01*
X80341279Y-78792613D01*
X80351244Y-78771543D01*
X80363226Y-78751552D01*
X80377110Y-78732832D01*
X80392762Y-78715562D01*
X80410032Y-78699910D01*
X80428752Y-78686026D01*
X80448743Y-78674044D01*
X80469813Y-78664079D01*
X80491757Y-78656227D01*
X80514366Y-78650563D01*
X80537421Y-78647144D01*
X80560700Y-78646000D01*
X81135700Y-78646000D01*
X81158979Y-78647144D01*
X81158979Y-78647144D01*
G37*
D13*
G04 #@! TD*
G04 #@! TO.P,R4,2*
G04 #@! TO.N,/RED_LED*
X80848200Y-79121000D03*
D12*
G04 #@! TO.N,/LR_LEVEL*
G04 #@! TO.C,R5*
G36*
X72613179Y-85657544D02*
X72636234Y-85660963D01*
X72658843Y-85666627D01*
X72680787Y-85674479D01*
X72701857Y-85684444D01*
X72721848Y-85696426D01*
X72740568Y-85710310D01*
X72757838Y-85725962D01*
X72773490Y-85743232D01*
X72787374Y-85761952D01*
X72799356Y-85781943D01*
X72809321Y-85803013D01*
X72817173Y-85824957D01*
X72822837Y-85847566D01*
X72826256Y-85870621D01*
X72827400Y-85893900D01*
X72827400Y-86368900D01*
X72826256Y-86392179D01*
X72822837Y-86415234D01*
X72817173Y-86437843D01*
X72809321Y-86459787D01*
X72799356Y-86480857D01*
X72787374Y-86500848D01*
X72773490Y-86519568D01*
X72757838Y-86536838D01*
X72740568Y-86552490D01*
X72721848Y-86566374D01*
X72701857Y-86578356D01*
X72680787Y-86588321D01*
X72658843Y-86596173D01*
X72636234Y-86601837D01*
X72613179Y-86605256D01*
X72589900Y-86606400D01*
X72014900Y-86606400D01*
X71991621Y-86605256D01*
X71968566Y-86601837D01*
X71945957Y-86596173D01*
X71924013Y-86588321D01*
X71902943Y-86578356D01*
X71882952Y-86566374D01*
X71864232Y-86552490D01*
X71846962Y-86536838D01*
X71831310Y-86519568D01*
X71817426Y-86500848D01*
X71805444Y-86480857D01*
X71795479Y-86459787D01*
X71787627Y-86437843D01*
X71781963Y-86415234D01*
X71778544Y-86392179D01*
X71777400Y-86368900D01*
X71777400Y-85893900D01*
X71778544Y-85870621D01*
X71781963Y-85847566D01*
X71787627Y-85824957D01*
X71795479Y-85803013D01*
X71805444Y-85781943D01*
X71817426Y-85761952D01*
X71831310Y-85743232D01*
X71846962Y-85725962D01*
X71864232Y-85710310D01*
X71882952Y-85696426D01*
X71902943Y-85684444D01*
X71924013Y-85674479D01*
X71945957Y-85666627D01*
X71968566Y-85660963D01*
X71991621Y-85657544D01*
X72014900Y-85656400D01*
X72589900Y-85656400D01*
X72613179Y-85657544D01*
X72613179Y-85657544D01*
G37*
D13*
G04 #@! TD*
G04 #@! TO.P,R5,1*
G04 #@! TO.N,/LR_LEVEL*
X72302400Y-86131400D03*
D12*
G04 #@! TO.N,/5V0*
G04 #@! TO.C,R5*
G36*
X74363179Y-85657544D02*
X74386234Y-85660963D01*
X74408843Y-85666627D01*
X74430787Y-85674479D01*
X74451857Y-85684444D01*
X74471848Y-85696426D01*
X74490568Y-85710310D01*
X74507838Y-85725962D01*
X74523490Y-85743232D01*
X74537374Y-85761952D01*
X74549356Y-85781943D01*
X74559321Y-85803013D01*
X74567173Y-85824957D01*
X74572837Y-85847566D01*
X74576256Y-85870621D01*
X74577400Y-85893900D01*
X74577400Y-86368900D01*
X74576256Y-86392179D01*
X74572837Y-86415234D01*
X74567173Y-86437843D01*
X74559321Y-86459787D01*
X74549356Y-86480857D01*
X74537374Y-86500848D01*
X74523490Y-86519568D01*
X74507838Y-86536838D01*
X74490568Y-86552490D01*
X74471848Y-86566374D01*
X74451857Y-86578356D01*
X74430787Y-86588321D01*
X74408843Y-86596173D01*
X74386234Y-86601837D01*
X74363179Y-86605256D01*
X74339900Y-86606400D01*
X73764900Y-86606400D01*
X73741621Y-86605256D01*
X73718566Y-86601837D01*
X73695957Y-86596173D01*
X73674013Y-86588321D01*
X73652943Y-86578356D01*
X73632952Y-86566374D01*
X73614232Y-86552490D01*
X73596962Y-86536838D01*
X73581310Y-86519568D01*
X73567426Y-86500848D01*
X73555444Y-86480857D01*
X73545479Y-86459787D01*
X73537627Y-86437843D01*
X73531963Y-86415234D01*
X73528544Y-86392179D01*
X73527400Y-86368900D01*
X73527400Y-85893900D01*
X73528544Y-85870621D01*
X73531963Y-85847566D01*
X73537627Y-85824957D01*
X73545479Y-85803013D01*
X73555444Y-85781943D01*
X73567426Y-85761952D01*
X73581310Y-85743232D01*
X73596962Y-85725962D01*
X73614232Y-85710310D01*
X73632952Y-85696426D01*
X73652943Y-85684444D01*
X73674013Y-85674479D01*
X73695957Y-85666627D01*
X73718566Y-85660963D01*
X73741621Y-85657544D01*
X73764900Y-85656400D01*
X74339900Y-85656400D01*
X74363179Y-85657544D01*
X74363179Y-85657544D01*
G37*
D13*
G04 #@! TD*
G04 #@! TO.P,R5,2*
G04 #@! TO.N,/5V0*
X74052400Y-86131400D03*
D12*
G04 #@! TO.N,/5V0*
G04 #@! TO.C,R6*
G36*
X78074179Y-85657544D02*
X78097234Y-85660963D01*
X78119843Y-85666627D01*
X78141787Y-85674479D01*
X78162857Y-85684444D01*
X78182848Y-85696426D01*
X78201568Y-85710310D01*
X78218838Y-85725962D01*
X78234490Y-85743232D01*
X78248374Y-85761952D01*
X78260356Y-85781943D01*
X78270321Y-85803013D01*
X78278173Y-85824957D01*
X78283837Y-85847566D01*
X78287256Y-85870621D01*
X78288400Y-85893900D01*
X78288400Y-86368900D01*
X78287256Y-86392179D01*
X78283837Y-86415234D01*
X78278173Y-86437843D01*
X78270321Y-86459787D01*
X78260356Y-86480857D01*
X78248374Y-86500848D01*
X78234490Y-86519568D01*
X78218838Y-86536838D01*
X78201568Y-86552490D01*
X78182848Y-86566374D01*
X78162857Y-86578356D01*
X78141787Y-86588321D01*
X78119843Y-86596173D01*
X78097234Y-86601837D01*
X78074179Y-86605256D01*
X78050900Y-86606400D01*
X77475900Y-86606400D01*
X77452621Y-86605256D01*
X77429566Y-86601837D01*
X77406957Y-86596173D01*
X77385013Y-86588321D01*
X77363943Y-86578356D01*
X77343952Y-86566374D01*
X77325232Y-86552490D01*
X77307962Y-86536838D01*
X77292310Y-86519568D01*
X77278426Y-86500848D01*
X77266444Y-86480857D01*
X77256479Y-86459787D01*
X77248627Y-86437843D01*
X77242963Y-86415234D01*
X77239544Y-86392179D01*
X77238400Y-86368900D01*
X77238400Y-85893900D01*
X77239544Y-85870621D01*
X77242963Y-85847566D01*
X77248627Y-85824957D01*
X77256479Y-85803013D01*
X77266444Y-85781943D01*
X77278426Y-85761952D01*
X77292310Y-85743232D01*
X77307962Y-85725962D01*
X77325232Y-85710310D01*
X77343952Y-85696426D01*
X77363943Y-85684444D01*
X77385013Y-85674479D01*
X77406957Y-85666627D01*
X77429566Y-85660963D01*
X77452621Y-85657544D01*
X77475900Y-85656400D01*
X78050900Y-85656400D01*
X78074179Y-85657544D01*
X78074179Y-85657544D01*
G37*
D13*
G04 #@! TD*
G04 #@! TO.P,R6,2*
G04 #@! TO.N,/5V0*
X77763400Y-86131400D03*
D12*
G04 #@! TO.N,/SR_LEVEL*
G04 #@! TO.C,R6*
G36*
X79824179Y-85657544D02*
X79847234Y-85660963D01*
X79869843Y-85666627D01*
X79891787Y-85674479D01*
X79912857Y-85684444D01*
X79932848Y-85696426D01*
X79951568Y-85710310D01*
X79968838Y-85725962D01*
X79984490Y-85743232D01*
X79998374Y-85761952D01*
X80010356Y-85781943D01*
X80020321Y-85803013D01*
X80028173Y-85824957D01*
X80033837Y-85847566D01*
X80037256Y-85870621D01*
X80038400Y-85893900D01*
X80038400Y-86368900D01*
X80037256Y-86392179D01*
X80033837Y-86415234D01*
X80028173Y-86437843D01*
X80020321Y-86459787D01*
X80010356Y-86480857D01*
X79998374Y-86500848D01*
X79984490Y-86519568D01*
X79968838Y-86536838D01*
X79951568Y-86552490D01*
X79932848Y-86566374D01*
X79912857Y-86578356D01*
X79891787Y-86588321D01*
X79869843Y-86596173D01*
X79847234Y-86601837D01*
X79824179Y-86605256D01*
X79800900Y-86606400D01*
X79225900Y-86606400D01*
X79202621Y-86605256D01*
X79179566Y-86601837D01*
X79156957Y-86596173D01*
X79135013Y-86588321D01*
X79113943Y-86578356D01*
X79093952Y-86566374D01*
X79075232Y-86552490D01*
X79057962Y-86536838D01*
X79042310Y-86519568D01*
X79028426Y-86500848D01*
X79016444Y-86480857D01*
X79006479Y-86459787D01*
X78998627Y-86437843D01*
X78992963Y-86415234D01*
X78989544Y-86392179D01*
X78988400Y-86368900D01*
X78988400Y-85893900D01*
X78989544Y-85870621D01*
X78992963Y-85847566D01*
X78998627Y-85824957D01*
X79006479Y-85803013D01*
X79016444Y-85781943D01*
X79028426Y-85761952D01*
X79042310Y-85743232D01*
X79057962Y-85725962D01*
X79075232Y-85710310D01*
X79093952Y-85696426D01*
X79113943Y-85684444D01*
X79135013Y-85674479D01*
X79156957Y-85666627D01*
X79179566Y-85660963D01*
X79202621Y-85657544D01*
X79225900Y-85656400D01*
X79800900Y-85656400D01*
X79824179Y-85657544D01*
X79824179Y-85657544D01*
G37*
D13*
G04 #@! TD*
G04 #@! TO.P,R6,1*
G04 #@! TO.N,/SR_LEVEL*
X79513400Y-86131400D03*
D12*
G04 #@! TO.N,/SDA*
G04 #@! TO.C,R7*
G36*
X82886979Y-85477944D02*
X82910034Y-85481363D01*
X82932643Y-85487027D01*
X82954587Y-85494879D01*
X82975657Y-85504844D01*
X82995648Y-85516826D01*
X83014368Y-85530710D01*
X83031638Y-85546362D01*
X83047290Y-85563632D01*
X83061174Y-85582352D01*
X83073156Y-85602343D01*
X83083121Y-85623413D01*
X83090973Y-85645357D01*
X83096637Y-85667966D01*
X83100056Y-85691021D01*
X83101200Y-85714300D01*
X83101200Y-86289300D01*
X83100056Y-86312579D01*
X83096637Y-86335634D01*
X83090973Y-86358243D01*
X83083121Y-86380187D01*
X83073156Y-86401257D01*
X83061174Y-86421248D01*
X83047290Y-86439968D01*
X83031638Y-86457238D01*
X83014368Y-86472890D01*
X82995648Y-86486774D01*
X82975657Y-86498756D01*
X82954587Y-86508721D01*
X82932643Y-86516573D01*
X82910034Y-86522237D01*
X82886979Y-86525656D01*
X82863700Y-86526800D01*
X82388700Y-86526800D01*
X82365421Y-86525656D01*
X82342366Y-86522237D01*
X82319757Y-86516573D01*
X82297813Y-86508721D01*
X82276743Y-86498756D01*
X82256752Y-86486774D01*
X82238032Y-86472890D01*
X82220762Y-86457238D01*
X82205110Y-86439968D01*
X82191226Y-86421248D01*
X82179244Y-86401257D01*
X82169279Y-86380187D01*
X82161427Y-86358243D01*
X82155763Y-86335634D01*
X82152344Y-86312579D01*
X82151200Y-86289300D01*
X82151200Y-85714300D01*
X82152344Y-85691021D01*
X82155763Y-85667966D01*
X82161427Y-85645357D01*
X82169279Y-85623413D01*
X82179244Y-85602343D01*
X82191226Y-85582352D01*
X82205110Y-85563632D01*
X82220762Y-85546362D01*
X82238032Y-85530710D01*
X82256752Y-85516826D01*
X82276743Y-85504844D01*
X82297813Y-85494879D01*
X82319757Y-85487027D01*
X82342366Y-85481363D01*
X82365421Y-85477944D01*
X82388700Y-85476800D01*
X82863700Y-85476800D01*
X82886979Y-85477944D01*
X82886979Y-85477944D01*
G37*
D13*
G04 #@! TD*
G04 #@! TO.P,R7,1*
G04 #@! TO.N,/SDA*
X82626200Y-86001800D03*
D12*
G04 #@! TO.N,/5V0*
G04 #@! TO.C,R7*
G36*
X82886979Y-83727944D02*
X82910034Y-83731363D01*
X82932643Y-83737027D01*
X82954587Y-83744879D01*
X82975657Y-83754844D01*
X82995648Y-83766826D01*
X83014368Y-83780710D01*
X83031638Y-83796362D01*
X83047290Y-83813632D01*
X83061174Y-83832352D01*
X83073156Y-83852343D01*
X83083121Y-83873413D01*
X83090973Y-83895357D01*
X83096637Y-83917966D01*
X83100056Y-83941021D01*
X83101200Y-83964300D01*
X83101200Y-84539300D01*
X83100056Y-84562579D01*
X83096637Y-84585634D01*
X83090973Y-84608243D01*
X83083121Y-84630187D01*
X83073156Y-84651257D01*
X83061174Y-84671248D01*
X83047290Y-84689968D01*
X83031638Y-84707238D01*
X83014368Y-84722890D01*
X82995648Y-84736774D01*
X82975657Y-84748756D01*
X82954587Y-84758721D01*
X82932643Y-84766573D01*
X82910034Y-84772237D01*
X82886979Y-84775656D01*
X82863700Y-84776800D01*
X82388700Y-84776800D01*
X82365421Y-84775656D01*
X82342366Y-84772237D01*
X82319757Y-84766573D01*
X82297813Y-84758721D01*
X82276743Y-84748756D01*
X82256752Y-84736774D01*
X82238032Y-84722890D01*
X82220762Y-84707238D01*
X82205110Y-84689968D01*
X82191226Y-84671248D01*
X82179244Y-84651257D01*
X82169279Y-84630187D01*
X82161427Y-84608243D01*
X82155763Y-84585634D01*
X82152344Y-84562579D01*
X82151200Y-84539300D01*
X82151200Y-83964300D01*
X82152344Y-83941021D01*
X82155763Y-83917966D01*
X82161427Y-83895357D01*
X82169279Y-83873413D01*
X82179244Y-83852343D01*
X82191226Y-83832352D01*
X82205110Y-83813632D01*
X82220762Y-83796362D01*
X82238032Y-83780710D01*
X82256752Y-83766826D01*
X82276743Y-83754844D01*
X82297813Y-83744879D01*
X82319757Y-83737027D01*
X82342366Y-83731363D01*
X82365421Y-83727944D01*
X82388700Y-83726800D01*
X82863700Y-83726800D01*
X82886979Y-83727944D01*
X82886979Y-83727944D01*
G37*
D13*
G04 #@! TD*
G04 #@! TO.P,R7,2*
G04 #@! TO.N,/5V0*
X82626200Y-84251800D03*
D12*
G04 #@! TO.N,/3V3*
G04 #@! TO.C,R8*
G36*
X100743179Y-83434544D02*
X100766234Y-83437963D01*
X100788843Y-83443627D01*
X100810787Y-83451479D01*
X100831857Y-83461444D01*
X100851848Y-83473426D01*
X100870568Y-83487310D01*
X100887838Y-83502962D01*
X100903490Y-83520232D01*
X100917374Y-83538952D01*
X100929356Y-83558943D01*
X100939321Y-83580013D01*
X100947173Y-83601957D01*
X100952837Y-83624566D01*
X100956256Y-83647621D01*
X100957400Y-83670900D01*
X100957400Y-84245900D01*
X100956256Y-84269179D01*
X100952837Y-84292234D01*
X100947173Y-84314843D01*
X100939321Y-84336787D01*
X100929356Y-84357857D01*
X100917374Y-84377848D01*
X100903490Y-84396568D01*
X100887838Y-84413838D01*
X100870568Y-84429490D01*
X100851848Y-84443374D01*
X100831857Y-84455356D01*
X100810787Y-84465321D01*
X100788843Y-84473173D01*
X100766234Y-84478837D01*
X100743179Y-84482256D01*
X100719900Y-84483400D01*
X100244900Y-84483400D01*
X100221621Y-84482256D01*
X100198566Y-84478837D01*
X100175957Y-84473173D01*
X100154013Y-84465321D01*
X100132943Y-84455356D01*
X100112952Y-84443374D01*
X100094232Y-84429490D01*
X100076962Y-84413838D01*
X100061310Y-84396568D01*
X100047426Y-84377848D01*
X100035444Y-84357857D01*
X100025479Y-84336787D01*
X100017627Y-84314843D01*
X100011963Y-84292234D01*
X100008544Y-84269179D01*
X100007400Y-84245900D01*
X100007400Y-83670900D01*
X100008544Y-83647621D01*
X100011963Y-83624566D01*
X100017627Y-83601957D01*
X100025479Y-83580013D01*
X100035444Y-83558943D01*
X100047426Y-83538952D01*
X100061310Y-83520232D01*
X100076962Y-83502962D01*
X100094232Y-83487310D01*
X100112952Y-83473426D01*
X100132943Y-83461444D01*
X100154013Y-83451479D01*
X100175957Y-83443627D01*
X100198566Y-83437963D01*
X100221621Y-83434544D01*
X100244900Y-83433400D01*
X100719900Y-83433400D01*
X100743179Y-83434544D01*
X100743179Y-83434544D01*
G37*
D13*
G04 #@! TD*
G04 #@! TO.P,R8,1*
G04 #@! TO.N,/3V3*
X100482400Y-83958400D03*
D12*
G04 #@! TO.N,Net-(R8-Pad2)*
G04 #@! TO.C,R8*
G36*
X100743179Y-81684544D02*
X100766234Y-81687963D01*
X100788843Y-81693627D01*
X100810787Y-81701479D01*
X100831857Y-81711444D01*
X100851848Y-81723426D01*
X100870568Y-81737310D01*
X100887838Y-81752962D01*
X100903490Y-81770232D01*
X100917374Y-81788952D01*
X100929356Y-81808943D01*
X100939321Y-81830013D01*
X100947173Y-81851957D01*
X100952837Y-81874566D01*
X100956256Y-81897621D01*
X100957400Y-81920900D01*
X100957400Y-82495900D01*
X100956256Y-82519179D01*
X100952837Y-82542234D01*
X100947173Y-82564843D01*
X100939321Y-82586787D01*
X100929356Y-82607857D01*
X100917374Y-82627848D01*
X100903490Y-82646568D01*
X100887838Y-82663838D01*
X100870568Y-82679490D01*
X100851848Y-82693374D01*
X100831857Y-82705356D01*
X100810787Y-82715321D01*
X100788843Y-82723173D01*
X100766234Y-82728837D01*
X100743179Y-82732256D01*
X100719900Y-82733400D01*
X100244900Y-82733400D01*
X100221621Y-82732256D01*
X100198566Y-82728837D01*
X100175957Y-82723173D01*
X100154013Y-82715321D01*
X100132943Y-82705356D01*
X100112952Y-82693374D01*
X100094232Y-82679490D01*
X100076962Y-82663838D01*
X100061310Y-82646568D01*
X100047426Y-82627848D01*
X100035444Y-82607857D01*
X100025479Y-82586787D01*
X100017627Y-82564843D01*
X100011963Y-82542234D01*
X100008544Y-82519179D01*
X100007400Y-82495900D01*
X100007400Y-81920900D01*
X100008544Y-81897621D01*
X100011963Y-81874566D01*
X100017627Y-81851957D01*
X100025479Y-81830013D01*
X100035444Y-81808943D01*
X100047426Y-81788952D01*
X100061310Y-81770232D01*
X100076962Y-81752962D01*
X100094232Y-81737310D01*
X100112952Y-81723426D01*
X100132943Y-81711444D01*
X100154013Y-81701479D01*
X100175957Y-81693627D01*
X100198566Y-81687963D01*
X100221621Y-81684544D01*
X100244900Y-81683400D01*
X100719900Y-81683400D01*
X100743179Y-81684544D01*
X100743179Y-81684544D01*
G37*
D13*
G04 #@! TD*
G04 #@! TO.P,R8,2*
G04 #@! TO.N,Net-(R8-Pad2)*
X100482400Y-82208400D03*
D12*
G04 #@! TO.N,/5V0*
G04 #@! TO.C,R10*
G36*
X84563379Y-83741944D02*
X84586434Y-83745363D01*
X84609043Y-83751027D01*
X84630987Y-83758879D01*
X84652057Y-83768844D01*
X84672048Y-83780826D01*
X84690768Y-83794710D01*
X84708038Y-83810362D01*
X84723690Y-83827632D01*
X84737574Y-83846352D01*
X84749556Y-83866343D01*
X84759521Y-83887413D01*
X84767373Y-83909357D01*
X84773037Y-83931966D01*
X84776456Y-83955021D01*
X84777600Y-83978300D01*
X84777600Y-84553300D01*
X84776456Y-84576579D01*
X84773037Y-84599634D01*
X84767373Y-84622243D01*
X84759521Y-84644187D01*
X84749556Y-84665257D01*
X84737574Y-84685248D01*
X84723690Y-84703968D01*
X84708038Y-84721238D01*
X84690768Y-84736890D01*
X84672048Y-84750774D01*
X84652057Y-84762756D01*
X84630987Y-84772721D01*
X84609043Y-84780573D01*
X84586434Y-84786237D01*
X84563379Y-84789656D01*
X84540100Y-84790800D01*
X84065100Y-84790800D01*
X84041821Y-84789656D01*
X84018766Y-84786237D01*
X83996157Y-84780573D01*
X83974213Y-84772721D01*
X83953143Y-84762756D01*
X83933152Y-84750774D01*
X83914432Y-84736890D01*
X83897162Y-84721238D01*
X83881510Y-84703968D01*
X83867626Y-84685248D01*
X83855644Y-84665257D01*
X83845679Y-84644187D01*
X83837827Y-84622243D01*
X83832163Y-84599634D01*
X83828744Y-84576579D01*
X83827600Y-84553300D01*
X83827600Y-83978300D01*
X83828744Y-83955021D01*
X83832163Y-83931966D01*
X83837827Y-83909357D01*
X83845679Y-83887413D01*
X83855644Y-83866343D01*
X83867626Y-83846352D01*
X83881510Y-83827632D01*
X83897162Y-83810362D01*
X83914432Y-83794710D01*
X83933152Y-83780826D01*
X83953143Y-83768844D01*
X83974213Y-83758879D01*
X83996157Y-83751027D01*
X84018766Y-83745363D01*
X84041821Y-83741944D01*
X84065100Y-83740800D01*
X84540100Y-83740800D01*
X84563379Y-83741944D01*
X84563379Y-83741944D01*
G37*
D13*
G04 #@! TD*
G04 #@! TO.P,R10,2*
G04 #@! TO.N,/5V0*
X84302600Y-84265800D03*
D12*
G04 #@! TO.N,/SCL*
G04 #@! TO.C,R10*
G36*
X84563379Y-85491944D02*
X84586434Y-85495363D01*
X84609043Y-85501027D01*
X84630987Y-85508879D01*
X84652057Y-85518844D01*
X84672048Y-85530826D01*
X84690768Y-85544710D01*
X84708038Y-85560362D01*
X84723690Y-85577632D01*
X84737574Y-85596352D01*
X84749556Y-85616343D01*
X84759521Y-85637413D01*
X84767373Y-85659357D01*
X84773037Y-85681966D01*
X84776456Y-85705021D01*
X84777600Y-85728300D01*
X84777600Y-86303300D01*
X84776456Y-86326579D01*
X84773037Y-86349634D01*
X84767373Y-86372243D01*
X84759521Y-86394187D01*
X84749556Y-86415257D01*
X84737574Y-86435248D01*
X84723690Y-86453968D01*
X84708038Y-86471238D01*
X84690768Y-86486890D01*
X84672048Y-86500774D01*
X84652057Y-86512756D01*
X84630987Y-86522721D01*
X84609043Y-86530573D01*
X84586434Y-86536237D01*
X84563379Y-86539656D01*
X84540100Y-86540800D01*
X84065100Y-86540800D01*
X84041821Y-86539656D01*
X84018766Y-86536237D01*
X83996157Y-86530573D01*
X83974213Y-86522721D01*
X83953143Y-86512756D01*
X83933152Y-86500774D01*
X83914432Y-86486890D01*
X83897162Y-86471238D01*
X83881510Y-86453968D01*
X83867626Y-86435248D01*
X83855644Y-86415257D01*
X83845679Y-86394187D01*
X83837827Y-86372243D01*
X83832163Y-86349634D01*
X83828744Y-86326579D01*
X83827600Y-86303300D01*
X83827600Y-85728300D01*
X83828744Y-85705021D01*
X83832163Y-85681966D01*
X83837827Y-85659357D01*
X83845679Y-85637413D01*
X83855644Y-85616343D01*
X83867626Y-85596352D01*
X83881510Y-85577632D01*
X83897162Y-85560362D01*
X83914432Y-85544710D01*
X83933152Y-85530826D01*
X83953143Y-85518844D01*
X83974213Y-85508879D01*
X83996157Y-85501027D01*
X84018766Y-85495363D01*
X84041821Y-85491944D01*
X84065100Y-85490800D01*
X84540100Y-85490800D01*
X84563379Y-85491944D01*
X84563379Y-85491944D01*
G37*
D13*
G04 #@! TD*
G04 #@! TO.P,R10,1*
G04 #@! TO.N,/SCL*
X84302600Y-86015800D03*
D12*
G04 #@! TO.N,/TX*
G04 #@! TO.C,R11*
G36*
X94990579Y-85225744D02*
X95013634Y-85229163D01*
X95036243Y-85234827D01*
X95058187Y-85242679D01*
X95079257Y-85252644D01*
X95099248Y-85264626D01*
X95117968Y-85278510D01*
X95135238Y-85294162D01*
X95150890Y-85311432D01*
X95164774Y-85330152D01*
X95176756Y-85350143D01*
X95186721Y-85371213D01*
X95194573Y-85393157D01*
X95200237Y-85415766D01*
X95203656Y-85438821D01*
X95204800Y-85462100D01*
X95204800Y-85937100D01*
X95203656Y-85960379D01*
X95200237Y-85983434D01*
X95194573Y-86006043D01*
X95186721Y-86027987D01*
X95176756Y-86049057D01*
X95164774Y-86069048D01*
X95150890Y-86087768D01*
X95135238Y-86105038D01*
X95117968Y-86120690D01*
X95099248Y-86134574D01*
X95079257Y-86146556D01*
X95058187Y-86156521D01*
X95036243Y-86164373D01*
X95013634Y-86170037D01*
X94990579Y-86173456D01*
X94967300Y-86174600D01*
X94392300Y-86174600D01*
X94369021Y-86173456D01*
X94345966Y-86170037D01*
X94323357Y-86164373D01*
X94301413Y-86156521D01*
X94280343Y-86146556D01*
X94260352Y-86134574D01*
X94241632Y-86120690D01*
X94224362Y-86105038D01*
X94208710Y-86087768D01*
X94194826Y-86069048D01*
X94182844Y-86049057D01*
X94172879Y-86027987D01*
X94165027Y-86006043D01*
X94159363Y-85983434D01*
X94155944Y-85960379D01*
X94154800Y-85937100D01*
X94154800Y-85462100D01*
X94155944Y-85438821D01*
X94159363Y-85415766D01*
X94165027Y-85393157D01*
X94172879Y-85371213D01*
X94182844Y-85350143D01*
X94194826Y-85330152D01*
X94208710Y-85311432D01*
X94224362Y-85294162D01*
X94241632Y-85278510D01*
X94260352Y-85264626D01*
X94280343Y-85252644D01*
X94301413Y-85242679D01*
X94323357Y-85234827D01*
X94345966Y-85229163D01*
X94369021Y-85225744D01*
X94392300Y-85224600D01*
X94967300Y-85224600D01*
X94990579Y-85225744D01*
X94990579Y-85225744D01*
G37*
D13*
G04 #@! TD*
G04 #@! TO.P,R11,2*
G04 #@! TO.N,/TX*
X94679800Y-85699600D03*
D12*
G04 #@! TO.N,Net-(R11-Pad1)*
G04 #@! TO.C,R11*
G36*
X96740579Y-85225744D02*
X96763634Y-85229163D01*
X96786243Y-85234827D01*
X96808187Y-85242679D01*
X96829257Y-85252644D01*
X96849248Y-85264626D01*
X96867968Y-85278510D01*
X96885238Y-85294162D01*
X96900890Y-85311432D01*
X96914774Y-85330152D01*
X96926756Y-85350143D01*
X96936721Y-85371213D01*
X96944573Y-85393157D01*
X96950237Y-85415766D01*
X96953656Y-85438821D01*
X96954800Y-85462100D01*
X96954800Y-85937100D01*
X96953656Y-85960379D01*
X96950237Y-85983434D01*
X96944573Y-86006043D01*
X96936721Y-86027987D01*
X96926756Y-86049057D01*
X96914774Y-86069048D01*
X96900890Y-86087768D01*
X96885238Y-86105038D01*
X96867968Y-86120690D01*
X96849248Y-86134574D01*
X96829257Y-86146556D01*
X96808187Y-86156521D01*
X96786243Y-86164373D01*
X96763634Y-86170037D01*
X96740579Y-86173456D01*
X96717300Y-86174600D01*
X96142300Y-86174600D01*
X96119021Y-86173456D01*
X96095966Y-86170037D01*
X96073357Y-86164373D01*
X96051413Y-86156521D01*
X96030343Y-86146556D01*
X96010352Y-86134574D01*
X95991632Y-86120690D01*
X95974362Y-86105038D01*
X95958710Y-86087768D01*
X95944826Y-86069048D01*
X95932844Y-86049057D01*
X95922879Y-86027987D01*
X95915027Y-86006043D01*
X95909363Y-85983434D01*
X95905944Y-85960379D01*
X95904800Y-85937100D01*
X95904800Y-85462100D01*
X95905944Y-85438821D01*
X95909363Y-85415766D01*
X95915027Y-85393157D01*
X95922879Y-85371213D01*
X95932844Y-85350143D01*
X95944826Y-85330152D01*
X95958710Y-85311432D01*
X95974362Y-85294162D01*
X95991632Y-85278510D01*
X96010352Y-85264626D01*
X96030343Y-85252644D01*
X96051413Y-85242679D01*
X96073357Y-85234827D01*
X96095966Y-85229163D01*
X96119021Y-85225744D01*
X96142300Y-85224600D01*
X96717300Y-85224600D01*
X96740579Y-85225744D01*
X96740579Y-85225744D01*
G37*
D13*
G04 #@! TD*
G04 #@! TO.P,R11,1*
G04 #@! TO.N,Net-(R11-Pad1)*
X96429800Y-85699600D03*
D12*
G04 #@! TO.N,GND*
G04 #@! TO.C,R12*
G36*
X100601379Y-85225744D02*
X100624434Y-85229163D01*
X100647043Y-85234827D01*
X100668987Y-85242679D01*
X100690057Y-85252644D01*
X100710048Y-85264626D01*
X100728768Y-85278510D01*
X100746038Y-85294162D01*
X100761690Y-85311432D01*
X100775574Y-85330152D01*
X100787556Y-85350143D01*
X100797521Y-85371213D01*
X100805373Y-85393157D01*
X100811037Y-85415766D01*
X100814456Y-85438821D01*
X100815600Y-85462100D01*
X100815600Y-85937100D01*
X100814456Y-85960379D01*
X100811037Y-85983434D01*
X100805373Y-86006043D01*
X100797521Y-86027987D01*
X100787556Y-86049057D01*
X100775574Y-86069048D01*
X100761690Y-86087768D01*
X100746038Y-86105038D01*
X100728768Y-86120690D01*
X100710048Y-86134574D01*
X100690057Y-86146556D01*
X100668987Y-86156521D01*
X100647043Y-86164373D01*
X100624434Y-86170037D01*
X100601379Y-86173456D01*
X100578100Y-86174600D01*
X100003100Y-86174600D01*
X99979821Y-86173456D01*
X99956766Y-86170037D01*
X99934157Y-86164373D01*
X99912213Y-86156521D01*
X99891143Y-86146556D01*
X99871152Y-86134574D01*
X99852432Y-86120690D01*
X99835162Y-86105038D01*
X99819510Y-86087768D01*
X99805626Y-86069048D01*
X99793644Y-86049057D01*
X99783679Y-86027987D01*
X99775827Y-86006043D01*
X99770163Y-85983434D01*
X99766744Y-85960379D01*
X99765600Y-85937100D01*
X99765600Y-85462100D01*
X99766744Y-85438821D01*
X99770163Y-85415766D01*
X99775827Y-85393157D01*
X99783679Y-85371213D01*
X99793644Y-85350143D01*
X99805626Y-85330152D01*
X99819510Y-85311432D01*
X99835162Y-85294162D01*
X99852432Y-85278510D01*
X99871152Y-85264626D01*
X99891143Y-85252644D01*
X99912213Y-85242679D01*
X99934157Y-85234827D01*
X99956766Y-85229163D01*
X99979821Y-85225744D01*
X100003100Y-85224600D01*
X100578100Y-85224600D01*
X100601379Y-85225744D01*
X100601379Y-85225744D01*
G37*
D13*
G04 #@! TD*
G04 #@! TO.P,R12,1*
G04 #@! TO.N,GND*
X100290600Y-85699600D03*
D12*
G04 #@! TO.N,Net-(R11-Pad1)*
G04 #@! TO.C,R12*
G36*
X98851379Y-85225744D02*
X98874434Y-85229163D01*
X98897043Y-85234827D01*
X98918987Y-85242679D01*
X98940057Y-85252644D01*
X98960048Y-85264626D01*
X98978768Y-85278510D01*
X98996038Y-85294162D01*
X99011690Y-85311432D01*
X99025574Y-85330152D01*
X99037556Y-85350143D01*
X99047521Y-85371213D01*
X99055373Y-85393157D01*
X99061037Y-85415766D01*
X99064456Y-85438821D01*
X99065600Y-85462100D01*
X99065600Y-85937100D01*
X99064456Y-85960379D01*
X99061037Y-85983434D01*
X99055373Y-86006043D01*
X99047521Y-86027987D01*
X99037556Y-86049057D01*
X99025574Y-86069048D01*
X99011690Y-86087768D01*
X98996038Y-86105038D01*
X98978768Y-86120690D01*
X98960048Y-86134574D01*
X98940057Y-86146556D01*
X98918987Y-86156521D01*
X98897043Y-86164373D01*
X98874434Y-86170037D01*
X98851379Y-86173456D01*
X98828100Y-86174600D01*
X98253100Y-86174600D01*
X98229821Y-86173456D01*
X98206766Y-86170037D01*
X98184157Y-86164373D01*
X98162213Y-86156521D01*
X98141143Y-86146556D01*
X98121152Y-86134574D01*
X98102432Y-86120690D01*
X98085162Y-86105038D01*
X98069510Y-86087768D01*
X98055626Y-86069048D01*
X98043644Y-86049057D01*
X98033679Y-86027987D01*
X98025827Y-86006043D01*
X98020163Y-85983434D01*
X98016744Y-85960379D01*
X98015600Y-85937100D01*
X98015600Y-85462100D01*
X98016744Y-85438821D01*
X98020163Y-85415766D01*
X98025827Y-85393157D01*
X98033679Y-85371213D01*
X98043644Y-85350143D01*
X98055626Y-85330152D01*
X98069510Y-85311432D01*
X98085162Y-85294162D01*
X98102432Y-85278510D01*
X98121152Y-85264626D01*
X98141143Y-85252644D01*
X98162213Y-85242679D01*
X98184157Y-85234827D01*
X98206766Y-85229163D01*
X98229821Y-85225744D01*
X98253100Y-85224600D01*
X98828100Y-85224600D01*
X98851379Y-85225744D01*
X98851379Y-85225744D01*
G37*
D13*
G04 #@! TD*
G04 #@! TO.P,R12,2*
G04 #@! TO.N,Net-(R11-Pad1)*
X98540600Y-85699600D03*
D17*
G04 #@! TO.P,U1,1*
G04 #@! TO.N,GND*
X105562400Y-80670400D03*
D16*
G04 #@! TO.P,U1,2*
G04 #@! TO.N,/RX*
X103022400Y-80670400D03*
G04 #@! TO.P,U1,3*
G04 #@! TO.N,N/C*
X105562400Y-83210400D03*
G04 #@! TO.P,U1,4*
G04 #@! TO.N,Net-(R8-Pad2)*
X103022400Y-83210400D03*
G04 #@! TO.P,U1,5*
G04 #@! TO.N,/GPIO0_WIFI*
X105562400Y-85750400D03*
G04 #@! TO.P,U1,6*
G04 #@! TO.N,/RST_WIFI*
X103022400Y-85750400D03*
G04 #@! TO.P,U1,7*
G04 #@! TO.N,Net-(R11-Pad1)*
X105562400Y-88290400D03*
G04 #@! TO.P,U1,8*
G04 #@! TO.N,/3V3*
X103022400Y-88290400D03*
G04 #@! TD*
D17*
G04 #@! TO.P,U2,1*
G04 #@! TO.N,GND*
X80975200Y-88823800D03*
D16*
G04 #@! TO.P,U2,2*
G04 #@! TO.N,/5V0*
X83515200Y-88823800D03*
G04 #@! TO.P,U2,3*
G04 #@! TO.N,/SDA*
X86055200Y-88823800D03*
G04 #@! TO.P,U2,4*
G04 #@! TO.N,/SCL*
X88595200Y-88823800D03*
G04 #@! TD*
D17*
G04 #@! TO.P,J3,1*
G04 #@! TO.N,/GPIO0_WIFI*
X97434400Y-88823800D03*
D16*
G04 #@! TO.P,J3,2*
G04 #@! TO.N,GND*
X94894400Y-88823800D03*
G04 #@! TO.P,J3,3*
G04 #@! TO.N,/RST_WIFI*
X92354400Y-88823800D03*
G04 #@! TD*
D19*
G04 #@! TO.N,GND*
X87909400Y-85674200D03*
G04 #@! TO.N,/3V3*
X98907600Y-84404200D03*
X67716400Y-89560400D03*
G04 #@! TO.N,GND*
X91287600Y-85369400D03*
X80899000Y-86995000D03*
X88773000Y-86461600D03*
X92405200Y-85394800D03*
X81991200Y-81889600D03*
X81991200Y-82854800D03*
X106197400Y-78562200D03*
X104978200Y-78562200D03*
X103911400Y-78562200D03*
X94843600Y-87071200D03*
X96367600Y-87045800D03*
X97409000Y-87020400D03*
G04 #@! TO.N,/5V0*
X75844400Y-86131400D03*
X72009000Y-81000600D03*
X83515200Y-82905600D03*
G04 #@! TO.N,/VIN*
X95834200Y-90322400D03*
X82296000Y-79425800D03*
G04 #@! TO.N,Net-(R11-Pad1)*
X100558600Y-89662000D03*
G04 #@! TD*
D20*
G04 #@! TO.N,/H_TX*
X97713800Y-80314800D02*
X99542600Y-80314800D01*
X103174800Y-78058800D02*
X102544400Y-78689200D01*
X103174800Y-76758800D02*
X103174800Y-78058800D01*
X102544400Y-78689200D02*
X101498400Y-78689200D01*
X99872800Y-80314800D02*
X99542600Y-80314800D01*
X101498400Y-78689200D02*
X99872800Y-80314800D01*
G04 #@! TO.N,/3V3*
X101523800Y-86791800D02*
X103022400Y-88290400D01*
X101523800Y-84424800D02*
X101523800Y-86791800D01*
X100482400Y-83958400D02*
X101057400Y-83958400D01*
X101057400Y-83958400D02*
X101523800Y-84424800D01*
X100036600Y-84404200D02*
X100482400Y-83958400D01*
X98907600Y-84404200D02*
X100036600Y-84404200D01*
X70154800Y-91998800D02*
X68630800Y-90474800D01*
X68630800Y-90474800D02*
X67716400Y-89560400D01*
G04 #@! TO.N,/H_RX*
X95173800Y-79112719D02*
X95173800Y-80314800D01*
X95724319Y-78562200D02*
X95173800Y-79112719D01*
X100634800Y-76758800D02*
X98831400Y-78562200D01*
X98831400Y-78562200D02*
X95724319Y-78562200D01*
G04 #@! TO.N,/LR_LEVEL*
X69723000Y-90199200D02*
X69973200Y-90449400D01*
X69723000Y-88849200D02*
X69723000Y-90199200D01*
X73685400Y-90449400D02*
X75234800Y-91998800D01*
X69973200Y-90449400D02*
X73685400Y-90449400D01*
X69723000Y-88710800D02*
X72302400Y-86131400D01*
X69723000Y-88849200D02*
X69723000Y-88710800D01*
G04 #@! TO.N,GND*
X105562400Y-80670400D02*
X105511600Y-80670400D01*
X105511600Y-80670400D02*
X104190800Y-81991200D01*
G04 #@! TO.N,/SR_LEVEL*
X74803000Y-89027000D02*
X77774800Y-91998800D01*
X74803000Y-88849200D02*
X74803000Y-89027000D01*
X79513400Y-87161400D02*
X79513400Y-86131400D01*
X79349600Y-87325200D02*
X79513400Y-87161400D01*
X74803000Y-88849200D02*
X76327000Y-87325200D01*
X76327000Y-87325200D02*
X79349600Y-87325200D01*
G04 #@! TO.N,/S_RX*
X92633800Y-77139800D02*
X93014800Y-76758800D01*
X92633800Y-80314800D02*
X92633800Y-77139800D01*
G04 #@! TO.N,/S_TX*
X90093800Y-77139800D02*
X90474800Y-76758800D01*
X90093800Y-80314800D02*
X90093800Y-77139800D01*
G04 #@! TO.N,/SDA*
X86055200Y-88823800D02*
X84505800Y-87274400D01*
X84505800Y-87274400D02*
X83108800Y-87274400D01*
X82626200Y-86791800D02*
X82626200Y-86001800D01*
X83108800Y-87274400D02*
X82626200Y-86791800D01*
X85394800Y-90686281D02*
X85394800Y-91998800D01*
X86055200Y-88823800D02*
X86055200Y-90025881D01*
X86055200Y-90025881D02*
X85394800Y-90686281D01*
G04 #@! TO.N,/SCL*
X87934800Y-90686281D02*
X87934800Y-91998800D01*
X88595200Y-88823800D02*
X88595200Y-90025881D01*
X88595200Y-90025881D02*
X87934800Y-90686281D01*
X85787200Y-86015800D02*
X84302600Y-86015800D01*
X88595200Y-88823800D02*
X85787200Y-86015800D01*
G04 #@! TO.N,/YELLOW_LED*
X82854800Y-76758800D02*
X82854800Y-78155800D01*
X83794600Y-79095600D02*
X85053200Y-79095600D01*
X82854800Y-78155800D02*
X83794600Y-79095600D01*
G04 #@! TO.N,/RED_LED*
X80848200Y-77292200D02*
X80314800Y-76758800D01*
X80848200Y-79121000D02*
X80848200Y-77292200D01*
G04 #@! TO.N,/5V0*
X69264000Y-82348600D02*
X69570600Y-82348600D01*
X65913000Y-85699600D02*
X69264000Y-82348600D01*
X70420200Y-80289400D02*
X70445600Y-80314800D01*
X70420200Y-78790800D02*
X70420200Y-80289400D01*
X70445600Y-81473600D02*
X69570600Y-82348600D01*
X70445600Y-80314800D02*
X70445600Y-81473600D01*
X84288600Y-84251800D02*
X84302600Y-84265800D01*
X82626200Y-84251800D02*
X83515200Y-84251800D01*
X83515200Y-84251800D02*
X84288600Y-84251800D01*
X75844400Y-86131400D02*
X77763400Y-86131400D01*
X74052400Y-86131400D02*
X75844400Y-86131400D01*
X72009000Y-79273400D02*
X72009000Y-81000600D01*
X71526400Y-78790800D02*
X72009000Y-79273400D01*
X70420200Y-78790800D02*
X71526400Y-78790800D01*
X83515200Y-82912485D02*
X83515200Y-84251800D01*
X83515200Y-82905600D02*
X83515200Y-82912485D01*
G04 #@! TO.N,Net-(A1-Pad12)*
X75742800Y-77266800D02*
X75234800Y-76758800D01*
X75742800Y-78982600D02*
X75742800Y-77266800D01*
G04 #@! TO.N,/VIN*
X95834200Y-90322400D02*
X91059000Y-90322400D01*
X91059000Y-90322400D02*
X90347800Y-89611200D01*
X90347800Y-89611200D02*
X90347800Y-86182200D01*
X90347800Y-86182200D02*
X88290400Y-84124800D01*
X88290400Y-84124800D02*
X88290400Y-82880200D01*
X88290400Y-82880200D02*
X88036400Y-82626200D01*
X88036400Y-82626200D02*
X85496400Y-82626200D01*
X85496400Y-82626200D02*
X82296000Y-79425800D01*
G04 #@! TO.N,/M_FILTERED_PWM*
X75782200Y-84150200D02*
X75782200Y-82372200D01*
X75716200Y-84084200D02*
X75782200Y-84150200D01*
X74152000Y-84084200D02*
X75716200Y-84084200D01*
X75742800Y-82332800D02*
X75782200Y-82372200D01*
X75742800Y-80732600D02*
X75742800Y-82332800D01*
G04 #@! TO.N,/MOTOR_GND*
X67079600Y-88239600D02*
X69570600Y-85748600D01*
X65913000Y-88239600D02*
X67079600Y-88239600D01*
X69570600Y-85715600D02*
X72152000Y-83134200D01*
X69570600Y-85748600D02*
X69570600Y-85715600D01*
G04 #@! TO.N,Net-(D2-Pad2)*
X86803200Y-80909800D02*
X86588600Y-81124400D01*
X86803200Y-79095600D02*
X86803200Y-80909800D01*
G04 #@! TO.N,Net-(D3-Pad2)*
X79098200Y-79696000D02*
X79095600Y-79698600D01*
X79098200Y-79121000D02*
X79098200Y-79696000D01*
X79095600Y-80010000D02*
X80264000Y-81178400D01*
X79095600Y-79698600D02*
X79095600Y-80010000D01*
G04 #@! TO.N,/TX*
X90093800Y-82854800D02*
X91617800Y-84378800D01*
X96189800Y-84378800D02*
X94411800Y-84378800D01*
X97713800Y-82854800D02*
X96189800Y-84378800D01*
X91617800Y-84378800D02*
X94411800Y-84378800D01*
X94679800Y-84646800D02*
X94679800Y-85699600D01*
X94411800Y-84378800D02*
X94679800Y-84646800D01*
G04 #@! TO.N,/RX*
X92633800Y-82854800D02*
X95173800Y-82854800D01*
G04 #@! TO.N,Net-(R8-Pad2)*
X102020400Y-82208400D02*
X103022400Y-83210400D01*
X100482400Y-82208400D02*
X102020400Y-82208400D01*
G04 #@! TO.N,Net-(R11-Pad1)*
X96429800Y-85699600D02*
X98540600Y-85699600D01*
X98540600Y-86274600D02*
X99085400Y-86819400D01*
X98540600Y-85699600D02*
X98540600Y-86274600D01*
X99085400Y-86819400D02*
X99085400Y-86842600D01*
X100558600Y-88315800D02*
X100558600Y-89662000D01*
X99085400Y-86842600D02*
X100558600Y-88315800D01*
G04 #@! TD*
D21*
G04 #@! TO.N,GND*
G36*
X66763347Y-75907347D02*
X66502322Y-76297997D01*
X66410663Y-76758800D01*
X66502322Y-77219603D01*
X66763347Y-77610253D01*
X67153997Y-77871278D01*
X67498482Y-77939800D01*
X67623174Y-77939800D01*
X67606873Y-77956101D01*
X67510200Y-78189490D01*
X67510200Y-78505050D01*
X67668950Y-78663800D01*
X68543200Y-78663800D01*
X68543200Y-77839550D01*
X68384450Y-77680800D01*
X68360672Y-77680800D01*
X68466253Y-77610253D01*
X68727278Y-77219603D01*
X68818937Y-76758800D01*
X68727278Y-76297997D01*
X68466253Y-75907347D01*
X68142169Y-75690800D01*
X69627431Y-75690800D01*
X69303347Y-75907347D01*
X69042322Y-76297997D01*
X68950663Y-76758800D01*
X69042322Y-77219603D01*
X69303347Y-77610253D01*
X69551505Y-77776068D01*
X69321509Y-77680800D01*
X68955950Y-77680800D01*
X68797200Y-77839550D01*
X68797200Y-78663800D01*
X68817200Y-78663800D01*
X68817200Y-78917800D01*
X68797200Y-78917800D01*
X68797200Y-79742050D01*
X68822600Y-79767450D01*
X68822600Y-80187800D01*
X68842600Y-80187800D01*
X68842600Y-80441800D01*
X68822600Y-80441800D01*
X68822600Y-80461800D01*
X68568600Y-80461800D01*
X68568600Y-80441800D01*
X67694350Y-80441800D01*
X67535600Y-80600550D01*
X67535600Y-80916110D01*
X67632273Y-81149499D01*
X67810902Y-81328127D01*
X68044291Y-81424800D01*
X68356816Y-81424800D01*
X68342136Y-81498600D01*
X68342136Y-82378096D01*
X67302407Y-83417825D01*
X67233155Y-83286600D01*
X66040000Y-83286600D01*
X66040000Y-83306600D01*
X65786000Y-83306600D01*
X65786000Y-83286600D01*
X64592845Y-83286600D01*
X64471524Y-83516490D01*
X64641355Y-83926524D01*
X65031642Y-84354783D01*
X65429963Y-84541845D01*
X65025499Y-84812099D01*
X64753424Y-85219288D01*
X64657884Y-85699600D01*
X64753424Y-86179912D01*
X65025499Y-86587101D01*
X65432688Y-86859176D01*
X65791761Y-86930600D01*
X66034239Y-86930600D01*
X66393312Y-86859176D01*
X66800501Y-86587101D01*
X67072576Y-86179912D01*
X67168116Y-85699600D01*
X67107932Y-85397036D01*
X68917904Y-83587064D01*
X70410600Y-83587064D01*
X70559259Y-83557494D01*
X70685286Y-83473286D01*
X70769494Y-83347259D01*
X70799064Y-83198600D01*
X70799064Y-82012505D01*
X70847838Y-81963731D01*
X70900526Y-81928526D01*
X71039989Y-81719804D01*
X71076600Y-81535748D01*
X71088962Y-81473600D01*
X71076600Y-81411452D01*
X71076600Y-81061155D01*
X71175723Y-80994923D01*
X71228000Y-80916685D01*
X71228000Y-81155951D01*
X71346900Y-81443001D01*
X71566599Y-81662700D01*
X71853649Y-81781600D01*
X72164351Y-81781600D01*
X72451401Y-81662700D01*
X72456211Y-81657890D01*
X73067000Y-81657890D01*
X73067000Y-81898450D01*
X73225750Y-82057200D01*
X74025000Y-82057200D01*
X74025000Y-81307950D01*
X73866250Y-81149200D01*
X73575691Y-81149200D01*
X73342302Y-81245873D01*
X73163673Y-81424501D01*
X73067000Y-81657890D01*
X72456211Y-81657890D01*
X72671100Y-81443001D01*
X72790000Y-81155951D01*
X72790000Y-80845249D01*
X72671100Y-80558199D01*
X72640000Y-80527099D01*
X72640000Y-79335546D01*
X72652362Y-79273399D01*
X72634410Y-79183148D01*
X72603389Y-79027196D01*
X72463926Y-78818474D01*
X72411238Y-78783270D01*
X72016532Y-78388564D01*
X71981326Y-78335874D01*
X71772604Y-78196411D01*
X71588548Y-78159800D01*
X71526400Y-78147438D01*
X71464252Y-78159800D01*
X71183146Y-78159800D01*
X71150323Y-78110677D01*
X70947246Y-77974985D01*
X70707700Y-77927336D01*
X70333779Y-77927336D01*
X70615603Y-77871278D01*
X71006253Y-77610253D01*
X71267278Y-77219603D01*
X71358937Y-76758800D01*
X71267278Y-76297997D01*
X71006253Y-75907347D01*
X70682169Y-75690800D01*
X72167431Y-75690800D01*
X71843347Y-75907347D01*
X71582322Y-76297997D01*
X71490663Y-76758800D01*
X71582322Y-77219603D01*
X71843347Y-77610253D01*
X72233997Y-77871278D01*
X72578482Y-77939800D01*
X72811118Y-77939800D01*
X73155603Y-77871278D01*
X73546253Y-77610253D01*
X73807278Y-77219603D01*
X73898937Y-76758800D01*
X73807278Y-76297997D01*
X73546253Y-75907347D01*
X73222169Y-75690800D01*
X74707431Y-75690800D01*
X74383347Y-75907347D01*
X74122322Y-76297997D01*
X74030663Y-76758800D01*
X74122322Y-77219603D01*
X74383347Y-77610253D01*
X74773997Y-77871278D01*
X75111801Y-77938471D01*
X75111800Y-78219654D01*
X75062677Y-78252477D01*
X74926985Y-78455554D01*
X74879336Y-78695100D01*
X74879336Y-79270100D01*
X74926985Y-79509646D01*
X75062677Y-79712723D01*
X75265754Y-79848415D01*
X75311930Y-79857600D01*
X75265754Y-79866785D01*
X75062677Y-80002477D01*
X74926985Y-80205554D01*
X74879336Y-80445100D01*
X74879336Y-81020100D01*
X74920882Y-81228967D01*
X74728309Y-81149200D01*
X74437750Y-81149200D01*
X74279000Y-81307950D01*
X74279000Y-82057200D01*
X74299000Y-82057200D01*
X74299000Y-82311200D01*
X74279000Y-82311200D01*
X74279000Y-83060450D01*
X74437750Y-83219200D01*
X74728309Y-83219200D01*
X74961698Y-83122527D01*
X75043996Y-83040229D01*
X75052077Y-83052323D01*
X75151201Y-83118555D01*
X75151200Y-83403845D01*
X75077335Y-83453200D01*
X74905876Y-83453200D01*
X74876686Y-83409514D01*
X74750659Y-83325306D01*
X74602000Y-83295736D01*
X73702000Y-83295736D01*
X73553341Y-83325306D01*
X73427314Y-83409514D01*
X73343106Y-83535541D01*
X73313536Y-83684200D01*
X73313536Y-84484200D01*
X73343106Y-84632859D01*
X73427314Y-84758886D01*
X73553341Y-84843094D01*
X73702000Y-84872664D01*
X74602000Y-84872664D01*
X74750659Y-84843094D01*
X74876686Y-84758886D01*
X74905876Y-84715200D01*
X74975154Y-84715200D01*
X75052077Y-84830323D01*
X75255154Y-84966015D01*
X75494700Y-85013664D01*
X76069700Y-85013664D01*
X76309246Y-84966015D01*
X76428144Y-84886570D01*
X76468873Y-84984899D01*
X76647502Y-85163527D01*
X76880891Y-85260200D01*
X77246450Y-85260200D01*
X77405200Y-85101450D01*
X77405200Y-84277200D01*
X77659200Y-84277200D01*
X77659200Y-85101450D01*
X77817950Y-85260200D01*
X78183509Y-85260200D01*
X78416898Y-85163527D01*
X78595527Y-84984899D01*
X78692200Y-84751510D01*
X78692200Y-84435950D01*
X78533450Y-84277200D01*
X77659200Y-84277200D01*
X77405200Y-84277200D01*
X77385200Y-84277200D01*
X77385200Y-84023200D01*
X77405200Y-84023200D01*
X77405200Y-82499200D01*
X77659200Y-82499200D01*
X77659200Y-84023200D01*
X78533450Y-84023200D01*
X78692200Y-83864450D01*
X78692200Y-83548890D01*
X78595527Y-83315501D01*
X78594617Y-83314591D01*
X78754000Y-83314591D01*
X78754000Y-83867650D01*
X78912750Y-84026400D01*
X80137000Y-84026400D01*
X80137000Y-82964650D01*
X79978250Y-82805900D01*
X79262690Y-82805900D01*
X79029301Y-82902573D01*
X78850673Y-83081202D01*
X78754000Y-83314591D01*
X78594617Y-83314591D01*
X78541226Y-83261200D01*
X78595527Y-83206899D01*
X78692200Y-82973510D01*
X78692200Y-82657950D01*
X78533450Y-82499200D01*
X77659200Y-82499200D01*
X77405200Y-82499200D01*
X77385200Y-82499200D01*
X77385200Y-82245200D01*
X77405200Y-82245200D01*
X77405200Y-81420950D01*
X77659200Y-81420950D01*
X77659200Y-82245200D01*
X78533450Y-82245200D01*
X78692200Y-82086450D01*
X78692200Y-81770890D01*
X78595527Y-81537501D01*
X78416898Y-81358873D01*
X78183509Y-81262200D01*
X77817950Y-81262200D01*
X77659200Y-81420950D01*
X77405200Y-81420950D01*
X77246450Y-81262200D01*
X76880891Y-81262200D01*
X76647502Y-81358873D01*
X76468873Y-81537501D01*
X76428144Y-81635830D01*
X76373800Y-81599519D01*
X76373800Y-81495546D01*
X76422923Y-81462723D01*
X76558615Y-81259646D01*
X76606264Y-81020100D01*
X76606264Y-80445100D01*
X76558615Y-80205554D01*
X76422923Y-80002477D01*
X76219846Y-79866785D01*
X76173670Y-79857600D01*
X76219846Y-79848415D01*
X76422923Y-79712723D01*
X76558615Y-79509646D01*
X76606264Y-79270100D01*
X76606264Y-78695100D01*
X76558615Y-78455554D01*
X76422923Y-78252477D01*
X76373800Y-78219654D01*
X76373800Y-77328946D01*
X76386162Y-77266799D01*
X76362026Y-77145461D01*
X76438937Y-76758800D01*
X76347278Y-76297997D01*
X76086253Y-75907347D01*
X75762169Y-75690800D01*
X77247431Y-75690800D01*
X76923347Y-75907347D01*
X76662322Y-76297997D01*
X76570663Y-76758800D01*
X76662322Y-77219603D01*
X76923347Y-77610253D01*
X77313997Y-77871278D01*
X77658482Y-77939800D01*
X77891118Y-77939800D01*
X78235603Y-77871278D01*
X78626253Y-77610253D01*
X78887278Y-77219603D01*
X78978937Y-76758800D01*
X78887278Y-76297997D01*
X78626253Y-75907347D01*
X78302169Y-75690800D01*
X79787431Y-75690800D01*
X79463347Y-75907347D01*
X79202322Y-76297997D01*
X79110663Y-76758800D01*
X79202322Y-77219603D01*
X79463347Y-77610253D01*
X79853997Y-77871278D01*
X80198482Y-77939800D01*
X80217201Y-77939800D01*
X80217200Y-78374645D01*
X80118077Y-78440877D01*
X79982385Y-78643954D01*
X79973200Y-78690130D01*
X79964015Y-78643954D01*
X79828323Y-78440877D01*
X79625246Y-78305185D01*
X79385700Y-78257536D01*
X78810700Y-78257536D01*
X78571154Y-78305185D01*
X78368077Y-78440877D01*
X78232385Y-78643954D01*
X78184736Y-78883500D01*
X78184736Y-79358500D01*
X78232385Y-79598046D01*
X78368077Y-79801123D01*
X78464600Y-79865618D01*
X78464600Y-79947852D01*
X78452238Y-80010000D01*
X78464600Y-80072147D01*
X78464600Y-80072148D01*
X78501211Y-80256204D01*
X78640675Y-80464926D01*
X78693362Y-80500130D01*
X79000536Y-80807304D01*
X79000536Y-81640900D01*
X79049136Y-81885230D01*
X79187538Y-82092362D01*
X79394670Y-82230764D01*
X79639000Y-82279364D01*
X80889000Y-82279364D01*
X81133330Y-82230764D01*
X81340462Y-82092362D01*
X81478864Y-81885230D01*
X81527464Y-81640900D01*
X81527464Y-80715900D01*
X81478864Y-80471570D01*
X81340462Y-80264438D01*
X81133330Y-80126036D01*
X80889000Y-80077436D01*
X80055404Y-80077436D01*
X79798811Y-79820843D01*
X79828323Y-79801123D01*
X79964015Y-79598046D01*
X79973200Y-79551870D01*
X79982385Y-79598046D01*
X80118077Y-79801123D01*
X80321154Y-79936815D01*
X80560700Y-79984464D01*
X81135700Y-79984464D01*
X81375246Y-79936815D01*
X81578323Y-79801123D01*
X81595480Y-79775446D01*
X81633900Y-79868201D01*
X81853599Y-80087900D01*
X82140649Y-80206800D01*
X82184632Y-80206800D01*
X85006269Y-83028438D01*
X85041474Y-83081126D01*
X85128775Y-83139458D01*
X85078600Y-83260591D01*
X85078600Y-83679167D01*
X84982723Y-83535677D01*
X84779646Y-83399985D01*
X84540100Y-83352336D01*
X84172965Y-83352336D01*
X84177300Y-83348001D01*
X84296200Y-83060951D01*
X84296200Y-82750249D01*
X84177300Y-82463199D01*
X83957601Y-82243500D01*
X83670551Y-82124600D01*
X83359849Y-82124600D01*
X83072799Y-82243500D01*
X82853100Y-82463199D01*
X82734200Y-82750249D01*
X82734200Y-83060951D01*
X82849097Y-83338336D01*
X82388700Y-83338336D01*
X82149154Y-83385985D01*
X81946077Y-83521677D01*
X81810385Y-83724754D01*
X81762736Y-83964300D01*
X81762736Y-84026398D01*
X81615252Y-84026398D01*
X81774000Y-83867650D01*
X81774000Y-83314591D01*
X81677327Y-83081202D01*
X81498699Y-82902573D01*
X81265310Y-82805900D01*
X80549750Y-82805900D01*
X80391000Y-82964650D01*
X80391000Y-84026400D01*
X80411000Y-84026400D01*
X80411000Y-84280400D01*
X80391000Y-84280400D01*
X80391000Y-84300400D01*
X80137000Y-84300400D01*
X80137000Y-84280400D01*
X78912750Y-84280400D01*
X78754000Y-84439150D01*
X78754000Y-84992209D01*
X78850673Y-85225598D01*
X78958962Y-85333888D01*
X78783277Y-85451277D01*
X78647585Y-85654354D01*
X78638400Y-85700530D01*
X78629215Y-85654354D01*
X78493523Y-85451277D01*
X78290446Y-85315585D01*
X78050900Y-85267936D01*
X77475900Y-85267936D01*
X77236354Y-85315585D01*
X77033277Y-85451277D01*
X77000454Y-85500400D01*
X76317901Y-85500400D01*
X76286801Y-85469300D01*
X75999751Y-85350400D01*
X75689049Y-85350400D01*
X75401999Y-85469300D01*
X75370899Y-85500400D01*
X74815346Y-85500400D01*
X74782523Y-85451277D01*
X74579446Y-85315585D01*
X74339900Y-85267936D01*
X73764900Y-85267936D01*
X73525354Y-85315585D01*
X73322277Y-85451277D01*
X73186585Y-85654354D01*
X73177400Y-85700530D01*
X73168215Y-85654354D01*
X73032523Y-85451277D01*
X72829446Y-85315585D01*
X72589900Y-85267936D01*
X72014900Y-85267936D01*
X71775354Y-85315585D01*
X71572277Y-85451277D01*
X71436585Y-85654354D01*
X71388936Y-85893900D01*
X71388936Y-86152495D01*
X70719801Y-86821631D01*
X70769494Y-86747259D01*
X70799064Y-86598600D01*
X70799064Y-85379504D01*
X72255905Y-83922664D01*
X72602000Y-83922664D01*
X72750659Y-83893094D01*
X72876686Y-83808886D01*
X72960894Y-83682859D01*
X72990464Y-83534200D01*
X72990464Y-82734200D01*
X72960894Y-82585541D01*
X72883660Y-82469950D01*
X73067000Y-82469950D01*
X73067000Y-82710510D01*
X73163673Y-82943899D01*
X73342302Y-83122527D01*
X73575691Y-83219200D01*
X73866250Y-83219200D01*
X74025000Y-83060450D01*
X74025000Y-82311200D01*
X73225750Y-82311200D01*
X73067000Y-82469950D01*
X72883660Y-82469950D01*
X72876686Y-82459514D01*
X72750659Y-82375306D01*
X72602000Y-82345736D01*
X71702000Y-82345736D01*
X71553341Y-82375306D01*
X71427314Y-82459514D01*
X71343106Y-82585541D01*
X71313536Y-82734200D01*
X71313536Y-83080295D01*
X69883696Y-84510136D01*
X68730600Y-84510136D01*
X68581941Y-84539706D01*
X68455914Y-84623914D01*
X68371706Y-84749941D01*
X68342136Y-84898600D01*
X68342136Y-86084695D01*
X66910343Y-87516489D01*
X66800501Y-87352099D01*
X66393312Y-87080024D01*
X66034239Y-87008600D01*
X65791761Y-87008600D01*
X65432688Y-87080024D01*
X65025499Y-87352099D01*
X64753424Y-87759288D01*
X64657884Y-88239600D01*
X64753424Y-88719912D01*
X65025499Y-89127101D01*
X65432688Y-89399176D01*
X65791761Y-89470600D01*
X66034239Y-89470600D01*
X66393312Y-89399176D01*
X66800501Y-89127101D01*
X66971889Y-88870600D01*
X67017452Y-88870600D01*
X67079600Y-88882962D01*
X67141748Y-88870600D01*
X67325804Y-88833989D01*
X67534526Y-88694526D01*
X67569732Y-88641836D01*
X69224505Y-86987064D01*
X70410600Y-86987064D01*
X70559259Y-86957494D01*
X70633631Y-86907801D01*
X69930696Y-87610736D01*
X68873000Y-87610736D01*
X68724341Y-87640306D01*
X68598314Y-87724514D01*
X68514106Y-87850541D01*
X68484536Y-87999200D01*
X68484536Y-89373993D01*
X68378500Y-89117999D01*
X68158801Y-88898300D01*
X67871751Y-88779400D01*
X67561049Y-88779400D01*
X67273999Y-88898300D01*
X67054300Y-89117999D01*
X66935400Y-89405049D01*
X66935400Y-89715751D01*
X67054300Y-90002801D01*
X67273999Y-90222500D01*
X67561049Y-90341400D01*
X67605032Y-90341400D01*
X68228560Y-90964929D01*
X68228563Y-90964931D01*
X68299673Y-91036041D01*
X68075603Y-90886322D01*
X67731118Y-90817800D01*
X67498482Y-90817800D01*
X67153997Y-90886322D01*
X66763347Y-91147347D01*
X66502322Y-91537997D01*
X66410663Y-91998800D01*
X66502322Y-92459603D01*
X66763347Y-92850253D01*
X67084453Y-93064810D01*
X65805508Y-93065556D01*
X66152301Y-92718763D01*
X66345800Y-92251618D01*
X66345800Y-91745982D01*
X66152301Y-91278837D01*
X65794763Y-90921299D01*
X65327618Y-90727800D01*
X64821982Y-90727800D01*
X64354837Y-90921299D01*
X64126000Y-91150136D01*
X64126000Y-82802710D01*
X64471524Y-82802710D01*
X64592845Y-83032600D01*
X65786000Y-83032600D01*
X65786000Y-83012600D01*
X66040000Y-83012600D01*
X66040000Y-83032600D01*
X67233155Y-83032600D01*
X67354476Y-82802710D01*
X67184645Y-82392676D01*
X66794358Y-81964417D01*
X66567895Y-81858064D01*
X66763000Y-81858064D01*
X66911659Y-81828494D01*
X67037686Y-81744286D01*
X67121894Y-81618259D01*
X67151464Y-81469600D01*
X67151464Y-79769600D01*
X67121894Y-79620941D01*
X67037686Y-79494914D01*
X66911659Y-79410706D01*
X66763000Y-79381136D01*
X65063000Y-79381136D01*
X64914341Y-79410706D01*
X64788314Y-79494914D01*
X64704106Y-79620941D01*
X64674536Y-79769600D01*
X64674536Y-81469600D01*
X64704106Y-81618259D01*
X64788314Y-81744286D01*
X64914341Y-81828494D01*
X65063000Y-81858064D01*
X65258105Y-81858064D01*
X65031642Y-81964417D01*
X64641355Y-82392676D01*
X64471524Y-82802710D01*
X64126000Y-82802710D01*
X64126000Y-79076550D01*
X67510200Y-79076550D01*
X67510200Y-79392110D01*
X67589460Y-79583460D01*
X67535600Y-79713490D01*
X67535600Y-80029050D01*
X67694350Y-80187800D01*
X68568600Y-80187800D01*
X68568600Y-79363550D01*
X68543200Y-79338150D01*
X68543200Y-78917800D01*
X67668950Y-78917800D01*
X67510200Y-79076550D01*
X64126000Y-79076550D01*
X64126000Y-77607464D01*
X64354837Y-77836301D01*
X64821982Y-78029800D01*
X65327618Y-78029800D01*
X65794763Y-77836301D01*
X66152301Y-77478763D01*
X66345800Y-77011618D01*
X66345800Y-76505982D01*
X66152301Y-76038837D01*
X65804264Y-75690800D01*
X67087431Y-75690800D01*
X66763347Y-75907347D01*
X66763347Y-75907347D01*
G37*
X66763347Y-75907347D02*
X66502322Y-76297997D01*
X66410663Y-76758800D01*
X66502322Y-77219603D01*
X66763347Y-77610253D01*
X67153997Y-77871278D01*
X67498482Y-77939800D01*
X67623174Y-77939800D01*
X67606873Y-77956101D01*
X67510200Y-78189490D01*
X67510200Y-78505050D01*
X67668950Y-78663800D01*
X68543200Y-78663800D01*
X68543200Y-77839550D01*
X68384450Y-77680800D01*
X68360672Y-77680800D01*
X68466253Y-77610253D01*
X68727278Y-77219603D01*
X68818937Y-76758800D01*
X68727278Y-76297997D01*
X68466253Y-75907347D01*
X68142169Y-75690800D01*
X69627431Y-75690800D01*
X69303347Y-75907347D01*
X69042322Y-76297997D01*
X68950663Y-76758800D01*
X69042322Y-77219603D01*
X69303347Y-77610253D01*
X69551505Y-77776068D01*
X69321509Y-77680800D01*
X68955950Y-77680800D01*
X68797200Y-77839550D01*
X68797200Y-78663800D01*
X68817200Y-78663800D01*
X68817200Y-78917800D01*
X68797200Y-78917800D01*
X68797200Y-79742050D01*
X68822600Y-79767450D01*
X68822600Y-80187800D01*
X68842600Y-80187800D01*
X68842600Y-80441800D01*
X68822600Y-80441800D01*
X68822600Y-80461800D01*
X68568600Y-80461800D01*
X68568600Y-80441800D01*
X67694350Y-80441800D01*
X67535600Y-80600550D01*
X67535600Y-80916110D01*
X67632273Y-81149499D01*
X67810902Y-81328127D01*
X68044291Y-81424800D01*
X68356816Y-81424800D01*
X68342136Y-81498600D01*
X68342136Y-82378096D01*
X67302407Y-83417825D01*
X67233155Y-83286600D01*
X66040000Y-83286600D01*
X66040000Y-83306600D01*
X65786000Y-83306600D01*
X65786000Y-83286600D01*
X64592845Y-83286600D01*
X64471524Y-83516490D01*
X64641355Y-83926524D01*
X65031642Y-84354783D01*
X65429963Y-84541845D01*
X65025499Y-84812099D01*
X64753424Y-85219288D01*
X64657884Y-85699600D01*
X64753424Y-86179912D01*
X65025499Y-86587101D01*
X65432688Y-86859176D01*
X65791761Y-86930600D01*
X66034239Y-86930600D01*
X66393312Y-86859176D01*
X66800501Y-86587101D01*
X67072576Y-86179912D01*
X67168116Y-85699600D01*
X67107932Y-85397036D01*
X68917904Y-83587064D01*
X70410600Y-83587064D01*
X70559259Y-83557494D01*
X70685286Y-83473286D01*
X70769494Y-83347259D01*
X70799064Y-83198600D01*
X70799064Y-82012505D01*
X70847838Y-81963731D01*
X70900526Y-81928526D01*
X71039989Y-81719804D01*
X71076600Y-81535748D01*
X71088962Y-81473600D01*
X71076600Y-81411452D01*
X71076600Y-81061155D01*
X71175723Y-80994923D01*
X71228000Y-80916685D01*
X71228000Y-81155951D01*
X71346900Y-81443001D01*
X71566599Y-81662700D01*
X71853649Y-81781600D01*
X72164351Y-81781600D01*
X72451401Y-81662700D01*
X72456211Y-81657890D01*
X73067000Y-81657890D01*
X73067000Y-81898450D01*
X73225750Y-82057200D01*
X74025000Y-82057200D01*
X74025000Y-81307950D01*
X73866250Y-81149200D01*
X73575691Y-81149200D01*
X73342302Y-81245873D01*
X73163673Y-81424501D01*
X73067000Y-81657890D01*
X72456211Y-81657890D01*
X72671100Y-81443001D01*
X72790000Y-81155951D01*
X72790000Y-80845249D01*
X72671100Y-80558199D01*
X72640000Y-80527099D01*
X72640000Y-79335546D01*
X72652362Y-79273399D01*
X72634410Y-79183148D01*
X72603389Y-79027196D01*
X72463926Y-78818474D01*
X72411238Y-78783270D01*
X72016532Y-78388564D01*
X71981326Y-78335874D01*
X71772604Y-78196411D01*
X71588548Y-78159800D01*
X71526400Y-78147438D01*
X71464252Y-78159800D01*
X71183146Y-78159800D01*
X71150323Y-78110677D01*
X70947246Y-77974985D01*
X70707700Y-77927336D01*
X70333779Y-77927336D01*
X70615603Y-77871278D01*
X71006253Y-77610253D01*
X71267278Y-77219603D01*
X71358937Y-76758800D01*
X71267278Y-76297997D01*
X71006253Y-75907347D01*
X70682169Y-75690800D01*
X72167431Y-75690800D01*
X71843347Y-75907347D01*
X71582322Y-76297997D01*
X71490663Y-76758800D01*
X71582322Y-77219603D01*
X71843347Y-77610253D01*
X72233997Y-77871278D01*
X72578482Y-77939800D01*
X72811118Y-77939800D01*
X73155603Y-77871278D01*
X73546253Y-77610253D01*
X73807278Y-77219603D01*
X73898937Y-76758800D01*
X73807278Y-76297997D01*
X73546253Y-75907347D01*
X73222169Y-75690800D01*
X74707431Y-75690800D01*
X74383347Y-75907347D01*
X74122322Y-76297997D01*
X74030663Y-76758800D01*
X74122322Y-77219603D01*
X74383347Y-77610253D01*
X74773997Y-77871278D01*
X75111801Y-77938471D01*
X75111800Y-78219654D01*
X75062677Y-78252477D01*
X74926985Y-78455554D01*
X74879336Y-78695100D01*
X74879336Y-79270100D01*
X74926985Y-79509646D01*
X75062677Y-79712723D01*
X75265754Y-79848415D01*
X75311930Y-79857600D01*
X75265754Y-79866785D01*
X75062677Y-80002477D01*
X74926985Y-80205554D01*
X74879336Y-80445100D01*
X74879336Y-81020100D01*
X74920882Y-81228967D01*
X74728309Y-81149200D01*
X74437750Y-81149200D01*
X74279000Y-81307950D01*
X74279000Y-82057200D01*
X74299000Y-82057200D01*
X74299000Y-82311200D01*
X74279000Y-82311200D01*
X74279000Y-83060450D01*
X74437750Y-83219200D01*
X74728309Y-83219200D01*
X74961698Y-83122527D01*
X75043996Y-83040229D01*
X75052077Y-83052323D01*
X75151201Y-83118555D01*
X75151200Y-83403845D01*
X75077335Y-83453200D01*
X74905876Y-83453200D01*
X74876686Y-83409514D01*
X74750659Y-83325306D01*
X74602000Y-83295736D01*
X73702000Y-83295736D01*
X73553341Y-83325306D01*
X73427314Y-83409514D01*
X73343106Y-83535541D01*
X73313536Y-83684200D01*
X73313536Y-84484200D01*
X73343106Y-84632859D01*
X73427314Y-84758886D01*
X73553341Y-84843094D01*
X73702000Y-84872664D01*
X74602000Y-84872664D01*
X74750659Y-84843094D01*
X74876686Y-84758886D01*
X74905876Y-84715200D01*
X74975154Y-84715200D01*
X75052077Y-84830323D01*
X75255154Y-84966015D01*
X75494700Y-85013664D01*
X76069700Y-85013664D01*
X76309246Y-84966015D01*
X76428144Y-84886570D01*
X76468873Y-84984899D01*
X76647502Y-85163527D01*
X76880891Y-85260200D01*
X77246450Y-85260200D01*
X77405200Y-85101450D01*
X77405200Y-84277200D01*
X77659200Y-84277200D01*
X77659200Y-85101450D01*
X77817950Y-85260200D01*
X78183509Y-85260200D01*
X78416898Y-85163527D01*
X78595527Y-84984899D01*
X78692200Y-84751510D01*
X78692200Y-84435950D01*
X78533450Y-84277200D01*
X77659200Y-84277200D01*
X77405200Y-84277200D01*
X77385200Y-84277200D01*
X77385200Y-84023200D01*
X77405200Y-84023200D01*
X77405200Y-82499200D01*
X77659200Y-82499200D01*
X77659200Y-84023200D01*
X78533450Y-84023200D01*
X78692200Y-83864450D01*
X78692200Y-83548890D01*
X78595527Y-83315501D01*
X78594617Y-83314591D01*
X78754000Y-83314591D01*
X78754000Y-83867650D01*
X78912750Y-84026400D01*
X80137000Y-84026400D01*
X80137000Y-82964650D01*
X79978250Y-82805900D01*
X79262690Y-82805900D01*
X79029301Y-82902573D01*
X78850673Y-83081202D01*
X78754000Y-83314591D01*
X78594617Y-83314591D01*
X78541226Y-83261200D01*
X78595527Y-83206899D01*
X78692200Y-82973510D01*
X78692200Y-82657950D01*
X78533450Y-82499200D01*
X77659200Y-82499200D01*
X77405200Y-82499200D01*
X77385200Y-82499200D01*
X77385200Y-82245200D01*
X77405200Y-82245200D01*
X77405200Y-81420950D01*
X77659200Y-81420950D01*
X77659200Y-82245200D01*
X78533450Y-82245200D01*
X78692200Y-82086450D01*
X78692200Y-81770890D01*
X78595527Y-81537501D01*
X78416898Y-81358873D01*
X78183509Y-81262200D01*
X77817950Y-81262200D01*
X77659200Y-81420950D01*
X77405200Y-81420950D01*
X77246450Y-81262200D01*
X76880891Y-81262200D01*
X76647502Y-81358873D01*
X76468873Y-81537501D01*
X76428144Y-81635830D01*
X76373800Y-81599519D01*
X76373800Y-81495546D01*
X76422923Y-81462723D01*
X76558615Y-81259646D01*
X76606264Y-81020100D01*
X76606264Y-80445100D01*
X76558615Y-80205554D01*
X76422923Y-80002477D01*
X76219846Y-79866785D01*
X76173670Y-79857600D01*
X76219846Y-79848415D01*
X76422923Y-79712723D01*
X76558615Y-79509646D01*
X76606264Y-79270100D01*
X76606264Y-78695100D01*
X76558615Y-78455554D01*
X76422923Y-78252477D01*
X76373800Y-78219654D01*
X76373800Y-77328946D01*
X76386162Y-77266799D01*
X76362026Y-77145461D01*
X76438937Y-76758800D01*
X76347278Y-76297997D01*
X76086253Y-75907347D01*
X75762169Y-75690800D01*
X77247431Y-75690800D01*
X76923347Y-75907347D01*
X76662322Y-76297997D01*
X76570663Y-76758800D01*
X76662322Y-77219603D01*
X76923347Y-77610253D01*
X77313997Y-77871278D01*
X77658482Y-77939800D01*
X77891118Y-77939800D01*
X78235603Y-77871278D01*
X78626253Y-77610253D01*
X78887278Y-77219603D01*
X78978937Y-76758800D01*
X78887278Y-76297997D01*
X78626253Y-75907347D01*
X78302169Y-75690800D01*
X79787431Y-75690800D01*
X79463347Y-75907347D01*
X79202322Y-76297997D01*
X79110663Y-76758800D01*
X79202322Y-77219603D01*
X79463347Y-77610253D01*
X79853997Y-77871278D01*
X80198482Y-77939800D01*
X80217201Y-77939800D01*
X80217200Y-78374645D01*
X80118077Y-78440877D01*
X79982385Y-78643954D01*
X79973200Y-78690130D01*
X79964015Y-78643954D01*
X79828323Y-78440877D01*
X79625246Y-78305185D01*
X79385700Y-78257536D01*
X78810700Y-78257536D01*
X78571154Y-78305185D01*
X78368077Y-78440877D01*
X78232385Y-78643954D01*
X78184736Y-78883500D01*
X78184736Y-79358500D01*
X78232385Y-79598046D01*
X78368077Y-79801123D01*
X78464600Y-79865618D01*
X78464600Y-79947852D01*
X78452238Y-80010000D01*
X78464600Y-80072147D01*
X78464600Y-80072148D01*
X78501211Y-80256204D01*
X78640675Y-80464926D01*
X78693362Y-80500130D01*
X79000536Y-80807304D01*
X79000536Y-81640900D01*
X79049136Y-81885230D01*
X79187538Y-82092362D01*
X79394670Y-82230764D01*
X79639000Y-82279364D01*
X80889000Y-82279364D01*
X81133330Y-82230764D01*
X81340462Y-82092362D01*
X81478864Y-81885230D01*
X81527464Y-81640900D01*
X81527464Y-80715900D01*
X81478864Y-80471570D01*
X81340462Y-80264438D01*
X81133330Y-80126036D01*
X80889000Y-80077436D01*
X80055404Y-80077436D01*
X79798811Y-79820843D01*
X79828323Y-79801123D01*
X79964015Y-79598046D01*
X79973200Y-79551870D01*
X79982385Y-79598046D01*
X80118077Y-79801123D01*
X80321154Y-79936815D01*
X80560700Y-79984464D01*
X81135700Y-79984464D01*
X81375246Y-79936815D01*
X81578323Y-79801123D01*
X81595480Y-79775446D01*
X81633900Y-79868201D01*
X81853599Y-80087900D01*
X82140649Y-80206800D01*
X82184632Y-80206800D01*
X85006269Y-83028438D01*
X85041474Y-83081126D01*
X85128775Y-83139458D01*
X85078600Y-83260591D01*
X85078600Y-83679167D01*
X84982723Y-83535677D01*
X84779646Y-83399985D01*
X84540100Y-83352336D01*
X84172965Y-83352336D01*
X84177300Y-83348001D01*
X84296200Y-83060951D01*
X84296200Y-82750249D01*
X84177300Y-82463199D01*
X83957601Y-82243500D01*
X83670551Y-82124600D01*
X83359849Y-82124600D01*
X83072799Y-82243500D01*
X82853100Y-82463199D01*
X82734200Y-82750249D01*
X82734200Y-83060951D01*
X82849097Y-83338336D01*
X82388700Y-83338336D01*
X82149154Y-83385985D01*
X81946077Y-83521677D01*
X81810385Y-83724754D01*
X81762736Y-83964300D01*
X81762736Y-84026398D01*
X81615252Y-84026398D01*
X81774000Y-83867650D01*
X81774000Y-83314591D01*
X81677327Y-83081202D01*
X81498699Y-82902573D01*
X81265310Y-82805900D01*
X80549750Y-82805900D01*
X80391000Y-82964650D01*
X80391000Y-84026400D01*
X80411000Y-84026400D01*
X80411000Y-84280400D01*
X80391000Y-84280400D01*
X80391000Y-84300400D01*
X80137000Y-84300400D01*
X80137000Y-84280400D01*
X78912750Y-84280400D01*
X78754000Y-84439150D01*
X78754000Y-84992209D01*
X78850673Y-85225598D01*
X78958962Y-85333888D01*
X78783277Y-85451277D01*
X78647585Y-85654354D01*
X78638400Y-85700530D01*
X78629215Y-85654354D01*
X78493523Y-85451277D01*
X78290446Y-85315585D01*
X78050900Y-85267936D01*
X77475900Y-85267936D01*
X77236354Y-85315585D01*
X77033277Y-85451277D01*
X77000454Y-85500400D01*
X76317901Y-85500400D01*
X76286801Y-85469300D01*
X75999751Y-85350400D01*
X75689049Y-85350400D01*
X75401999Y-85469300D01*
X75370899Y-85500400D01*
X74815346Y-85500400D01*
X74782523Y-85451277D01*
X74579446Y-85315585D01*
X74339900Y-85267936D01*
X73764900Y-85267936D01*
X73525354Y-85315585D01*
X73322277Y-85451277D01*
X73186585Y-85654354D01*
X73177400Y-85700530D01*
X73168215Y-85654354D01*
X73032523Y-85451277D01*
X72829446Y-85315585D01*
X72589900Y-85267936D01*
X72014900Y-85267936D01*
X71775354Y-85315585D01*
X71572277Y-85451277D01*
X71436585Y-85654354D01*
X71388936Y-85893900D01*
X71388936Y-86152495D01*
X70719801Y-86821631D01*
X70769494Y-86747259D01*
X70799064Y-86598600D01*
X70799064Y-85379504D01*
X72255905Y-83922664D01*
X72602000Y-83922664D01*
X72750659Y-83893094D01*
X72876686Y-83808886D01*
X72960894Y-83682859D01*
X72990464Y-83534200D01*
X72990464Y-82734200D01*
X72960894Y-82585541D01*
X72883660Y-82469950D01*
X73067000Y-82469950D01*
X73067000Y-82710510D01*
X73163673Y-82943899D01*
X73342302Y-83122527D01*
X73575691Y-83219200D01*
X73866250Y-83219200D01*
X74025000Y-83060450D01*
X74025000Y-82311200D01*
X73225750Y-82311200D01*
X73067000Y-82469950D01*
X72883660Y-82469950D01*
X72876686Y-82459514D01*
X72750659Y-82375306D01*
X72602000Y-82345736D01*
X71702000Y-82345736D01*
X71553341Y-82375306D01*
X71427314Y-82459514D01*
X71343106Y-82585541D01*
X71313536Y-82734200D01*
X71313536Y-83080295D01*
X69883696Y-84510136D01*
X68730600Y-84510136D01*
X68581941Y-84539706D01*
X68455914Y-84623914D01*
X68371706Y-84749941D01*
X68342136Y-84898600D01*
X68342136Y-86084695D01*
X66910343Y-87516489D01*
X66800501Y-87352099D01*
X66393312Y-87080024D01*
X66034239Y-87008600D01*
X65791761Y-87008600D01*
X65432688Y-87080024D01*
X65025499Y-87352099D01*
X64753424Y-87759288D01*
X64657884Y-88239600D01*
X64753424Y-88719912D01*
X65025499Y-89127101D01*
X65432688Y-89399176D01*
X65791761Y-89470600D01*
X66034239Y-89470600D01*
X66393312Y-89399176D01*
X66800501Y-89127101D01*
X66971889Y-88870600D01*
X67017452Y-88870600D01*
X67079600Y-88882962D01*
X67141748Y-88870600D01*
X67325804Y-88833989D01*
X67534526Y-88694526D01*
X67569732Y-88641836D01*
X69224505Y-86987064D01*
X70410600Y-86987064D01*
X70559259Y-86957494D01*
X70633631Y-86907801D01*
X69930696Y-87610736D01*
X68873000Y-87610736D01*
X68724341Y-87640306D01*
X68598314Y-87724514D01*
X68514106Y-87850541D01*
X68484536Y-87999200D01*
X68484536Y-89373993D01*
X68378500Y-89117999D01*
X68158801Y-88898300D01*
X67871751Y-88779400D01*
X67561049Y-88779400D01*
X67273999Y-88898300D01*
X67054300Y-89117999D01*
X66935400Y-89405049D01*
X66935400Y-89715751D01*
X67054300Y-90002801D01*
X67273999Y-90222500D01*
X67561049Y-90341400D01*
X67605032Y-90341400D01*
X68228560Y-90964929D01*
X68228563Y-90964931D01*
X68299673Y-91036041D01*
X68075603Y-90886322D01*
X67731118Y-90817800D01*
X67498482Y-90817800D01*
X67153997Y-90886322D01*
X66763347Y-91147347D01*
X66502322Y-91537997D01*
X66410663Y-91998800D01*
X66502322Y-92459603D01*
X66763347Y-92850253D01*
X67084453Y-93064810D01*
X65805508Y-93065556D01*
X66152301Y-92718763D01*
X66345800Y-92251618D01*
X66345800Y-91745982D01*
X66152301Y-91278837D01*
X65794763Y-90921299D01*
X65327618Y-90727800D01*
X64821982Y-90727800D01*
X64354837Y-90921299D01*
X64126000Y-91150136D01*
X64126000Y-82802710D01*
X64471524Y-82802710D01*
X64592845Y-83032600D01*
X65786000Y-83032600D01*
X65786000Y-83012600D01*
X66040000Y-83012600D01*
X66040000Y-83032600D01*
X67233155Y-83032600D01*
X67354476Y-82802710D01*
X67184645Y-82392676D01*
X66794358Y-81964417D01*
X66567895Y-81858064D01*
X66763000Y-81858064D01*
X66911659Y-81828494D01*
X67037686Y-81744286D01*
X67121894Y-81618259D01*
X67151464Y-81469600D01*
X67151464Y-79769600D01*
X67121894Y-79620941D01*
X67037686Y-79494914D01*
X66911659Y-79410706D01*
X66763000Y-79381136D01*
X65063000Y-79381136D01*
X64914341Y-79410706D01*
X64788314Y-79494914D01*
X64704106Y-79620941D01*
X64674536Y-79769600D01*
X64674536Y-81469600D01*
X64704106Y-81618259D01*
X64788314Y-81744286D01*
X64914341Y-81828494D01*
X65063000Y-81858064D01*
X65258105Y-81858064D01*
X65031642Y-81964417D01*
X64641355Y-82392676D01*
X64471524Y-82802710D01*
X64126000Y-82802710D01*
X64126000Y-79076550D01*
X67510200Y-79076550D01*
X67510200Y-79392110D01*
X67589460Y-79583460D01*
X67535600Y-79713490D01*
X67535600Y-80029050D01*
X67694350Y-80187800D01*
X68568600Y-80187800D01*
X68568600Y-79363550D01*
X68543200Y-79338150D01*
X68543200Y-78917800D01*
X67668950Y-78917800D01*
X67510200Y-79076550D01*
X64126000Y-79076550D01*
X64126000Y-77607464D01*
X64354837Y-77836301D01*
X64821982Y-78029800D01*
X65327618Y-78029800D01*
X65794763Y-77836301D01*
X66152301Y-77478763D01*
X66345800Y-77011618D01*
X66345800Y-76505982D01*
X66152301Y-76038837D01*
X65804264Y-75690800D01*
X67087431Y-75690800D01*
X66763347Y-75907347D01*
G36*
X81810385Y-84778846D02*
X81946077Y-84981923D01*
X82149154Y-85117615D01*
X82195330Y-85126800D01*
X82149154Y-85135985D01*
X81946077Y-85271677D01*
X81810385Y-85474754D01*
X81762736Y-85714300D01*
X81762736Y-86289300D01*
X81810385Y-86528846D01*
X81946077Y-86731923D01*
X81989038Y-86760629D01*
X81982838Y-86791800D01*
X82005305Y-86904747D01*
X82031811Y-87038003D01*
X82171274Y-87246726D01*
X82223964Y-87281932D01*
X82618669Y-87676638D01*
X82653874Y-87729326D01*
X82795665Y-87824068D01*
X82627699Y-87936299D01*
X82460200Y-88186979D01*
X82460200Y-87847491D01*
X82363527Y-87614102D01*
X82184899Y-87435473D01*
X81951510Y-87338800D01*
X81260950Y-87338800D01*
X81102200Y-87497550D01*
X81102200Y-88696800D01*
X81122200Y-88696800D01*
X81122200Y-88950800D01*
X81102200Y-88950800D01*
X81102200Y-90150050D01*
X81260950Y-90308800D01*
X81951510Y-90308800D01*
X82184899Y-90212127D01*
X82363527Y-90033498D01*
X82460200Y-89800109D01*
X82460200Y-89460621D01*
X82627699Y-89711301D01*
X83034888Y-89983376D01*
X83393961Y-90054800D01*
X83636439Y-90054800D01*
X83995512Y-89983376D01*
X84402701Y-89711301D01*
X84674776Y-89304112D01*
X84770316Y-88823800D01*
X84674776Y-88343488D01*
X84659183Y-88320151D01*
X84860268Y-88521236D01*
X84800084Y-88823800D01*
X84895624Y-89304112D01*
X85167699Y-89711301D01*
X85353358Y-89835355D01*
X84992565Y-90196148D01*
X84939874Y-90231355D01*
X84808401Y-90428120D01*
X84800411Y-90440078D01*
X84751438Y-90686281D01*
X84763800Y-90748429D01*
X84763800Y-91000044D01*
X84543347Y-91147347D01*
X84282322Y-91537997D01*
X84190663Y-91998800D01*
X84282322Y-92459603D01*
X84543347Y-92850253D01*
X84848953Y-93054453D01*
X83399382Y-93055298D01*
X83706253Y-92850253D01*
X83967278Y-92459603D01*
X84058937Y-91998800D01*
X83967278Y-91537997D01*
X83706253Y-91147347D01*
X83315603Y-90886322D01*
X82971118Y-90817800D01*
X82738482Y-90817800D01*
X82393997Y-90886322D01*
X82003347Y-91147347D01*
X81742322Y-91537997D01*
X81650663Y-91998800D01*
X81742322Y-92459603D01*
X82003347Y-92850253D01*
X82311167Y-93055933D01*
X80857164Y-93056781D01*
X81166253Y-92850253D01*
X81427278Y-92459603D01*
X81518937Y-91998800D01*
X81427278Y-91537997D01*
X81166253Y-91147347D01*
X80775603Y-90886322D01*
X80431118Y-90817800D01*
X80198482Y-90817800D01*
X79853997Y-90886322D01*
X79463347Y-91147347D01*
X79202322Y-91537997D01*
X79110663Y-91998800D01*
X79202322Y-92459603D01*
X79463347Y-92850253D01*
X79773382Y-93057412D01*
X78314946Y-93058263D01*
X78626253Y-92850253D01*
X78887278Y-92459603D01*
X78978937Y-91998800D01*
X78887278Y-91537997D01*
X78626253Y-91147347D01*
X78235603Y-90886322D01*
X77891118Y-90817800D01*
X77658482Y-90817800D01*
X77514757Y-90846388D01*
X76939908Y-90271540D01*
X76986110Y-90290676D01*
X77216000Y-90169355D01*
X77216000Y-88976200D01*
X77470000Y-88976200D01*
X77470000Y-90169355D01*
X77699890Y-90290676D01*
X78109924Y-90120845D01*
X78538183Y-89730558D01*
X78784486Y-89206092D01*
X78733813Y-89109550D01*
X79490200Y-89109550D01*
X79490200Y-89800109D01*
X79586873Y-90033498D01*
X79765501Y-90212127D01*
X79998890Y-90308800D01*
X80689450Y-90308800D01*
X80848200Y-90150050D01*
X80848200Y-88950800D01*
X79648950Y-88950800D01*
X79490200Y-89109550D01*
X78733813Y-89109550D01*
X78663819Y-88976200D01*
X77470000Y-88976200D01*
X77216000Y-88976200D01*
X77196000Y-88976200D01*
X77196000Y-88722200D01*
X77216000Y-88722200D01*
X77216000Y-88702200D01*
X77470000Y-88702200D01*
X77470000Y-88722200D01*
X78663819Y-88722200D01*
X78784486Y-88492308D01*
X78538183Y-87967842D01*
X78525408Y-87956200D01*
X79287452Y-87956200D01*
X79349600Y-87968562D01*
X79411748Y-87956200D01*
X79490200Y-87940595D01*
X79490200Y-88538050D01*
X79648950Y-88696800D01*
X80848200Y-88696800D01*
X80848200Y-87497550D01*
X80689450Y-87338800D01*
X80121475Y-87338800D01*
X80144400Y-87223548D01*
X80144400Y-87223547D01*
X80156762Y-87161401D01*
X80144400Y-87099254D01*
X80144400Y-86877755D01*
X80243523Y-86811523D01*
X80379215Y-86608446D01*
X80426864Y-86368900D01*
X80426864Y-85893900D01*
X80379215Y-85654354D01*
X80276680Y-85500900D01*
X80391002Y-85500900D01*
X80391002Y-85342152D01*
X80549750Y-85500900D01*
X81265310Y-85500900D01*
X81498699Y-85404227D01*
X81677327Y-85225598D01*
X81774000Y-84992209D01*
X81774000Y-84595928D01*
X81810385Y-84778846D01*
X81810385Y-84778846D01*
G37*
X81810385Y-84778846D02*
X81946077Y-84981923D01*
X82149154Y-85117615D01*
X82195330Y-85126800D01*
X82149154Y-85135985D01*
X81946077Y-85271677D01*
X81810385Y-85474754D01*
X81762736Y-85714300D01*
X81762736Y-86289300D01*
X81810385Y-86528846D01*
X81946077Y-86731923D01*
X81989038Y-86760629D01*
X81982838Y-86791800D01*
X82005305Y-86904747D01*
X82031811Y-87038003D01*
X82171274Y-87246726D01*
X82223964Y-87281932D01*
X82618669Y-87676638D01*
X82653874Y-87729326D01*
X82795665Y-87824068D01*
X82627699Y-87936299D01*
X82460200Y-88186979D01*
X82460200Y-87847491D01*
X82363527Y-87614102D01*
X82184899Y-87435473D01*
X81951510Y-87338800D01*
X81260950Y-87338800D01*
X81102200Y-87497550D01*
X81102200Y-88696800D01*
X81122200Y-88696800D01*
X81122200Y-88950800D01*
X81102200Y-88950800D01*
X81102200Y-90150050D01*
X81260950Y-90308800D01*
X81951510Y-90308800D01*
X82184899Y-90212127D01*
X82363527Y-90033498D01*
X82460200Y-89800109D01*
X82460200Y-89460621D01*
X82627699Y-89711301D01*
X83034888Y-89983376D01*
X83393961Y-90054800D01*
X83636439Y-90054800D01*
X83995512Y-89983376D01*
X84402701Y-89711301D01*
X84674776Y-89304112D01*
X84770316Y-88823800D01*
X84674776Y-88343488D01*
X84659183Y-88320151D01*
X84860268Y-88521236D01*
X84800084Y-88823800D01*
X84895624Y-89304112D01*
X85167699Y-89711301D01*
X85353358Y-89835355D01*
X84992565Y-90196148D01*
X84939874Y-90231355D01*
X84808401Y-90428120D01*
X84800411Y-90440078D01*
X84751438Y-90686281D01*
X84763800Y-90748429D01*
X84763800Y-91000044D01*
X84543347Y-91147347D01*
X84282322Y-91537997D01*
X84190663Y-91998800D01*
X84282322Y-92459603D01*
X84543347Y-92850253D01*
X84848953Y-93054453D01*
X83399382Y-93055298D01*
X83706253Y-92850253D01*
X83967278Y-92459603D01*
X84058937Y-91998800D01*
X83967278Y-91537997D01*
X83706253Y-91147347D01*
X83315603Y-90886322D01*
X82971118Y-90817800D01*
X82738482Y-90817800D01*
X82393997Y-90886322D01*
X82003347Y-91147347D01*
X81742322Y-91537997D01*
X81650663Y-91998800D01*
X81742322Y-92459603D01*
X82003347Y-92850253D01*
X82311167Y-93055933D01*
X80857164Y-93056781D01*
X81166253Y-92850253D01*
X81427278Y-92459603D01*
X81518937Y-91998800D01*
X81427278Y-91537997D01*
X81166253Y-91147347D01*
X80775603Y-90886322D01*
X80431118Y-90817800D01*
X80198482Y-90817800D01*
X79853997Y-90886322D01*
X79463347Y-91147347D01*
X79202322Y-91537997D01*
X79110663Y-91998800D01*
X79202322Y-92459603D01*
X79463347Y-92850253D01*
X79773382Y-93057412D01*
X78314946Y-93058263D01*
X78626253Y-92850253D01*
X78887278Y-92459603D01*
X78978937Y-91998800D01*
X78887278Y-91537997D01*
X78626253Y-91147347D01*
X78235603Y-90886322D01*
X77891118Y-90817800D01*
X77658482Y-90817800D01*
X77514757Y-90846388D01*
X76939908Y-90271540D01*
X76986110Y-90290676D01*
X77216000Y-90169355D01*
X77216000Y-88976200D01*
X77470000Y-88976200D01*
X77470000Y-90169355D01*
X77699890Y-90290676D01*
X78109924Y-90120845D01*
X78538183Y-89730558D01*
X78784486Y-89206092D01*
X78733813Y-89109550D01*
X79490200Y-89109550D01*
X79490200Y-89800109D01*
X79586873Y-90033498D01*
X79765501Y-90212127D01*
X79998890Y-90308800D01*
X80689450Y-90308800D01*
X80848200Y-90150050D01*
X80848200Y-88950800D01*
X79648950Y-88950800D01*
X79490200Y-89109550D01*
X78733813Y-89109550D01*
X78663819Y-88976200D01*
X77470000Y-88976200D01*
X77216000Y-88976200D01*
X77196000Y-88976200D01*
X77196000Y-88722200D01*
X77216000Y-88722200D01*
X77216000Y-88702200D01*
X77470000Y-88702200D01*
X77470000Y-88722200D01*
X78663819Y-88722200D01*
X78784486Y-88492308D01*
X78538183Y-87967842D01*
X78525408Y-87956200D01*
X79287452Y-87956200D01*
X79349600Y-87968562D01*
X79411748Y-87956200D01*
X79490200Y-87940595D01*
X79490200Y-88538050D01*
X79648950Y-88696800D01*
X80848200Y-88696800D01*
X80848200Y-87497550D01*
X80689450Y-87338800D01*
X80121475Y-87338800D01*
X80144400Y-87223548D01*
X80144400Y-87223547D01*
X80156762Y-87161401D01*
X80144400Y-87099254D01*
X80144400Y-86877755D01*
X80243523Y-86811523D01*
X80379215Y-86608446D01*
X80426864Y-86368900D01*
X80426864Y-85893900D01*
X80379215Y-85654354D01*
X80276680Y-85500900D01*
X80391002Y-85500900D01*
X80391002Y-85342152D01*
X80549750Y-85500900D01*
X81265310Y-85500900D01*
X81498699Y-85404227D01*
X81677327Y-85225598D01*
X81774000Y-84992209D01*
X81774000Y-84595928D01*
X81810385Y-84778846D01*
G36*
X104077400Y-81646710D02*
X104174073Y-81880099D01*
X104352702Y-82058727D01*
X104586091Y-82155400D01*
X104925579Y-82155400D01*
X104674899Y-82322899D01*
X104402824Y-82730088D01*
X104307284Y-83210400D01*
X104402824Y-83690712D01*
X104674899Y-84097901D01*
X105082088Y-84369976D01*
X105441161Y-84441400D01*
X105683639Y-84441400D01*
X106042712Y-84369976D01*
X106449901Y-84097901D01*
X106721976Y-83690712D01*
X106782800Y-83384927D01*
X106782801Y-85575874D01*
X106721976Y-85270088D01*
X106449901Y-84862899D01*
X106042712Y-84590824D01*
X105683639Y-84519400D01*
X105441161Y-84519400D01*
X105082088Y-84590824D01*
X104674899Y-84862899D01*
X104402824Y-85270088D01*
X104307284Y-85750400D01*
X104402824Y-86230712D01*
X104674899Y-86637901D01*
X105082088Y-86909976D01*
X105441161Y-86981400D01*
X105683639Y-86981400D01*
X106042712Y-86909976D01*
X106449901Y-86637901D01*
X106721976Y-86230712D01*
X106782801Y-85924926D01*
X106782801Y-88115874D01*
X106721976Y-87810088D01*
X106449901Y-87402899D01*
X106042712Y-87130824D01*
X105683639Y-87059400D01*
X105441161Y-87059400D01*
X105082088Y-87130824D01*
X104674899Y-87402899D01*
X104402824Y-87810088D01*
X104307284Y-88290400D01*
X104402824Y-88770712D01*
X104674899Y-89177901D01*
X105082088Y-89449976D01*
X105441161Y-89521400D01*
X105683639Y-89521400D01*
X106042712Y-89449976D01*
X106449901Y-89177901D01*
X106721976Y-88770712D01*
X106782801Y-88464925D01*
X106782801Y-91269337D01*
X106434763Y-90921299D01*
X105967618Y-90727800D01*
X105461982Y-90727800D01*
X104994837Y-90921299D01*
X104637299Y-91278837D01*
X104443800Y-91745982D01*
X104443800Y-92251618D01*
X104637299Y-92718763D01*
X104961264Y-93042728D01*
X103737127Y-93043442D01*
X104026253Y-92850253D01*
X104287278Y-92459603D01*
X104378937Y-91998800D01*
X104287278Y-91537997D01*
X104026253Y-91147347D01*
X103635603Y-90886322D01*
X103291118Y-90817800D01*
X103058482Y-90817800D01*
X102713997Y-90886322D01*
X102323347Y-91147347D01*
X102062322Y-91537997D01*
X101995925Y-91871798D01*
X101905430Y-91871798D01*
X102026714Y-91649759D01*
X101787189Y-91143666D01*
X101372223Y-90767759D01*
X100983839Y-90606896D01*
X100761800Y-90728885D01*
X100761800Y-91871800D01*
X100781800Y-91871800D01*
X100781800Y-92125800D01*
X100761800Y-92125800D01*
X100761800Y-92145800D01*
X100507800Y-92145800D01*
X100507800Y-92125800D01*
X100487800Y-92125800D01*
X100487800Y-91871800D01*
X100507800Y-91871800D01*
X100507800Y-90728885D01*
X100285761Y-90606896D01*
X99897377Y-90767759D01*
X99482411Y-91143666D01*
X99242886Y-91649759D01*
X99364170Y-91871798D01*
X99273675Y-91871798D01*
X99207278Y-91537997D01*
X98946253Y-91147347D01*
X98555603Y-90886322D01*
X98211118Y-90817800D01*
X97978482Y-90817800D01*
X97633997Y-90886322D01*
X97243347Y-91147347D01*
X96982322Y-91537997D01*
X96890663Y-91998800D01*
X96982322Y-92459603D01*
X97243347Y-92850253D01*
X97537882Y-93047056D01*
X96110473Y-93047888D01*
X96406253Y-92850253D01*
X96667278Y-92459603D01*
X96758937Y-91998800D01*
X96667278Y-91537997D01*
X96406253Y-91147347D01*
X96206187Y-91013667D01*
X96276601Y-90984500D01*
X96496300Y-90764801D01*
X96615200Y-90477751D01*
X96615200Y-90167049D01*
X96570665Y-90059532D01*
X96584400Y-90062264D01*
X98284400Y-90062264D01*
X98433059Y-90032694D01*
X98559086Y-89948486D01*
X98643294Y-89822459D01*
X98672864Y-89673800D01*
X98672864Y-87973800D01*
X98643294Y-87825141D01*
X98559086Y-87699114D01*
X98433059Y-87614906D01*
X98284400Y-87585336D01*
X96584400Y-87585336D01*
X96435741Y-87614906D01*
X96309714Y-87699114D01*
X96225506Y-87825141D01*
X96195936Y-87973800D01*
X96195936Y-88168905D01*
X96089583Y-87942442D01*
X95661324Y-87552155D01*
X95251290Y-87382324D01*
X95021400Y-87503645D01*
X95021400Y-88696800D01*
X95041400Y-88696800D01*
X95041400Y-88950800D01*
X95021400Y-88950800D01*
X95021400Y-88970800D01*
X94767400Y-88970800D01*
X94767400Y-88950800D01*
X94747400Y-88950800D01*
X94747400Y-88696800D01*
X94767400Y-88696800D01*
X94767400Y-87503645D01*
X94537510Y-87382324D01*
X94127476Y-87552155D01*
X93699217Y-87942442D01*
X93512155Y-88340763D01*
X93241901Y-87936299D01*
X92834712Y-87664224D01*
X92475639Y-87592800D01*
X92233161Y-87592800D01*
X91874088Y-87664224D01*
X91466899Y-87936299D01*
X91194824Y-88343488D01*
X91099284Y-88823800D01*
X91194824Y-89304112D01*
X91453602Y-89691400D01*
X91320368Y-89691400D01*
X90978800Y-89349832D01*
X90978800Y-86244348D01*
X90991162Y-86182200D01*
X90942189Y-85935996D01*
X90908246Y-85885197D01*
X90802726Y-85727274D01*
X90750038Y-85692069D01*
X88921400Y-83863432D01*
X88921400Y-83270641D01*
X88934224Y-83335112D01*
X89206299Y-83742301D01*
X89613488Y-84014376D01*
X89972561Y-84085800D01*
X90215039Y-84085800D01*
X90396364Y-84049732D01*
X91127669Y-84781038D01*
X91162874Y-84833726D01*
X91371596Y-84973189D01*
X91555652Y-85009800D01*
X91617799Y-85022162D01*
X91679946Y-85009800D01*
X93964160Y-85009800D01*
X93949677Y-85019477D01*
X93813985Y-85222554D01*
X93766336Y-85462100D01*
X93766336Y-85937100D01*
X93813985Y-86176646D01*
X93949677Y-86379723D01*
X94152754Y-86515415D01*
X94392300Y-86563064D01*
X94967300Y-86563064D01*
X95206846Y-86515415D01*
X95409923Y-86379723D01*
X95545615Y-86176646D01*
X95554800Y-86130470D01*
X95563985Y-86176646D01*
X95699677Y-86379723D01*
X95902754Y-86515415D01*
X96142300Y-86563064D01*
X96717300Y-86563064D01*
X96956846Y-86515415D01*
X97159923Y-86379723D01*
X97192746Y-86330600D01*
X97777654Y-86330600D01*
X97810477Y-86379723D01*
X97934652Y-86462694D01*
X97946211Y-86520804D01*
X98085675Y-86729526D01*
X98138363Y-86764731D01*
X98548552Y-87174920D01*
X98630475Y-87297526D01*
X98683162Y-87332730D01*
X99927600Y-88577169D01*
X99927601Y-89188498D01*
X99896500Y-89219599D01*
X99777600Y-89506649D01*
X99777600Y-89817351D01*
X99896500Y-90104401D01*
X100116199Y-90324100D01*
X100403249Y-90443000D01*
X100713951Y-90443000D01*
X101001001Y-90324100D01*
X101220700Y-90104401D01*
X101339600Y-89817351D01*
X101339600Y-89506649D01*
X101220700Y-89219599D01*
X101189600Y-89188499D01*
X101189600Y-88377946D01*
X101201962Y-88315799D01*
X101180089Y-88205838D01*
X101152989Y-88069596D01*
X101013526Y-87860874D01*
X100960839Y-87825670D01*
X99944768Y-86809600D01*
X100004850Y-86809600D01*
X100163600Y-86650850D01*
X100163600Y-85826600D01*
X100143600Y-85826600D01*
X100143600Y-85572600D01*
X100163600Y-85572600D01*
X100163600Y-85552600D01*
X100417600Y-85552600D01*
X100417600Y-85572600D01*
X100437600Y-85572600D01*
X100437600Y-85826600D01*
X100417600Y-85826600D01*
X100417600Y-86650850D01*
X100576350Y-86809600D01*
X100883979Y-86809600D01*
X100929411Y-87038003D01*
X100957489Y-87080024D01*
X101068875Y-87246726D01*
X101121562Y-87281930D01*
X101827468Y-87987836D01*
X101767284Y-88290400D01*
X101862824Y-88770712D01*
X102134899Y-89177901D01*
X102542088Y-89449976D01*
X102901161Y-89521400D01*
X103143639Y-89521400D01*
X103502712Y-89449976D01*
X103909901Y-89177901D01*
X104181976Y-88770712D01*
X104277516Y-88290400D01*
X104181976Y-87810088D01*
X103909901Y-87402899D01*
X103502712Y-87130824D01*
X103143639Y-87059400D01*
X102901161Y-87059400D01*
X102719836Y-87095468D01*
X102518751Y-86894383D01*
X102542088Y-86909976D01*
X102901161Y-86981400D01*
X103143639Y-86981400D01*
X103502712Y-86909976D01*
X103909901Y-86637901D01*
X104181976Y-86230712D01*
X104277516Y-85750400D01*
X104181976Y-85270088D01*
X103909901Y-84862899D01*
X103502712Y-84590824D01*
X103143639Y-84519400D01*
X102901161Y-84519400D01*
X102542088Y-84590824D01*
X102154800Y-84849602D01*
X102154800Y-84486946D01*
X102167162Y-84424799D01*
X102138439Y-84280400D01*
X102118189Y-84178596D01*
X101978726Y-83969874D01*
X101926038Y-83934670D01*
X101547532Y-83556164D01*
X101512326Y-83503474D01*
X101303604Y-83364011D01*
X101245494Y-83352452D01*
X101162523Y-83228277D01*
X100959446Y-83092585D01*
X100913270Y-83083400D01*
X100959446Y-83074215D01*
X101162523Y-82938523D01*
X101228755Y-82839400D01*
X101759032Y-82839400D01*
X101827468Y-82907836D01*
X101767284Y-83210400D01*
X101862824Y-83690712D01*
X102134899Y-84097901D01*
X102542088Y-84369976D01*
X102901161Y-84441400D01*
X103143639Y-84441400D01*
X103502712Y-84369976D01*
X103909901Y-84097901D01*
X104181976Y-83690712D01*
X104277516Y-83210400D01*
X104181976Y-82730088D01*
X103909901Y-82322899D01*
X103502712Y-82050824D01*
X103143639Y-81979400D01*
X102901161Y-81979400D01*
X102719836Y-82015468D01*
X102518750Y-81814382D01*
X102542088Y-81829976D01*
X102901161Y-81901400D01*
X103143639Y-81901400D01*
X103502712Y-81829976D01*
X103909901Y-81557901D01*
X104077400Y-81307221D01*
X104077400Y-81646710D01*
X104077400Y-81646710D01*
G37*
X104077400Y-81646710D02*
X104174073Y-81880099D01*
X104352702Y-82058727D01*
X104586091Y-82155400D01*
X104925579Y-82155400D01*
X104674899Y-82322899D01*
X104402824Y-82730088D01*
X104307284Y-83210400D01*
X104402824Y-83690712D01*
X104674899Y-84097901D01*
X105082088Y-84369976D01*
X105441161Y-84441400D01*
X105683639Y-84441400D01*
X106042712Y-84369976D01*
X106449901Y-84097901D01*
X106721976Y-83690712D01*
X106782800Y-83384927D01*
X106782801Y-85575874D01*
X106721976Y-85270088D01*
X106449901Y-84862899D01*
X106042712Y-84590824D01*
X105683639Y-84519400D01*
X105441161Y-84519400D01*
X105082088Y-84590824D01*
X104674899Y-84862899D01*
X104402824Y-85270088D01*
X104307284Y-85750400D01*
X104402824Y-86230712D01*
X104674899Y-86637901D01*
X105082088Y-86909976D01*
X105441161Y-86981400D01*
X105683639Y-86981400D01*
X106042712Y-86909976D01*
X106449901Y-86637901D01*
X106721976Y-86230712D01*
X106782801Y-85924926D01*
X106782801Y-88115874D01*
X106721976Y-87810088D01*
X106449901Y-87402899D01*
X106042712Y-87130824D01*
X105683639Y-87059400D01*
X105441161Y-87059400D01*
X105082088Y-87130824D01*
X104674899Y-87402899D01*
X104402824Y-87810088D01*
X104307284Y-88290400D01*
X104402824Y-88770712D01*
X104674899Y-89177901D01*
X105082088Y-89449976D01*
X105441161Y-89521400D01*
X105683639Y-89521400D01*
X106042712Y-89449976D01*
X106449901Y-89177901D01*
X106721976Y-88770712D01*
X106782801Y-88464925D01*
X106782801Y-91269337D01*
X106434763Y-90921299D01*
X105967618Y-90727800D01*
X105461982Y-90727800D01*
X104994837Y-90921299D01*
X104637299Y-91278837D01*
X104443800Y-91745982D01*
X104443800Y-92251618D01*
X104637299Y-92718763D01*
X104961264Y-93042728D01*
X103737127Y-93043442D01*
X104026253Y-92850253D01*
X104287278Y-92459603D01*
X104378937Y-91998800D01*
X104287278Y-91537997D01*
X104026253Y-91147347D01*
X103635603Y-90886322D01*
X103291118Y-90817800D01*
X103058482Y-90817800D01*
X102713997Y-90886322D01*
X102323347Y-91147347D01*
X102062322Y-91537997D01*
X101995925Y-91871798D01*
X101905430Y-91871798D01*
X102026714Y-91649759D01*
X101787189Y-91143666D01*
X101372223Y-90767759D01*
X100983839Y-90606896D01*
X100761800Y-90728885D01*
X100761800Y-91871800D01*
X100781800Y-91871800D01*
X100781800Y-92125800D01*
X100761800Y-92125800D01*
X100761800Y-92145800D01*
X100507800Y-92145800D01*
X100507800Y-92125800D01*
X100487800Y-92125800D01*
X100487800Y-91871800D01*
X100507800Y-91871800D01*
X100507800Y-90728885D01*
X100285761Y-90606896D01*
X99897377Y-90767759D01*
X99482411Y-91143666D01*
X99242886Y-91649759D01*
X99364170Y-91871798D01*
X99273675Y-91871798D01*
X99207278Y-91537997D01*
X98946253Y-91147347D01*
X98555603Y-90886322D01*
X98211118Y-90817800D01*
X97978482Y-90817800D01*
X97633997Y-90886322D01*
X97243347Y-91147347D01*
X96982322Y-91537997D01*
X96890663Y-91998800D01*
X96982322Y-92459603D01*
X97243347Y-92850253D01*
X97537882Y-93047056D01*
X96110473Y-93047888D01*
X96406253Y-92850253D01*
X96667278Y-92459603D01*
X96758937Y-91998800D01*
X96667278Y-91537997D01*
X96406253Y-91147347D01*
X96206187Y-91013667D01*
X96276601Y-90984500D01*
X96496300Y-90764801D01*
X96615200Y-90477751D01*
X96615200Y-90167049D01*
X96570665Y-90059532D01*
X96584400Y-90062264D01*
X98284400Y-90062264D01*
X98433059Y-90032694D01*
X98559086Y-89948486D01*
X98643294Y-89822459D01*
X98672864Y-89673800D01*
X98672864Y-87973800D01*
X98643294Y-87825141D01*
X98559086Y-87699114D01*
X98433059Y-87614906D01*
X98284400Y-87585336D01*
X96584400Y-87585336D01*
X96435741Y-87614906D01*
X96309714Y-87699114D01*
X96225506Y-87825141D01*
X96195936Y-87973800D01*
X96195936Y-88168905D01*
X96089583Y-87942442D01*
X95661324Y-87552155D01*
X95251290Y-87382324D01*
X95021400Y-87503645D01*
X95021400Y-88696800D01*
X95041400Y-88696800D01*
X95041400Y-88950800D01*
X95021400Y-88950800D01*
X95021400Y-88970800D01*
X94767400Y-88970800D01*
X94767400Y-88950800D01*
X94747400Y-88950800D01*
X94747400Y-88696800D01*
X94767400Y-88696800D01*
X94767400Y-87503645D01*
X94537510Y-87382324D01*
X94127476Y-87552155D01*
X93699217Y-87942442D01*
X93512155Y-88340763D01*
X93241901Y-87936299D01*
X92834712Y-87664224D01*
X92475639Y-87592800D01*
X92233161Y-87592800D01*
X91874088Y-87664224D01*
X91466899Y-87936299D01*
X91194824Y-88343488D01*
X91099284Y-88823800D01*
X91194824Y-89304112D01*
X91453602Y-89691400D01*
X91320368Y-89691400D01*
X90978800Y-89349832D01*
X90978800Y-86244348D01*
X90991162Y-86182200D01*
X90942189Y-85935996D01*
X90908246Y-85885197D01*
X90802726Y-85727274D01*
X90750038Y-85692069D01*
X88921400Y-83863432D01*
X88921400Y-83270641D01*
X88934224Y-83335112D01*
X89206299Y-83742301D01*
X89613488Y-84014376D01*
X89972561Y-84085800D01*
X90215039Y-84085800D01*
X90396364Y-84049732D01*
X91127669Y-84781038D01*
X91162874Y-84833726D01*
X91371596Y-84973189D01*
X91555652Y-85009800D01*
X91617799Y-85022162D01*
X91679946Y-85009800D01*
X93964160Y-85009800D01*
X93949677Y-85019477D01*
X93813985Y-85222554D01*
X93766336Y-85462100D01*
X93766336Y-85937100D01*
X93813985Y-86176646D01*
X93949677Y-86379723D01*
X94152754Y-86515415D01*
X94392300Y-86563064D01*
X94967300Y-86563064D01*
X95206846Y-86515415D01*
X95409923Y-86379723D01*
X95545615Y-86176646D01*
X95554800Y-86130470D01*
X95563985Y-86176646D01*
X95699677Y-86379723D01*
X95902754Y-86515415D01*
X96142300Y-86563064D01*
X96717300Y-86563064D01*
X96956846Y-86515415D01*
X97159923Y-86379723D01*
X97192746Y-86330600D01*
X97777654Y-86330600D01*
X97810477Y-86379723D01*
X97934652Y-86462694D01*
X97946211Y-86520804D01*
X98085675Y-86729526D01*
X98138363Y-86764731D01*
X98548552Y-87174920D01*
X98630475Y-87297526D01*
X98683162Y-87332730D01*
X99927600Y-88577169D01*
X99927601Y-89188498D01*
X99896500Y-89219599D01*
X99777600Y-89506649D01*
X99777600Y-89817351D01*
X99896500Y-90104401D01*
X100116199Y-90324100D01*
X100403249Y-90443000D01*
X100713951Y-90443000D01*
X101001001Y-90324100D01*
X101220700Y-90104401D01*
X101339600Y-89817351D01*
X101339600Y-89506649D01*
X101220700Y-89219599D01*
X101189600Y-89188499D01*
X101189600Y-88377946D01*
X101201962Y-88315799D01*
X101180089Y-88205838D01*
X101152989Y-88069596D01*
X101013526Y-87860874D01*
X100960839Y-87825670D01*
X99944768Y-86809600D01*
X100004850Y-86809600D01*
X100163600Y-86650850D01*
X100163600Y-85826600D01*
X100143600Y-85826600D01*
X100143600Y-85572600D01*
X100163600Y-85572600D01*
X100163600Y-85552600D01*
X100417600Y-85552600D01*
X100417600Y-85572600D01*
X100437600Y-85572600D01*
X100437600Y-85826600D01*
X100417600Y-85826600D01*
X100417600Y-86650850D01*
X100576350Y-86809600D01*
X100883979Y-86809600D01*
X100929411Y-87038003D01*
X100957489Y-87080024D01*
X101068875Y-87246726D01*
X101121562Y-87281930D01*
X101827468Y-87987836D01*
X101767284Y-88290400D01*
X101862824Y-88770712D01*
X102134899Y-89177901D01*
X102542088Y-89449976D01*
X102901161Y-89521400D01*
X103143639Y-89521400D01*
X103502712Y-89449976D01*
X103909901Y-89177901D01*
X104181976Y-88770712D01*
X104277516Y-88290400D01*
X104181976Y-87810088D01*
X103909901Y-87402899D01*
X103502712Y-87130824D01*
X103143639Y-87059400D01*
X102901161Y-87059400D01*
X102719836Y-87095468D01*
X102518751Y-86894383D01*
X102542088Y-86909976D01*
X102901161Y-86981400D01*
X103143639Y-86981400D01*
X103502712Y-86909976D01*
X103909901Y-86637901D01*
X104181976Y-86230712D01*
X104277516Y-85750400D01*
X104181976Y-85270088D01*
X103909901Y-84862899D01*
X103502712Y-84590824D01*
X103143639Y-84519400D01*
X102901161Y-84519400D01*
X102542088Y-84590824D01*
X102154800Y-84849602D01*
X102154800Y-84486946D01*
X102167162Y-84424799D01*
X102138439Y-84280400D01*
X102118189Y-84178596D01*
X101978726Y-83969874D01*
X101926038Y-83934670D01*
X101547532Y-83556164D01*
X101512326Y-83503474D01*
X101303604Y-83364011D01*
X101245494Y-83352452D01*
X101162523Y-83228277D01*
X100959446Y-83092585D01*
X100913270Y-83083400D01*
X100959446Y-83074215D01*
X101162523Y-82938523D01*
X101228755Y-82839400D01*
X101759032Y-82839400D01*
X101827468Y-82907836D01*
X101767284Y-83210400D01*
X101862824Y-83690712D01*
X102134899Y-84097901D01*
X102542088Y-84369976D01*
X102901161Y-84441400D01*
X103143639Y-84441400D01*
X103502712Y-84369976D01*
X103909901Y-84097901D01*
X104181976Y-83690712D01*
X104277516Y-83210400D01*
X104181976Y-82730088D01*
X103909901Y-82322899D01*
X103502712Y-82050824D01*
X103143639Y-81979400D01*
X102901161Y-81979400D01*
X102719836Y-82015468D01*
X102518750Y-81814382D01*
X102542088Y-81829976D01*
X102901161Y-81901400D01*
X103143639Y-81901400D01*
X103502712Y-81829976D01*
X103909901Y-81557901D01*
X104077400Y-81307221D01*
X104077400Y-81646710D01*
G36*
X73186585Y-86608446D02*
X73322277Y-86811523D01*
X73525354Y-86947215D01*
X73764900Y-86994864D01*
X74339900Y-86994864D01*
X74579446Y-86947215D01*
X74782523Y-86811523D01*
X74815346Y-86762400D01*
X75370899Y-86762400D01*
X75401999Y-86793500D01*
X75689049Y-86912400D01*
X75843926Y-86912400D01*
X75836870Y-86922961D01*
X75105564Y-87654268D01*
X74924239Y-87618200D01*
X74681761Y-87618200D01*
X74322688Y-87689624D01*
X73915499Y-87961699D01*
X73645245Y-88366163D01*
X73458183Y-87967842D01*
X73029924Y-87577555D01*
X72619890Y-87407724D01*
X72390000Y-87529045D01*
X72390000Y-88722200D01*
X72410000Y-88722200D01*
X72410000Y-88976200D01*
X72390000Y-88976200D01*
X72390000Y-88996200D01*
X72136000Y-88996200D01*
X72136000Y-88976200D01*
X72116000Y-88976200D01*
X72116000Y-88722200D01*
X72136000Y-88722200D01*
X72136000Y-87529045D01*
X71914184Y-87411985D01*
X72331305Y-86994864D01*
X72589900Y-86994864D01*
X72829446Y-86947215D01*
X73032523Y-86811523D01*
X73168215Y-86608446D01*
X73177400Y-86562270D01*
X73186585Y-86608446D01*
X73186585Y-86608446D01*
G37*
X73186585Y-86608446D02*
X73322277Y-86811523D01*
X73525354Y-86947215D01*
X73764900Y-86994864D01*
X74339900Y-86994864D01*
X74579446Y-86947215D01*
X74782523Y-86811523D01*
X74815346Y-86762400D01*
X75370899Y-86762400D01*
X75401999Y-86793500D01*
X75689049Y-86912400D01*
X75843926Y-86912400D01*
X75836870Y-86922961D01*
X75105564Y-87654268D01*
X74924239Y-87618200D01*
X74681761Y-87618200D01*
X74322688Y-87689624D01*
X73915499Y-87961699D01*
X73645245Y-88366163D01*
X73458183Y-87967842D01*
X73029924Y-87577555D01*
X72619890Y-87407724D01*
X72390000Y-87529045D01*
X72390000Y-88722200D01*
X72410000Y-88722200D01*
X72410000Y-88976200D01*
X72390000Y-88976200D01*
X72390000Y-88996200D01*
X72136000Y-88996200D01*
X72136000Y-88976200D01*
X72116000Y-88976200D01*
X72116000Y-88722200D01*
X72136000Y-88722200D01*
X72136000Y-87529045D01*
X71914184Y-87411985D01*
X72331305Y-86994864D01*
X72589900Y-86994864D01*
X72829446Y-86947215D01*
X73032523Y-86811523D01*
X73168215Y-86608446D01*
X73177400Y-86562270D01*
X73186585Y-86608446D01*
G36*
X86715600Y-83972400D02*
X86735600Y-83972400D01*
X86735600Y-84226400D01*
X86715600Y-84226400D01*
X86715600Y-85288150D01*
X86874350Y-85446900D01*
X87589910Y-85446900D01*
X87823299Y-85350227D01*
X88001927Y-85171598D01*
X88098600Y-84938209D01*
X88098600Y-84825368D01*
X89716801Y-86443570D01*
X89716800Y-88286653D01*
X89482701Y-87936299D01*
X89075512Y-87664224D01*
X88716439Y-87592800D01*
X88473961Y-87592800D01*
X88292636Y-87628868D01*
X86277333Y-85613565D01*
X86242126Y-85560874D01*
X86071551Y-85446900D01*
X86302850Y-85446900D01*
X86461600Y-85288150D01*
X86461600Y-84226400D01*
X86441600Y-84226400D01*
X86441600Y-83972400D01*
X86461600Y-83972400D01*
X86461600Y-83952400D01*
X86715600Y-83952400D01*
X86715600Y-83972400D01*
X86715600Y-83972400D01*
G37*
X86715600Y-83972400D02*
X86735600Y-83972400D01*
X86735600Y-84226400D01*
X86715600Y-84226400D01*
X86715600Y-85288150D01*
X86874350Y-85446900D01*
X87589910Y-85446900D01*
X87823299Y-85350227D01*
X88001927Y-85171598D01*
X88098600Y-84938209D01*
X88098600Y-84825368D01*
X89716801Y-86443570D01*
X89716800Y-88286653D01*
X89482701Y-87936299D01*
X89075512Y-87664224D01*
X88716439Y-87592800D01*
X88473961Y-87592800D01*
X88292636Y-87628868D01*
X86277333Y-85613565D01*
X86242126Y-85560874D01*
X86071551Y-85446900D01*
X86302850Y-85446900D01*
X86461600Y-85288150D01*
X86461600Y-84226400D01*
X86441600Y-84226400D01*
X86441600Y-83972400D01*
X86461600Y-83972400D01*
X86461600Y-83952400D01*
X86715600Y-83952400D01*
X86715600Y-83972400D01*
G36*
X84543347Y-75907347D02*
X84282322Y-76297997D01*
X84190663Y-76758800D01*
X84282322Y-77219603D01*
X84543347Y-77610253D01*
X84933997Y-77871278D01*
X85278482Y-77939800D01*
X85511118Y-77939800D01*
X85855603Y-77871278D01*
X86246253Y-77610253D01*
X86507278Y-77219603D01*
X86598937Y-76758800D01*
X86507278Y-76297997D01*
X86246253Y-75907347D01*
X85922169Y-75690800D01*
X87407431Y-75690800D01*
X87083347Y-75907347D01*
X86822322Y-76297997D01*
X86730663Y-76758800D01*
X86822322Y-77219603D01*
X87083347Y-77610253D01*
X87473997Y-77871278D01*
X87818482Y-77939800D01*
X88051118Y-77939800D01*
X88395603Y-77871278D01*
X88786253Y-77610253D01*
X89047278Y-77219603D01*
X89138937Y-76758800D01*
X89047278Y-76297997D01*
X88786253Y-75907347D01*
X88462169Y-75690800D01*
X89947431Y-75690800D01*
X89623347Y-75907347D01*
X89362322Y-76297997D01*
X89270663Y-76758800D01*
X89362322Y-77219603D01*
X89462801Y-77369980D01*
X89462800Y-79255910D01*
X89206299Y-79427299D01*
X88934224Y-79834488D01*
X88838684Y-80314800D01*
X88934224Y-80795112D01*
X89206299Y-81202301D01*
X89613488Y-81474376D01*
X89972561Y-81545800D01*
X90215039Y-81545800D01*
X90574112Y-81474376D01*
X90981301Y-81202301D01*
X91253376Y-80795112D01*
X91348916Y-80314800D01*
X91253376Y-79834488D01*
X90981301Y-79427299D01*
X90724800Y-79255911D01*
X90724800Y-77913209D01*
X90935603Y-77871278D01*
X91326253Y-77610253D01*
X91587278Y-77219603D01*
X91678937Y-76758800D01*
X91587278Y-76297997D01*
X91326253Y-75907347D01*
X91002169Y-75690800D01*
X92487431Y-75690800D01*
X92163347Y-75907347D01*
X91902322Y-76297997D01*
X91810663Y-76758800D01*
X91902322Y-77219603D01*
X92002801Y-77369980D01*
X92002800Y-79255910D01*
X91746299Y-79427299D01*
X91474224Y-79834488D01*
X91378684Y-80314800D01*
X91474224Y-80795112D01*
X91746299Y-81202301D01*
X92153488Y-81474376D01*
X92512561Y-81545800D01*
X92755039Y-81545800D01*
X93114112Y-81474376D01*
X93521301Y-81202301D01*
X93793376Y-80795112D01*
X93888916Y-80314800D01*
X93793376Y-79834488D01*
X93521301Y-79427299D01*
X93264800Y-79255911D01*
X93264800Y-77913209D01*
X93475603Y-77871278D01*
X93866253Y-77610253D01*
X94127278Y-77219603D01*
X94193675Y-76885802D01*
X94284170Y-76885802D01*
X94162886Y-77107841D01*
X94402411Y-77613934D01*
X94817377Y-77989841D01*
X95205761Y-78150704D01*
X95260451Y-78120657D01*
X95234189Y-78159961D01*
X94771564Y-78622587D01*
X94718874Y-78657793D01*
X94585034Y-78858100D01*
X94579411Y-78866516D01*
X94530438Y-79112719D01*
X94542800Y-79174867D01*
X94542800Y-79255910D01*
X94286299Y-79427299D01*
X94014224Y-79834488D01*
X93918684Y-80314800D01*
X94014224Y-80795112D01*
X94286299Y-81202301D01*
X94693488Y-81474376D01*
X95052561Y-81545800D01*
X95295039Y-81545800D01*
X95654112Y-81474376D01*
X96061301Y-81202301D01*
X96333376Y-80795112D01*
X96428916Y-80314800D01*
X96333376Y-79834488D01*
X96061301Y-79427299D01*
X95875642Y-79303246D01*
X95985688Y-79193200D01*
X96587052Y-79193200D01*
X96504906Y-79316141D01*
X96475336Y-79464800D01*
X96475336Y-81164800D01*
X96504906Y-81313459D01*
X96589114Y-81439486D01*
X96715141Y-81523694D01*
X96863800Y-81553264D01*
X98563800Y-81553264D01*
X98712459Y-81523694D01*
X98838486Y-81439486D01*
X98922694Y-81313459D01*
X98952264Y-81164800D01*
X98952264Y-80945800D01*
X99810652Y-80945800D01*
X99872800Y-80958162D01*
X99934948Y-80945800D01*
X100119004Y-80909189D01*
X100327726Y-80769726D01*
X100362933Y-80717035D01*
X101759768Y-79320200D01*
X102482252Y-79320200D01*
X102544400Y-79332562D01*
X102606548Y-79320200D01*
X102790604Y-79283589D01*
X102999326Y-79144126D01*
X103034532Y-79091436D01*
X103577038Y-78548931D01*
X103629726Y-78513726D01*
X103769189Y-78305004D01*
X103805800Y-78120948D01*
X103818162Y-78058801D01*
X103805800Y-77996654D01*
X103805800Y-77947264D01*
X103974800Y-77947264D01*
X104123459Y-77917694D01*
X104249486Y-77833486D01*
X104333694Y-77707459D01*
X104363264Y-77558800D01*
X104363264Y-75958800D01*
X104333694Y-75810141D01*
X104253953Y-75690800D01*
X104985336Y-75690800D01*
X104637299Y-76038837D01*
X104443800Y-76505982D01*
X104443800Y-77011618D01*
X104637299Y-77478763D01*
X104994837Y-77836301D01*
X105461982Y-78029800D01*
X105967618Y-78029800D01*
X106434763Y-77836301D01*
X106782800Y-77488264D01*
X106782800Y-79292775D01*
X106772098Y-79282073D01*
X106538709Y-79185400D01*
X105848150Y-79185400D01*
X105689400Y-79344150D01*
X105689400Y-80543400D01*
X105709400Y-80543400D01*
X105709400Y-80797400D01*
X105689400Y-80797400D01*
X105689400Y-80817400D01*
X105435400Y-80817400D01*
X105435400Y-80797400D01*
X105415400Y-80797400D01*
X105415400Y-80543400D01*
X105435400Y-80543400D01*
X105435400Y-79344150D01*
X105276650Y-79185400D01*
X104586091Y-79185400D01*
X104352702Y-79282073D01*
X104174073Y-79460701D01*
X104077400Y-79694090D01*
X104077400Y-80033579D01*
X103909901Y-79782899D01*
X103502712Y-79510824D01*
X103143639Y-79439400D01*
X102901161Y-79439400D01*
X102542088Y-79510824D01*
X102134899Y-79782899D01*
X101862824Y-80190088D01*
X101767284Y-80670400D01*
X101862824Y-81150712D01*
X102134899Y-81557901D01*
X102198642Y-81600492D01*
X102082548Y-81577400D01*
X102020400Y-81565038D01*
X101958252Y-81577400D01*
X101228755Y-81577400D01*
X101162523Y-81478277D01*
X100959446Y-81342585D01*
X100719900Y-81294936D01*
X100244900Y-81294936D01*
X100005354Y-81342585D01*
X99802277Y-81478277D01*
X99666585Y-81681354D01*
X99618936Y-81920900D01*
X99618936Y-82495900D01*
X99666585Y-82735446D01*
X99802277Y-82938523D01*
X100005354Y-83074215D01*
X100051530Y-83083400D01*
X100005354Y-83092585D01*
X99802277Y-83228277D01*
X99666585Y-83431354D01*
X99618936Y-83670900D01*
X99618936Y-83773200D01*
X99381101Y-83773200D01*
X99350001Y-83742100D01*
X99062951Y-83623200D01*
X98752249Y-83623200D01*
X98653571Y-83664074D01*
X98873376Y-83335112D01*
X98968916Y-82854800D01*
X98873376Y-82374488D01*
X98601301Y-81967299D01*
X98194112Y-81695224D01*
X97835039Y-81623800D01*
X97592561Y-81623800D01*
X97233488Y-81695224D01*
X96826299Y-81967299D01*
X96554224Y-82374488D01*
X96458684Y-82854800D01*
X96518868Y-83157364D01*
X96317784Y-83358448D01*
X96333376Y-83335112D01*
X96428916Y-82854800D01*
X96333376Y-82374488D01*
X96061301Y-81967299D01*
X95654112Y-81695224D01*
X95295039Y-81623800D01*
X95052561Y-81623800D01*
X94693488Y-81695224D01*
X94286299Y-81967299D01*
X94114911Y-82223800D01*
X93692689Y-82223800D01*
X93521301Y-81967299D01*
X93114112Y-81695224D01*
X92755039Y-81623800D01*
X92512561Y-81623800D01*
X92153488Y-81695224D01*
X91746299Y-81967299D01*
X91474224Y-82374488D01*
X91378684Y-82854800D01*
X91474224Y-83335112D01*
X91489817Y-83358448D01*
X91288732Y-83157364D01*
X91348916Y-82854800D01*
X91253376Y-82374488D01*
X90981301Y-81967299D01*
X90574112Y-81695224D01*
X90215039Y-81623800D01*
X89972561Y-81623800D01*
X89613488Y-81695224D01*
X89206299Y-81967299D01*
X88934224Y-82374488D01*
X88883106Y-82631477D01*
X88745326Y-82425274D01*
X88692635Y-82390067D01*
X88526533Y-82223965D01*
X88491326Y-82171274D01*
X88282604Y-82031811D01*
X88098548Y-81995200D01*
X88036400Y-81982838D01*
X87974252Y-81995200D01*
X87693902Y-81995200D01*
X87803464Y-81831230D01*
X87852064Y-81586900D01*
X87852064Y-80661900D01*
X87803464Y-80417570D01*
X87665062Y-80210438D01*
X87457930Y-80072036D01*
X87434200Y-80067316D01*
X87434200Y-79841955D01*
X87533323Y-79775723D01*
X87669015Y-79572646D01*
X87716664Y-79333100D01*
X87716664Y-78858100D01*
X87669015Y-78618554D01*
X87533323Y-78415477D01*
X87330246Y-78279785D01*
X87090700Y-78232136D01*
X86515700Y-78232136D01*
X86276154Y-78279785D01*
X86073077Y-78415477D01*
X85937385Y-78618554D01*
X85928200Y-78664730D01*
X85919015Y-78618554D01*
X85783323Y-78415477D01*
X85580246Y-78279785D01*
X85340700Y-78232136D01*
X84765700Y-78232136D01*
X84526154Y-78279785D01*
X84323077Y-78415477D01*
X84290254Y-78464600D01*
X84055969Y-78464600D01*
X83485800Y-77894432D01*
X83485800Y-77757556D01*
X83706253Y-77610253D01*
X83967278Y-77219603D01*
X84058937Y-76758800D01*
X83967278Y-76297997D01*
X83706253Y-75907347D01*
X83382169Y-75690800D01*
X84867431Y-75690800D01*
X84543347Y-75907347D01*
X84543347Y-75907347D01*
G37*
X84543347Y-75907347D02*
X84282322Y-76297997D01*
X84190663Y-76758800D01*
X84282322Y-77219603D01*
X84543347Y-77610253D01*
X84933997Y-77871278D01*
X85278482Y-77939800D01*
X85511118Y-77939800D01*
X85855603Y-77871278D01*
X86246253Y-77610253D01*
X86507278Y-77219603D01*
X86598937Y-76758800D01*
X86507278Y-76297997D01*
X86246253Y-75907347D01*
X85922169Y-75690800D01*
X87407431Y-75690800D01*
X87083347Y-75907347D01*
X86822322Y-76297997D01*
X86730663Y-76758800D01*
X86822322Y-77219603D01*
X87083347Y-77610253D01*
X87473997Y-77871278D01*
X87818482Y-77939800D01*
X88051118Y-77939800D01*
X88395603Y-77871278D01*
X88786253Y-77610253D01*
X89047278Y-77219603D01*
X89138937Y-76758800D01*
X89047278Y-76297997D01*
X88786253Y-75907347D01*
X88462169Y-75690800D01*
X89947431Y-75690800D01*
X89623347Y-75907347D01*
X89362322Y-76297997D01*
X89270663Y-76758800D01*
X89362322Y-77219603D01*
X89462801Y-77369980D01*
X89462800Y-79255910D01*
X89206299Y-79427299D01*
X88934224Y-79834488D01*
X88838684Y-80314800D01*
X88934224Y-80795112D01*
X89206299Y-81202301D01*
X89613488Y-81474376D01*
X89972561Y-81545800D01*
X90215039Y-81545800D01*
X90574112Y-81474376D01*
X90981301Y-81202301D01*
X91253376Y-80795112D01*
X91348916Y-80314800D01*
X91253376Y-79834488D01*
X90981301Y-79427299D01*
X90724800Y-79255911D01*
X90724800Y-77913209D01*
X90935603Y-77871278D01*
X91326253Y-77610253D01*
X91587278Y-77219603D01*
X91678937Y-76758800D01*
X91587278Y-76297997D01*
X91326253Y-75907347D01*
X91002169Y-75690800D01*
X92487431Y-75690800D01*
X92163347Y-75907347D01*
X91902322Y-76297997D01*
X91810663Y-76758800D01*
X91902322Y-77219603D01*
X92002801Y-77369980D01*
X92002800Y-79255910D01*
X91746299Y-79427299D01*
X91474224Y-79834488D01*
X91378684Y-80314800D01*
X91474224Y-80795112D01*
X91746299Y-81202301D01*
X92153488Y-81474376D01*
X92512561Y-81545800D01*
X92755039Y-81545800D01*
X93114112Y-81474376D01*
X93521301Y-81202301D01*
X93793376Y-80795112D01*
X93888916Y-80314800D01*
X93793376Y-79834488D01*
X93521301Y-79427299D01*
X93264800Y-79255911D01*
X93264800Y-77913209D01*
X93475603Y-77871278D01*
X93866253Y-77610253D01*
X94127278Y-77219603D01*
X94193675Y-76885802D01*
X94284170Y-76885802D01*
X94162886Y-77107841D01*
X94402411Y-77613934D01*
X94817377Y-77989841D01*
X95205761Y-78150704D01*
X95260451Y-78120657D01*
X95234189Y-78159961D01*
X94771564Y-78622587D01*
X94718874Y-78657793D01*
X94585034Y-78858100D01*
X94579411Y-78866516D01*
X94530438Y-79112719D01*
X94542800Y-79174867D01*
X94542800Y-79255910D01*
X94286299Y-79427299D01*
X94014224Y-79834488D01*
X93918684Y-80314800D01*
X94014224Y-80795112D01*
X94286299Y-81202301D01*
X94693488Y-81474376D01*
X95052561Y-81545800D01*
X95295039Y-81545800D01*
X95654112Y-81474376D01*
X96061301Y-81202301D01*
X96333376Y-80795112D01*
X96428916Y-80314800D01*
X96333376Y-79834488D01*
X96061301Y-79427299D01*
X95875642Y-79303246D01*
X95985688Y-79193200D01*
X96587052Y-79193200D01*
X96504906Y-79316141D01*
X96475336Y-79464800D01*
X96475336Y-81164800D01*
X96504906Y-81313459D01*
X96589114Y-81439486D01*
X96715141Y-81523694D01*
X96863800Y-81553264D01*
X98563800Y-81553264D01*
X98712459Y-81523694D01*
X98838486Y-81439486D01*
X98922694Y-81313459D01*
X98952264Y-81164800D01*
X98952264Y-80945800D01*
X99810652Y-80945800D01*
X99872800Y-80958162D01*
X99934948Y-80945800D01*
X100119004Y-80909189D01*
X100327726Y-80769726D01*
X100362933Y-80717035D01*
X101759768Y-79320200D01*
X102482252Y-79320200D01*
X102544400Y-79332562D01*
X102606548Y-79320200D01*
X102790604Y-79283589D01*
X102999326Y-79144126D01*
X103034532Y-79091436D01*
X103577038Y-78548931D01*
X103629726Y-78513726D01*
X103769189Y-78305004D01*
X103805800Y-78120948D01*
X103818162Y-78058801D01*
X103805800Y-77996654D01*
X103805800Y-77947264D01*
X103974800Y-77947264D01*
X104123459Y-77917694D01*
X104249486Y-77833486D01*
X104333694Y-77707459D01*
X104363264Y-77558800D01*
X104363264Y-75958800D01*
X104333694Y-75810141D01*
X104253953Y-75690800D01*
X104985336Y-75690800D01*
X104637299Y-76038837D01*
X104443800Y-76505982D01*
X104443800Y-77011618D01*
X104637299Y-77478763D01*
X104994837Y-77836301D01*
X105461982Y-78029800D01*
X105967618Y-78029800D01*
X106434763Y-77836301D01*
X106782800Y-77488264D01*
X106782800Y-79292775D01*
X106772098Y-79282073D01*
X106538709Y-79185400D01*
X105848150Y-79185400D01*
X105689400Y-79344150D01*
X105689400Y-80543400D01*
X105709400Y-80543400D01*
X105709400Y-80797400D01*
X105689400Y-80797400D01*
X105689400Y-80817400D01*
X105435400Y-80817400D01*
X105435400Y-80797400D01*
X105415400Y-80797400D01*
X105415400Y-80543400D01*
X105435400Y-80543400D01*
X105435400Y-79344150D01*
X105276650Y-79185400D01*
X104586091Y-79185400D01*
X104352702Y-79282073D01*
X104174073Y-79460701D01*
X104077400Y-79694090D01*
X104077400Y-80033579D01*
X103909901Y-79782899D01*
X103502712Y-79510824D01*
X103143639Y-79439400D01*
X102901161Y-79439400D01*
X102542088Y-79510824D01*
X102134899Y-79782899D01*
X101862824Y-80190088D01*
X101767284Y-80670400D01*
X101862824Y-81150712D01*
X102134899Y-81557901D01*
X102198642Y-81600492D01*
X102082548Y-81577400D01*
X102020400Y-81565038D01*
X101958252Y-81577400D01*
X101228755Y-81577400D01*
X101162523Y-81478277D01*
X100959446Y-81342585D01*
X100719900Y-81294936D01*
X100244900Y-81294936D01*
X100005354Y-81342585D01*
X99802277Y-81478277D01*
X99666585Y-81681354D01*
X99618936Y-81920900D01*
X99618936Y-82495900D01*
X99666585Y-82735446D01*
X99802277Y-82938523D01*
X100005354Y-83074215D01*
X100051530Y-83083400D01*
X100005354Y-83092585D01*
X99802277Y-83228277D01*
X99666585Y-83431354D01*
X99618936Y-83670900D01*
X99618936Y-83773200D01*
X99381101Y-83773200D01*
X99350001Y-83742100D01*
X99062951Y-83623200D01*
X98752249Y-83623200D01*
X98653571Y-83664074D01*
X98873376Y-83335112D01*
X98968916Y-82854800D01*
X98873376Y-82374488D01*
X98601301Y-81967299D01*
X98194112Y-81695224D01*
X97835039Y-81623800D01*
X97592561Y-81623800D01*
X97233488Y-81695224D01*
X96826299Y-81967299D01*
X96554224Y-82374488D01*
X96458684Y-82854800D01*
X96518868Y-83157364D01*
X96317784Y-83358448D01*
X96333376Y-83335112D01*
X96428916Y-82854800D01*
X96333376Y-82374488D01*
X96061301Y-81967299D01*
X95654112Y-81695224D01*
X95295039Y-81623800D01*
X95052561Y-81623800D01*
X94693488Y-81695224D01*
X94286299Y-81967299D01*
X94114911Y-82223800D01*
X93692689Y-82223800D01*
X93521301Y-81967299D01*
X93114112Y-81695224D01*
X92755039Y-81623800D01*
X92512561Y-81623800D01*
X92153488Y-81695224D01*
X91746299Y-81967299D01*
X91474224Y-82374488D01*
X91378684Y-82854800D01*
X91474224Y-83335112D01*
X91489817Y-83358448D01*
X91288732Y-83157364D01*
X91348916Y-82854800D01*
X91253376Y-82374488D01*
X90981301Y-81967299D01*
X90574112Y-81695224D01*
X90215039Y-81623800D01*
X89972561Y-81623800D01*
X89613488Y-81695224D01*
X89206299Y-81967299D01*
X88934224Y-82374488D01*
X88883106Y-82631477D01*
X88745326Y-82425274D01*
X88692635Y-82390067D01*
X88526533Y-82223965D01*
X88491326Y-82171274D01*
X88282604Y-82031811D01*
X88098548Y-81995200D01*
X88036400Y-81982838D01*
X87974252Y-81995200D01*
X87693902Y-81995200D01*
X87803464Y-81831230D01*
X87852064Y-81586900D01*
X87852064Y-80661900D01*
X87803464Y-80417570D01*
X87665062Y-80210438D01*
X87457930Y-80072036D01*
X87434200Y-80067316D01*
X87434200Y-79841955D01*
X87533323Y-79775723D01*
X87669015Y-79572646D01*
X87716664Y-79333100D01*
X87716664Y-78858100D01*
X87669015Y-78618554D01*
X87533323Y-78415477D01*
X87330246Y-78279785D01*
X87090700Y-78232136D01*
X86515700Y-78232136D01*
X86276154Y-78279785D01*
X86073077Y-78415477D01*
X85937385Y-78618554D01*
X85928200Y-78664730D01*
X85919015Y-78618554D01*
X85783323Y-78415477D01*
X85580246Y-78279785D01*
X85340700Y-78232136D01*
X84765700Y-78232136D01*
X84526154Y-78279785D01*
X84323077Y-78415477D01*
X84290254Y-78464600D01*
X84055969Y-78464600D01*
X83485800Y-77894432D01*
X83485800Y-77757556D01*
X83706253Y-77610253D01*
X83967278Y-77219603D01*
X84058937Y-76758800D01*
X83967278Y-76297997D01*
X83706253Y-75907347D01*
X83382169Y-75690800D01*
X84867431Y-75690800D01*
X84543347Y-75907347D01*
G36*
X95681800Y-76631800D02*
X95701800Y-76631800D01*
X95701800Y-76885800D01*
X95681800Y-76885800D01*
X95681800Y-76905800D01*
X95427800Y-76905800D01*
X95427800Y-76885800D01*
X95407800Y-76885800D01*
X95407800Y-76631800D01*
X95427800Y-76631800D01*
X95427800Y-76611800D01*
X95681800Y-76611800D01*
X95681800Y-76631800D01*
X95681800Y-76631800D01*
G37*
X95681800Y-76631800D02*
X95701800Y-76631800D01*
X95701800Y-76885800D01*
X95681800Y-76885800D01*
X95681800Y-76905800D01*
X95427800Y-76905800D01*
X95427800Y-76885800D01*
X95407800Y-76885800D01*
X95407800Y-76631800D01*
X95427800Y-76631800D01*
X95427800Y-76611800D01*
X95681800Y-76611800D01*
X95681800Y-76631800D01*
G04 #@! TD*
M02*
