G04 #@! TF.GenerationSoftware,KiCad,Pcbnew,(5.0.0)*
G04 #@! TF.CreationDate,2019-04-18T12:31:28+02:00*
G04 #@! TF.ProjectId,WateringSystem,5761746572696E6753797374656D2E6B,rev?*
G04 #@! TF.SameCoordinates,Original*
G04 #@! TF.FileFunction,Legend,Top*
G04 #@! TF.FilePolarity,Positive*
%FSLAX46Y46*%
G04 Gerber Fmt 4.6, Leading zero omitted, Abs format (unit mm)*
G04 Created by KiCad (PCBNEW (5.0.0)) date 04/18/19 12:31:28*
%MOMM*%
%LPD*%
G01*
G04 APERTURE LIST*
%ADD10C,0.100000*%
%ADD11C,0.120000*%
G04 APERTURE END LIST*
D10*
X89573171Y-84755485D02*
X90001742Y-84755485D01*
X89787457Y-85505485D02*
X89787457Y-84755485D01*
X90180314Y-84755485D02*
X90680314Y-85505485D01*
X90680314Y-84755485D02*
X90180314Y-85505485D01*
X92534200Y-85480085D02*
X92284200Y-85122942D01*
X92105628Y-85480085D02*
X92105628Y-84730085D01*
X92391342Y-84730085D01*
X92462771Y-84765800D01*
X92498485Y-84801514D01*
X92534200Y-84872942D01*
X92534200Y-84980085D01*
X92498485Y-85051514D01*
X92462771Y-85087228D01*
X92391342Y-85122942D01*
X92105628Y-85122942D01*
X92784200Y-84730085D02*
X93284200Y-85480085D01*
X93284200Y-84730085D02*
X92784200Y-85480085D01*
X96354200Y-86645400D02*
X96282771Y-86609685D01*
X96175628Y-86609685D01*
X96068485Y-86645400D01*
X95997057Y-86716828D01*
X95961342Y-86788257D01*
X95925628Y-86931114D01*
X95925628Y-87038257D01*
X95961342Y-87181114D01*
X95997057Y-87252542D01*
X96068485Y-87323971D01*
X96175628Y-87359685D01*
X96247057Y-87359685D01*
X96354200Y-87323971D01*
X96389914Y-87288257D01*
X96389914Y-87038257D01*
X96247057Y-87038257D01*
X96711342Y-87359685D02*
X96711342Y-86609685D01*
X96997057Y-86609685D01*
X97068485Y-86645400D01*
X97104200Y-86681114D01*
X97139914Y-86752542D01*
X97139914Y-86859685D01*
X97104200Y-86931114D01*
X97068485Y-86966828D01*
X96997057Y-87002542D01*
X96711342Y-87002542D01*
X97461342Y-87359685D02*
X97461342Y-86609685D01*
X97961342Y-86609685D02*
X98104200Y-86609685D01*
X98175628Y-86645400D01*
X98247057Y-86716828D01*
X98282771Y-86859685D01*
X98282771Y-87109685D01*
X98247057Y-87252542D01*
X98175628Y-87323971D01*
X98104200Y-87359685D01*
X97961342Y-87359685D01*
X97889914Y-87323971D01*
X97818485Y-87252542D01*
X97782771Y-87109685D01*
X97782771Y-86859685D01*
X97818485Y-86716828D01*
X97889914Y-86645400D01*
X97961342Y-86609685D01*
X91943685Y-87308885D02*
X91693685Y-86951742D01*
X91515114Y-87308885D02*
X91515114Y-86558885D01*
X91800828Y-86558885D01*
X91872257Y-86594600D01*
X91907971Y-86630314D01*
X91943685Y-86701742D01*
X91943685Y-86808885D01*
X91907971Y-86880314D01*
X91872257Y-86916028D01*
X91800828Y-86951742D01*
X91515114Y-86951742D01*
X92229400Y-87273171D02*
X92336542Y-87308885D01*
X92515114Y-87308885D01*
X92586542Y-87273171D01*
X92622257Y-87237457D01*
X92657971Y-87166028D01*
X92657971Y-87094600D01*
X92622257Y-87023171D01*
X92586542Y-86987457D01*
X92515114Y-86951742D01*
X92372257Y-86916028D01*
X92300828Y-86880314D01*
X92265114Y-86844600D01*
X92229400Y-86773171D01*
X92229400Y-86701742D01*
X92265114Y-86630314D01*
X92300828Y-86594600D01*
X92372257Y-86558885D01*
X92550828Y-86558885D01*
X92657971Y-86594600D01*
X92872257Y-86558885D02*
X93300828Y-86558885D01*
X93086542Y-87308885D02*
X93086542Y-86558885D01*
X69478542Y-87766085D02*
X69121400Y-87766085D01*
X69121400Y-87016085D01*
X70157114Y-87766085D02*
X69907114Y-87408942D01*
X69728542Y-87766085D02*
X69728542Y-87016085D01*
X70014257Y-87016085D01*
X70085685Y-87051800D01*
X70121400Y-87087514D01*
X70157114Y-87158942D01*
X70157114Y-87266085D01*
X70121400Y-87337514D01*
X70085685Y-87373228D01*
X70014257Y-87408942D01*
X69728542Y-87408942D01*
X75128114Y-87323971D02*
X75235257Y-87359685D01*
X75413828Y-87359685D01*
X75485257Y-87323971D01*
X75520971Y-87288257D01*
X75556685Y-87216828D01*
X75556685Y-87145400D01*
X75520971Y-87073971D01*
X75485257Y-87038257D01*
X75413828Y-87002542D01*
X75270971Y-86966828D01*
X75199542Y-86931114D01*
X75163828Y-86895400D01*
X75128114Y-86823971D01*
X75128114Y-86752542D01*
X75163828Y-86681114D01*
X75199542Y-86645400D01*
X75270971Y-86609685D01*
X75449542Y-86609685D01*
X75556685Y-86645400D01*
X76306685Y-87359685D02*
X76056685Y-87002542D01*
X75878114Y-87359685D02*
X75878114Y-86609685D01*
X76163828Y-86609685D01*
X76235257Y-86645400D01*
X76270971Y-86681114D01*
X76306685Y-86752542D01*
X76306685Y-86859685D01*
X76270971Y-86931114D01*
X76235257Y-86966828D01*
X76163828Y-87002542D01*
X75878114Y-87002542D01*
X63836200Y-83807228D02*
X63800485Y-83878657D01*
X63800485Y-83985800D01*
X63836200Y-84092942D01*
X63907628Y-84164371D01*
X63979057Y-84200085D01*
X64121914Y-84235800D01*
X64229057Y-84235800D01*
X64371914Y-84200085D01*
X64443342Y-84164371D01*
X64514771Y-84092942D01*
X64550485Y-83985800D01*
X64550485Y-83914371D01*
X64514771Y-83807228D01*
X64479057Y-83771514D01*
X64229057Y-83771514D01*
X64229057Y-83914371D01*
X64550485Y-83450085D02*
X63800485Y-83450085D01*
X64550485Y-83021514D01*
X63800485Y-83021514D01*
X64550485Y-82664371D02*
X63800485Y-82664371D01*
X63800485Y-82485800D01*
X63836200Y-82378657D01*
X63907628Y-82307228D01*
X63979057Y-82271514D01*
X64121914Y-82235800D01*
X64229057Y-82235800D01*
X64371914Y-82271514D01*
X64443342Y-82307228D01*
X64514771Y-82378657D01*
X64550485Y-82485800D01*
X64550485Y-82664371D01*
X63800485Y-81775542D02*
X64550485Y-81525542D01*
X63800485Y-81275542D01*
X64157628Y-81025542D02*
X64157628Y-80775542D01*
X64550485Y-80668400D02*
X64550485Y-81025542D01*
X63800485Y-81025542D01*
X63800485Y-80668400D01*
X63800485Y-80418400D02*
X64550485Y-79918400D01*
X63800485Y-79918400D02*
X64550485Y-80418400D01*
X63800485Y-79739828D02*
X63800485Y-79311257D01*
X64550485Y-79525542D02*
X63800485Y-79525542D01*
X64474285Y-88699885D02*
X63724285Y-88699885D01*
X64260000Y-88449885D01*
X63724285Y-88199885D01*
X64474285Y-88199885D01*
X64188571Y-87842742D02*
X64188571Y-87271314D01*
X64474285Y-86236085D02*
X63724285Y-86236085D01*
X64260000Y-85986085D01*
X63724285Y-85736085D01*
X64474285Y-85736085D01*
X64188571Y-85378942D02*
X64188571Y-84807514D01*
X64474285Y-85093228D02*
X63902857Y-85093228D01*
D11*
G04 #@! TO.C,A1*
X101904800Y-78028800D02*
X104444800Y-78028800D01*
X104444800Y-78028800D02*
X104444800Y-75358800D01*
X101904800Y-75358800D02*
X63674800Y-75358800D01*
X107114800Y-75358800D02*
X104444800Y-75358800D01*
X104444800Y-90728800D02*
X104444800Y-93398800D01*
X104444800Y-90728800D02*
X66344800Y-90728800D01*
X66344800Y-90728800D02*
X66344800Y-93398800D01*
X101904800Y-78028800D02*
X101904800Y-75358800D01*
X101904800Y-78028800D02*
X66344800Y-78028800D01*
X66344800Y-78028800D02*
X66344800Y-75358800D01*
X63674800Y-75358800D02*
X63674800Y-93398800D01*
X63674800Y-93398800D02*
X107114800Y-93398800D01*
X107114800Y-93398800D02*
X107114800Y-75358800D01*
G04 #@! TO.C,C1*
X69741867Y-79804800D02*
X69399333Y-79804800D01*
X69741867Y-80824800D02*
X69399333Y-80824800D01*
G04 #@! TO.C,C2*
X69716467Y-79300800D02*
X69373933Y-79300800D01*
X69716467Y-78280800D02*
X69373933Y-78280800D01*
G04 #@! TO.C,C3*
X76485933Y-81862200D02*
X76828467Y-81862200D01*
X76485933Y-82882200D02*
X76828467Y-82882200D01*
G04 #@! TO.C,D1*
X70970600Y-81408600D02*
X70970600Y-84048600D01*
X70970600Y-81408600D02*
X68170600Y-81408600D01*
X68170600Y-81408600D02*
X68170600Y-84048600D01*
G04 #@! TO.C,D2*
X85453600Y-81011900D02*
X85453600Y-85071900D01*
X85453600Y-85071900D02*
X87723600Y-85071900D01*
X87723600Y-85071900D02*
X87723600Y-81011900D01*
G04 #@! TO.C,D3*
X81399000Y-85125900D02*
X81399000Y-81065900D01*
X79129000Y-85125900D02*
X81399000Y-85125900D01*
X79129000Y-81065900D02*
X79129000Y-85125900D01*
G04 #@! TO.C,J1*
X64583000Y-79289600D02*
X65913000Y-79289600D01*
X64583000Y-80619600D02*
X64583000Y-79289600D01*
X64583000Y-81889600D02*
X67243000Y-81889600D01*
X67243000Y-81889600D02*
X67243000Y-89569600D01*
X64583000Y-81889600D02*
X64583000Y-89569600D01*
X64583000Y-89569600D02*
X67243000Y-89569600D01*
G04 #@! TO.C,J2*
X99043800Y-78984800D02*
X99043800Y-80314800D01*
X97713800Y-78984800D02*
X99043800Y-78984800D01*
X99043800Y-81584800D02*
X99043800Y-84184800D01*
X96443800Y-81584800D02*
X99043800Y-81584800D01*
X96443800Y-78984800D02*
X96443800Y-81584800D01*
X99043800Y-84184800D02*
X88763800Y-84184800D01*
X96443800Y-78984800D02*
X88763800Y-78984800D01*
X88763800Y-78984800D02*
X88763800Y-84184800D01*
G04 #@! TO.C,J4*
X78673000Y-90179200D02*
X78673000Y-87519200D01*
X70993000Y-90179200D02*
X78673000Y-90179200D01*
X70993000Y-87519200D02*
X78673000Y-87519200D01*
X70993000Y-90179200D02*
X70993000Y-87519200D01*
X69723000Y-90179200D02*
X68393000Y-90179200D01*
X68393000Y-90179200D02*
X68393000Y-88849200D01*
G04 #@! TO.C,Q1*
X72392000Y-81554200D02*
X72392000Y-82484200D01*
X72392000Y-84714200D02*
X72392000Y-83784200D01*
X72392000Y-84714200D02*
X74552000Y-84714200D01*
X72392000Y-81554200D02*
X73852000Y-81554200D01*
G04 #@! TO.C,R1*
X76828467Y-83640200D02*
X76485933Y-83640200D01*
X76828467Y-84660200D02*
X76485933Y-84660200D01*
G04 #@! TO.C,R2*
X86099467Y-78585600D02*
X85756933Y-78585600D01*
X86099467Y-79605600D02*
X85756933Y-79605600D01*
G04 #@! TO.C,R3*
X76252800Y-79686333D02*
X76252800Y-80028867D01*
X75232800Y-79686333D02*
X75232800Y-80028867D01*
G04 #@! TO.C,R4*
X79801933Y-78611000D02*
X80144467Y-78611000D01*
X79801933Y-79631000D02*
X80144467Y-79631000D01*
G04 #@! TO.C,R5*
X73006133Y-85621400D02*
X73348667Y-85621400D01*
X73006133Y-86641400D02*
X73348667Y-86641400D01*
G04 #@! TO.C,R6*
X78809667Y-85621400D02*
X78467133Y-85621400D01*
X78809667Y-86641400D02*
X78467133Y-86641400D01*
G04 #@! TO.C,R7*
X82116200Y-85298067D02*
X82116200Y-84955533D01*
X83136200Y-85298067D02*
X83136200Y-84955533D01*
G04 #@! TO.C,R8*
X99972400Y-83254667D02*
X99972400Y-82912133D01*
X100992400Y-83254667D02*
X100992400Y-82912133D01*
G04 #@! TO.C,R10*
X84812600Y-85312067D02*
X84812600Y-84969533D01*
X83792600Y-85312067D02*
X83792600Y-84969533D01*
G04 #@! TO.C,R11*
X95726067Y-85189600D02*
X95383533Y-85189600D01*
X95726067Y-86209600D02*
X95383533Y-86209600D01*
G04 #@! TO.C,R12*
X99586867Y-86209600D02*
X99244333Y-86209600D01*
X99586867Y-85189600D02*
X99244333Y-85189600D01*
G04 #@! TO.C,U2*
X89925200Y-90153800D02*
X89925200Y-87493800D01*
X82245200Y-90153800D02*
X89925200Y-90153800D01*
X82245200Y-87493800D02*
X89925200Y-87493800D01*
X82245200Y-90153800D02*
X82245200Y-87493800D01*
X80975200Y-90153800D02*
X79645200Y-90153800D01*
X79645200Y-90153800D02*
X79645200Y-88823800D01*
G04 #@! TO.C,J3*
X91024400Y-87493800D02*
X91024400Y-90153800D01*
X96164400Y-87493800D02*
X91024400Y-87493800D01*
X96164400Y-90153800D02*
X91024400Y-90153800D01*
X96164400Y-87493800D02*
X96164400Y-90153800D01*
X97434400Y-87493800D02*
X98764400Y-87493800D01*
X98764400Y-87493800D02*
X98764400Y-88823800D01*
G04 #@! TD*
M02*
