G04 #@! TF.GenerationSoftware,KiCad,Pcbnew,(5.0.0)*
G04 #@! TF.CreationDate,2019-04-18T12:31:28+02:00*
G04 #@! TF.ProjectId,WateringSystem,5761746572696E6753797374656D2E6B,rev?*
G04 #@! TF.SameCoordinates,Original*
G04 #@! TF.FileFunction,Soldermask,Bot*
G04 #@! TF.FilePolarity,Negative*
%FSLAX46Y46*%
G04 Gerber Fmt 4.6, Leading zero omitted, Abs format (unit mm)*
G04 Created by KiCad (PCBNEW (5.0.0)) date 04/18/19 12:31:28*
%MOMM*%
%LPD*%
G01*
G04 APERTURE LIST*
%ADD10R,2.000000X2.000000*%
%ADD11O,2.000000X2.000000*%
%ADD12C,2.180000*%
%ADD13O,2.100000X2.100000*%
%ADD14R,2.100000X2.100000*%
G04 APERTURE END LIST*
D10*
G04 #@! TO.C,A1*
X103174800Y-76758800D03*
D11*
X70154800Y-91998800D03*
X100634800Y-76758800D03*
X72694800Y-91998800D03*
X98094800Y-76758800D03*
X75234800Y-91998800D03*
X95554800Y-76758800D03*
X77774800Y-91998800D03*
X93014800Y-76758800D03*
X80314800Y-91998800D03*
X90474800Y-76758800D03*
X82854800Y-91998800D03*
X87934800Y-76758800D03*
X85394800Y-91998800D03*
X85394800Y-76758800D03*
X87934800Y-91998800D03*
X82854800Y-76758800D03*
X90474800Y-91998800D03*
X80314800Y-76758800D03*
X93014800Y-91998800D03*
X77774800Y-76758800D03*
X95554800Y-91998800D03*
X75234800Y-76758800D03*
X98094800Y-91998800D03*
X72694800Y-76758800D03*
X100634800Y-91998800D03*
X70154800Y-76758800D03*
X103174800Y-91998800D03*
X67614800Y-76758800D03*
X67614800Y-91998800D03*
D12*
X105714800Y-76758800D03*
X105714800Y-91998800D03*
X65074800Y-91998800D03*
X65074800Y-76758800D03*
G04 #@! TD*
D13*
G04 #@! TO.C,J1*
X65913000Y-88239600D03*
X65913000Y-85699600D03*
X65913000Y-83159600D03*
D14*
X65913000Y-80619600D03*
G04 #@! TD*
D13*
G04 #@! TO.C,J2*
X90093800Y-82854800D03*
X90093800Y-80314800D03*
X92633800Y-82854800D03*
X92633800Y-80314800D03*
X95173800Y-82854800D03*
X95173800Y-80314800D03*
X97713800Y-82854800D03*
D14*
X97713800Y-80314800D03*
G04 #@! TD*
G04 #@! TO.C,J4*
X69723000Y-88849200D03*
D13*
X72263000Y-88849200D03*
X74803000Y-88849200D03*
X77343000Y-88849200D03*
G04 #@! TD*
D14*
G04 #@! TO.C,U1*
X105562400Y-80670400D03*
D13*
X103022400Y-80670400D03*
X105562400Y-83210400D03*
X103022400Y-83210400D03*
X105562400Y-85750400D03*
X103022400Y-85750400D03*
X105562400Y-88290400D03*
X103022400Y-88290400D03*
G04 #@! TD*
D14*
G04 #@! TO.C,U2*
X80975200Y-88823800D03*
D13*
X83515200Y-88823800D03*
X86055200Y-88823800D03*
X88595200Y-88823800D03*
G04 #@! TD*
D14*
G04 #@! TO.C,J3*
X97434400Y-88823800D03*
D13*
X94894400Y-88823800D03*
X92354400Y-88823800D03*
G04 #@! TD*
M02*
